<svg width="212" height="127" viewBox="0 0 212 127" fill="none" xmlns="http://www.w3.org/2000/svg">
<path d="M25.4549 28.7105L29.7706 13.1896C30.6012 10.2113 32.5093 8.76586 35.4166 8.76586H46.1306L48.3758 0.804314H35.1698C28.3561 0.804314 24.2872 3.38045 22.7944 8.60849L17.2267 28.7163H12.0743L9.99775 36.3573H15.0659L8.2522 61.0463H16.5586L23.3723 36.3573H35.7536L37.8302 28.7163H25.4549V28.7105Z" fill="#FEFEFE"/>
<path d="M54.0276 0.804314L37.4148 61.0463H45.7212L62.334 0.804314H54.0276Z" fill="#FEFEFE"/>
<path d="M90.4916 8.4453L92.5682 0.804314H67.4804L65.4038 8.4453H73.7945L59.2583 61.0463H67.5647L82.1009 8.4453H90.4916Z" fill="#FEFEFE"/>
<path d="M106.605 0C99.9599 0 95.6381 2.8151 94.1454 8.2821L79.5249 61.0404H87.8313L101.621 11.3362C102.205 9.08642 103.613 7.95571 105.859 7.95571C109.434 7.95571 110.68 9.48274 109.843 12.461L96.3905 61.0404H104.697L117.903 13.1838C120.311 4.50532 116.41 0 106.605 0Z" fill="#FEFEFE"/>
<path d="M134.847 13.1896C135.677 10.2113 137.507 8.76586 140.414 8.76586H151.128L153.374 0.804314H140.168C133.36 0.804314 129.285 3.38045 127.792 8.60849L123.139 25.5807H117.987L115.91 33.2217H120.979L116.994 47.6993C114.502 56.6284 117.987 61.0521 127.293 61.0521H136.761L138.837 53.4111H128.954C125.547 53.4111 124.301 51.6393 125.216 48.1831L129.369 33.2217H141.582L143.659 25.5807H131.446L134.847 13.1896Z" fill="#FEFEFE"/>
<path d="M167.573 27.1835L163.835 25.3359C161.259 24.0478 160.265 22.1186 161.012 19.4667L163.257 11.342C163.919 9.24961 165.58 7.96154 167.825 7.96154C170.733 7.96154 172.063 9.65177 171.395 12.4669L170.402 16.4068H178.708L179.539 13.1896C181.694 4.90748 177.462 0 168.241 0C161.848 0 157.28 3.05406 155.781 8.2821L152.627 19.7815C151.05 25.4932 152.874 29.5148 157.773 31.8462L161.427 33.618C163.756 34.9061 164.665 36.9168 163.835 39.8893L161.012 50.5086C160.344 52.7583 158.767 53.889 156.359 53.889C153.289 53.889 152.043 52.362 152.79 49.3837L154.204 43.7535H145.898L144.652 48.661C142.491 57.3452 146.313 61.8506 155.95 61.8506C162.679 61.8506 167.163 58.4701 168.909 51.9598L172.231 39.8951C173.887 33.7812 172.31 29.678 167.573 27.1835Z" fill="#FEFEFE"/>
<path d="M198.722 0C192.329 0 187.761 3.05406 186.262 8.2821L183.108 19.7815C181.531 25.4932 183.355 29.5148 188.26 31.8462L191.914 33.618C194.243 34.9061 195.152 36.9168 194.322 39.8893L191.499 50.5086C190.837 52.7583 189.26 53.889 186.846 53.889C183.776 53.889 182.53 52.362 183.277 49.3837L184.685 43.7535H176.379L175.133 48.661C172.972 57.3452 176.794 61.8506 186.431 61.8506C193.16 61.8506 197.644 58.4701 199.39 51.9598L202.712 39.8951C204.374 33.7812 202.797 29.678 198.06 27.1893L194.322 25.3417C191.746 24.0536 190.752 22.1245 191.499 19.4726L193.744 11.3478C194.412 9.25544 196.067 7.96737 198.312 7.96737C201.22 7.96737 202.55 9.65759 201.882 12.4727L200.889 16.4127H209.195L210.026 13.1954C212.18 4.90748 207.943 0 198.722 0Z" fill="#FEFEFE"/>
<path d="M79.1518 71.8695C73.1808 71.8695 69.3466 74.3699 68.0224 79.2191L58.145 115.052C56.0082 122.763 59.4692 126.755 68.2451 126.755C74.2161 126.755 77.978 124.255 79.3022 119.406L85.4177 97.3511H74.1378L72.296 104.13H76.1302L72.5909 116.69C72.0733 118.689 70.6768 119.685 68.6123 119.685C65.8134 119.685 64.6336 118.327 65.3679 115.687L74.6555 81.9235C75.1731 79.9243 76.6478 78.9277 78.7846 78.9277C81.5113 78.9277 82.5466 80.2857 81.9567 82.9259L81.1441 86.4229H88.4393L89.1014 83.5671C90.877 75.8678 87.4822 71.8695 79.1518 71.8695Z" fill="#FEFEFE"/>
<path d="M119.992 72.5864H112.618L106.719 93.5685C106.202 95.5676 104.799 96.5643 102.813 96.5643C99.8637 96.5643 98.7561 95.2063 99.4965 92.566L105.1 72.5806H97.8051L92.2735 91.9249C90.5761 97.7067 92.2013 101.419 96.8421 102.917L90.5039 126.044H97.8773L104.071 103.558C108.934 103.133 112.179 100.702 113.359 96.2787L119.992 72.5864Z" fill="#FEFEFE"/>
<path d="M148.889 71.8695C145.206 71.8695 142.401 73.7987 140.559 77.5813C140.264 73.7987 137.904 71.8695 133.559 71.8695C128.918 71.8695 125.746 74.3699 124.416 79.2191L111.517 126.044H118.89L131.127 81.2182C131.494 79.7203 132.451 78.9335 133.926 78.9335C135.768 78.9335 136.358 80.2915 135.623 82.9318L123.754 126.044H131.127L143.508 81.2182C143.875 79.7203 144.833 78.9335 146.307 78.9335C148.077 78.9335 148.588 80.2915 147.854 82.9318L135.984 126.044H143.358L155.005 83.5729C157.148 75.8678 155.005 71.8695 148.889 71.8695Z" fill="#FEFEFE"/>
<path d="M21.8494 69.4508H8.2522V127H21.8494V69.4508Z" fill="#FEFEFE"/>
<path d="M55.0269 90.9108H37.5233V69.4508H23.926V127H37.5233V105.54H50.8737L55.0269 90.9108Z" fill="#FEFEFE"/>
<path d="M7.73459 104.048C12.0063 104.048 15.4692 100.695 15.4692 96.5585C15.4692 92.4222 12.0063 89.069 7.73459 89.069C3.46289 89.069 0 92.4222 0 96.5585C0 100.695 3.46289 104.048 7.73459 104.048Z" fill="#FEFEFE"/>
<path d="M204.416 69.4508H190.819V127H204.416V69.4508Z" fill="#FEFEFE"/>
<path d="M175.145 69.4508V90.9108H161.054L156.907 105.54H175.145V127H188.742V69.4508H175.145Z" fill="#FEFEFE"/>
<path d="M212 96.5585C212 100.697 208.539 104.048 204.265 104.048C199.992 104.048 196.525 100.697 196.525 96.5585C196.525 92.4203 199.992 89.069 204.265 89.069C208.533 89.069 212 92.4203 212 96.5585Z" fill="#FEFEFE"/>
</svg>
