<svg width="24" height="24" viewBox="0 0 24 24" fill="none" xmlns="http://www.w3.org/2000/svg">
<path fill-rule="evenodd" clip-rule="evenodd" d="M12 6.6002C10.2496 6.6002 8.57084 7.29555 7.3331 8.53329C6.09536 9.77103 5.4 11.4498 5.4 13.2002C5.4 14.9506 6.09536 16.6294 7.3331 17.8671C8.57084 19.1048 10.2496 19.8002 12 19.8002C13.7504 19.8002 15.4292 19.1048 16.6669 17.8671C17.9046 16.6294 18.6 14.9506 18.6 13.2002C18.6 11.4498 17.9046 9.77103 16.6669 8.53329C15.4292 7.29555 13.7504 6.6002 12 6.6002ZM3 13.2002C3 10.8132 3.94821 8.52406 5.63604 6.83623C7.32387 5.14841 9.61305 4.2002 12 4.2002C14.3869 4.2002 16.6761 5.14841 18.364 6.83623C20.0518 8.52406 21 10.8132 21 13.2002C21 15.5871 20.0518 17.8763 18.364 19.5642C16.6761 21.252 14.3869 22.2002 12 22.2002C9.61305 22.2002 7.32387 21.252 5.63604 19.5642C3.94821 17.8763 3 15.5871 3 13.2002Z" fill="#5F5F5F"/>
<path fill-rule="evenodd" clip-rule="evenodd" d="M17.1514 8.04879C17.3764 8.27376 17.6816 8.40013 17.9998 8.40013C18.318 8.40013 18.6232 8.27376 18.8482 8.04879L20.6482 6.24879C20.8668 6.02247 20.9878 5.71935 20.985 5.40471C20.9823 5.09007 20.8561 4.7891 20.6336 4.56661C20.4111 4.34412 20.1101 4.21792 19.7955 4.21518C19.4809 4.21245 19.1777 4.3334 18.9514 4.55199L17.1514 6.35199C16.9264 6.57702 16.8001 6.88219 16.8001 7.20039C16.8001 7.51859 16.9264 7.82376 17.1514 8.04879ZM10.7998 4.80039V2.40039H13.1998V4.80039H10.7998Z" fill="#5F5F5F"/>
<path fill-rule="evenodd" clip-rule="evenodd" d="M9 2.4002C9 2.08194 9.12643 1.77671 9.35147 1.55167C9.57652 1.32662 9.88174 1.2002 10.2 1.2002H13.8C14.1183 1.2002 14.4235 1.32662 14.6485 1.55167C14.8736 1.77671 15 2.08194 15 2.4002C15 2.71846 14.8736 3.02368 14.6485 3.24872C14.4235 3.47377 14.1183 3.6002 13.8 3.6002H10.2C9.88174 3.6002 9.57652 3.47377 9.35147 3.24872C9.12643 3.02368 9 2.71846 9 2.4002Z" fill="#5F5F5F"/>
<path d="M12 8.45455C12 8.20351 12.2035 8 12.4545 8C14.9649 8 17 10.0351 17 12.5455C17 12.7965 16.7965 13 16.5455 13H12.5C12.2239 13 12 12.7761 12 12.5V8.45455Z" fill="#5F5F5F"/>
</svg>
