<svg width="270" height="270" viewBox="0 0 270 270" fill="none" xmlns="http://www.w3.org/2000/svg">
<path d="M112.714 23.7651H40.8833V133.904H112.714V23.7651Z" fill="#DBDBDB"/>
<path d="M75.1301 28.1772H44.7983V77.166H75.1301V28.1772Z" fill="white"/>
<path d="M108.799 28.1772H78.4673V77.166H108.799V28.1772Z" fill="white"/>
<path d="M75.1301 80.5029H44.7983V129.492H75.1301V80.5029Z" fill="white"/>
<path d="M108.799 80.5029H78.4673V129.492H108.799V80.5029Z" fill="white"/>
<path d="M57.8987 23.7651H40.8833V181.337H57.8987V23.7651Z" fill="#EBEBEB"/>
<path d="M54.6694 31.2549L54.799 48.2919L54.8476 65.3289L54.9394 99.4029L54.8476 133.477L54.8044 150.514L54.6694 167.551L54.5398 150.514L54.4912 133.477L54.3994 99.4029L54.4912 65.3289L54.5398 48.2919L54.6694 31.2549Z" fill="white"/>
<path d="M46.8613 35.208L46.9909 50.4198L47.0665 65.6316L47.1259 96.0552L47.0665 126.484L46.9909 141.696L46.8613 156.908L46.7263 141.696L46.6507 126.484L46.5913 96.0552L46.6507 65.6316L46.7263 50.4198L46.8613 35.208Z" fill="white"/>
<path d="M50.7656 38.7988L50.8952 56.6134L50.9438 74.4226L51.0356 110.052L50.9438 145.676L50.8952 163.49L50.7656 181.299L50.6306 163.49L50.5874 145.676L50.4956 110.052L50.5874 74.4226L50.636 56.6134L50.7656 38.7988Z" fill="white"/>
<path d="M43.9506 32.1567L44.0856 50.7975L44.1342 69.4383L44.2206 106.725L44.1342 144.012L44.0856 162.659L43.9506 181.299L43.821 162.659L43.7724 144.012L43.686 106.725L43.7724 69.4383L43.821 50.7975L43.9506 32.1567Z" fill="white"/>
<path d="M95.699 181.337H112.714L112.714 23.7654H95.699L95.699 181.337Z" fill="#EBEBEB"/>
<path d="M98.9228 31.2549L99.0578 48.2919L99.1064 65.3289L99.1928 99.4029L99.1064 133.477L99.0578 150.514L98.9228 167.551L98.7932 150.514L98.7446 133.477L98.6528 99.4029L98.7446 65.3289L98.7932 48.2919L98.9228 31.2549Z" fill="white"/>
<path d="M106.736 35.208L106.866 50.4198L106.942 65.6316L107.006 96.0552L106.947 126.484L106.871 141.696L106.736 156.908L106.607 141.696L106.531 126.484L106.466 96.0552L106.531 65.6316L106.607 50.4198L106.736 35.208Z" fill="white"/>
<path d="M102.833 38.7988L102.962 56.6134L103.011 74.4226L103.103 110.052L103.011 145.676L102.962 163.49L102.833 181.299L102.698 163.49L102.649 145.676L102.562 110.052L102.654 74.4226L102.703 56.6134L102.833 38.7988Z" fill="white"/>
<path d="M109.642 32.1567L109.771 50.7975L109.82 69.4383L109.912 106.725L109.82 144.012L109.777 162.659L109.642 181.299L109.512 162.659L109.463 144.012L109.372 106.725L109.463 69.4383L109.512 50.7975L109.642 32.1567Z" fill="white"/>
<path d="M192.77 72.6488C203.951 61.4678 203.951 43.3398 192.77 32.1588C181.589 20.9778 163.461 20.9778 152.28 32.1588C141.099 43.3398 141.099 61.4678 152.28 72.6488C163.461 83.8299 181.589 83.8299 192.77 72.6488Z" fill="#EBEBEB"/>
<path opacity="0.5" d="M181.246 79.677C176.97 81.0404 172.433 81.3791 168.002 80.6657C163.571 79.9524 159.37 78.2071 155.738 75.5706C152.106 72.9342 149.145 69.4805 147.094 65.4886C145.044 61.4967 143.96 57.0784 143.932 52.5906C143.903 48.1027 144.931 43.6711 146.931 39.6535C148.931 35.636 151.848 32.1452 155.447 29.463C159.045 26.7808 163.224 24.9825 167.645 24.2132C172.067 23.4439 176.607 23.7252 180.9 25.0344C175.124 23.5082 168.992 24.1145 163.628 26.7421C158.263 29.3697 154.025 33.8426 151.69 39.3412C149.355 44.8397 149.08 50.9955 150.915 56.6804C152.75 62.3653 156.572 67.1986 161.681 70.2943C166.79 73.39 172.844 74.5409 178.732 73.5361C184.621 72.5312 189.95 69.4379 193.743 64.823C197.537 60.2082 199.54 54.3809 199.386 48.4091C199.231 42.4374 196.93 36.7212 192.904 32.3082C196.341 35.7919 198.828 40.099 200.126 44.8177C201.424 49.5364 201.491 54.5092 200.319 59.2609C199.147 64.0126 196.777 68.3845 193.434 71.9588C190.091 75.5331 185.887 78.1905 181.224 79.677H181.246Z" fill="#DBDBDB"/>
<path d="M161.617 49.9443C161.861 50.7042 161.874 51.5195 161.655 52.2871C161.436 53.0547 160.994 53.7399 160.385 54.2561C159.776 54.7724 159.028 55.0963 158.235 55.187C157.442 55.2777 156.64 55.131 155.93 54.7656C155.22 54.4002 154.635 53.8324 154.248 53.1341C153.861 52.4358 153.69 51.6385 153.757 50.843C153.823 50.0476 154.124 49.2897 154.622 48.6654C155.119 48.0411 155.791 47.5785 156.551 47.3361C157.569 47.0117 158.674 47.1041 159.623 47.593C160.573 48.082 161.29 48.9275 161.617 49.9443Z" fill="#C7C7C7"/>
<path d="M187.661 41.6175C187.904 42.3776 187.916 43.1928 187.696 43.96C187.476 44.7271 187.034 45.4118 186.424 45.9273C185.815 46.4427 185.066 46.7659 184.273 46.8558C183.48 46.9457 182.679 46.7984 181.969 46.4324C181.26 46.0664 180.675 45.4983 180.289 44.7999C179.903 44.1015 179.732 43.3042 179.799 42.5089C179.866 41.7136 180.168 40.9561 180.666 40.3322C181.163 39.7083 181.835 39.246 182.595 39.0039C183.1 38.8427 183.631 38.7824 184.158 38.8265C184.686 38.8706 185.199 39.0182 185.67 39.261C186.14 39.5037 186.558 39.8368 186.9 40.2411C187.241 40.6455 187.5 41.1132 187.661 41.6175Z" fill="#C7C7C7"/>
<path d="M176.213 43.9937C176.467 44.7566 176.568 45.5625 176.509 46.3646C176.45 47.1667 176.232 47.9491 175.868 48.6664C175.504 49.3836 175.001 50.0214 174.388 50.5428C173.776 51.0642 173.066 51.4588 172.3 51.7037C171.534 51.9485 170.727 52.0389 169.925 51.9694C169.124 51.8999 168.345 51.6719 167.632 51.2988C166.92 50.9257 166.288 50.4148 165.775 49.7957C165.261 49.1767 164.876 48.4618 164.641 47.6927L176.213 43.9937Z" fill="#C7C7C7"/>
<path d="M176.094 48.0274C175.767 48.8751 175.255 49.6386 174.594 50.262C173.933 50.8853 173.141 51.3525 172.276 51.6292C171.411 51.9058 170.494 51.9849 169.594 51.8606C168.695 51.7364 167.834 51.4119 167.076 50.911C167.988 49.4331 169.398 48.33 171.052 47.8011C172.706 47.2723 174.494 47.3525 176.094 48.0274Z" fill="#DBDBDB"/>
<path d="M238.631 113.951C241.325 102.885 234.537 91.7301 223.471 89.0364C212.404 86.3428 201.25 93.1303 198.556 104.197C195.862 115.263 202.65 126.418 213.716 129.112C224.783 131.805 235.937 125.018 238.631 113.951Z" fill="#EBEBEB"/>
<path opacity="0.5" d="M213.354 129.011C210.224 128.189 207.332 126.643 204.91 124.496C202.489 122.35 200.607 119.664 199.416 116.655C198.225 113.646 197.759 110.4 198.055 107.178C198.351 103.955 199.401 100.848 201.12 98.1068C202.84 95.3656 205.18 93.0675 207.952 91.3982C210.724 89.7288 213.849 88.7352 217.076 88.4976C220.303 88.26 223.541 88.785 226.528 90.0303C229.514 91.2756 232.166 93.2062 234.268 95.6661C231.347 92.5074 227.386 90.5071 223.11 90.0319C218.834 89.5566 214.53 90.6381 210.986 93.0783C207.443 95.5185 204.898 99.1538 203.817 103.318C202.736 107.482 203.192 111.897 205.101 115.752C207.011 119.607 210.245 122.646 214.213 124.31C218.18 125.974 222.614 126.153 226.703 124.814C230.791 123.474 234.26 120.707 236.474 117.017C238.687 113.328 239.497 108.965 238.755 104.727C239.495 108.171 239.341 111.747 238.308 115.115C237.275 118.482 235.396 121.529 232.852 123.965C230.308 126.401 227.182 128.146 223.773 129.032C220.363 129.918 216.784 129.916 213.375 129.027L213.354 129.011Z" fill="#DBDBDB"/>
<path d="M231.957 108.351C231.811 108.905 231.505 109.404 231.076 109.785C230.647 110.165 230.115 110.41 229.547 110.488C228.979 110.565 228.4 110.473 227.885 110.223C227.369 109.972 226.939 109.574 226.65 109.08C226.36 108.585 226.224 108.015 226.258 107.443C226.291 106.871 226.494 106.321 226.84 105.864C227.186 105.407 227.66 105.063 228.202 104.875C228.743 104.687 229.329 104.664 229.883 104.809C230.252 104.905 230.599 105.073 230.903 105.303C231.207 105.533 231.462 105.821 231.655 106.15C231.847 106.479 231.973 106.843 232.025 107.22C232.077 107.598 232.054 107.982 231.957 108.351Z" fill="#C7C7C7"/>
<path d="M212.906 103.356C212.76 103.912 212.453 104.413 212.023 104.795C211.593 105.176 211.06 105.422 210.49 105.5C209.921 105.578 209.34 105.486 208.823 105.234C208.306 104.983 207.876 104.583 207.586 104.087C207.296 103.59 207.16 103.019 207.195 102.445C207.23 101.871 207.434 101.32 207.783 100.863C208.131 100.405 208.607 100.061 209.151 99.8744C209.695 99.6876 210.282 99.6663 210.837 99.8134C211.206 99.9101 211.552 100.078 211.855 100.309C212.158 100.539 212.413 100.827 212.605 101.156C212.798 101.485 212.923 101.849 212.974 102.226C213.026 102.603 213.003 102.987 212.906 103.356Z" fill="#C7C7C7"/>
<path d="M214.866 102.567C214.86 103.819 215.216 105.046 215.892 106.099C216.598 107.058 217.622 107.734 218.781 108.005C219.916 108.367 221.144 108.3 222.232 107.816C223.351 107.25 224.302 106.401 224.991 105.354C224.598 106.656 223.744 107.769 222.588 108.486C221.982 108.847 221.303 109.072 220.601 109.145C219.901 109.2 219.197 109.13 218.522 108.939C217.852 108.751 217.217 108.454 216.643 108.059C216.068 107.647 215.592 107.112 215.25 106.493C214.615 105.285 214.478 103.876 214.866 102.567Z" fill="#C7C7C7"/>
<path d="M232.481 148.532H184.831V214.472H232.481V148.532Z" fill="#EBEBEB"/>
<path d="M234.787 146.086H182.52V148.532H234.787V146.086Z" fill="#DBDBDB"/>
<path d="M251.224 146.086H234.787V148.532H251.224V146.086Z" fill="#EBEBEB"/>
<path d="M248.627 148.532H232.481V214.472H248.627V148.532Z" fill="#DBDBDB"/>
<path d="M227.34 179.059H189.95V157.912H227.34V179.059ZM190.08 178.924H227.216V158.047H190.08V178.924Z" fill="#C7C7C7"/>
<path d="M210.713 164.095H203.434V168.28H210.713V164.095Z" fill="#C7C7C7"/>
<path d="M212.933 168.031H205.519V164.343H212.933V168.031ZM205.654 167.896H212.798V164.478H205.654V167.896Z" fill="#C7C7C7"/>
<path d="M227.34 205.605H189.95V184.458H227.34V205.605ZM190.08 205.47H227.216V184.593H190.08V205.47Z" fill="#C7C7C7"/>
<path d="M210.713 190.642H203.434V194.827H210.713V190.642Z" fill="#C7C7C7"/>
<path d="M212.933 194.578H205.519V190.89H212.933V194.578ZM205.654 194.443H212.798V191.025H205.654V194.443Z" fill="#C7C7C7"/>
<path d="M35.2132 129.362L28.123 129.508L24.5266 129.573C23.3278 129.573 22.1182 129.573 20.914 129.6H20.671V129.362L20.644 123.32V123.044H20.914L28.0636 123.077C30.445 123.077 32.8264 123.136 35.2132 123.163H35.359V123.309C35.359 124.33 35.3104 125.35 35.2888 126.36L35.2132 129.362ZM35.2132 129.362L35.1376 126.306C35.1376 125.302 35.0728 124.308 35.062 123.32L35.2132 123.466C32.8264 123.493 30.445 123.552 28.0636 123.552L20.914 123.59L21.184 123.32L21.1516 129.362L20.914 129.119C22.0912 129.119 23.263 129.119 24.4456 129.119L27.9988 129.184L35.2132 129.362Z" fill="#EBEBEB"/>
<path d="M27.2377 136.981L20.1475 137.127L16.5511 137.192C15.3469 137.192 14.1427 137.192 12.9385 137.219H12.6955V136.981L12.6685 130.939V130.68H12.9601H20.0881C22.4695 130.68 24.8509 130.739 27.2377 130.766H27.3835V130.912C27.3835 131.932 27.3349 132.953 27.3133 133.963L27.2377 136.981ZM27.2377 136.981L27.1567 133.92C27.1567 132.915 27.0973 131.922 27.0865 130.933L27.2377 131.079C24.8509 131.106 22.4695 131.166 20.0881 131.166L12.9601 131.22L13.2247 130.955L13.1977 136.998L12.9601 136.755C14.1373 136.755 15.3091 136.755 16.4917 136.782L20.0449 136.846L27.2377 136.981Z" fill="#EBEBEB"/>
<path d="M249.086 136.981L242.001 137.127L238.405 137.192C237.2 137.192 235.991 137.192 234.787 137.219H234.549V136.981L234.517 130.939V130.68H234.787H241.92C244.307 130.68 246.688 130.739 249.07 130.766H249.221V130.912C249.221 131.932 249.172 132.953 249.151 133.963L249.086 136.981ZM249.086 136.981L249.01 133.925C249.01 132.921 248.951 131.927 248.94 130.939L249.086 131.085C246.704 131.112 244.323 131.171 241.936 131.171L234.787 131.203L235.057 130.939L235.03 136.981L234.787 136.738C235.964 136.738 237.141 136.738 238.324 136.765L241.877 136.83L249.086 136.981Z" fill="#EBEBEB"/>
<path d="M241.11 29.8077L234.025 29.9589L230.429 30.0183C229.225 30.0183 228.015 30.0183 226.811 30.0507H226.573V29.8077L226.541 23.7597V23.4897H226.811L233.961 23.5221C236.342 23.5221 238.729 23.5869 241.11 23.6139H241.261V23.7597C241.261 24.7857 241.218 25.8063 241.191 26.8107L241.11 29.8077ZM241.11 29.8077L241.035 26.7567C241.008 25.7469 240.975 24.7533 240.964 23.7651L241.11 23.9109C238.729 23.9109 236.342 23.9973 233.961 24.0027L226.8 24.0351L227.07 23.7651V29.8077L226.827 29.5647C228.004 29.5647 229.182 29.5647 230.364 29.5971L233.917 29.6565L241.11 29.8077Z" fill="#EBEBEB"/>
<path d="M249.086 37.4273L242.001 37.5785L238.405 37.6379C237.2 37.6379 235.991 37.6379 234.787 37.6703H234.549V37.4273L234.517 31.3847V31.1147H234.787L241.936 31.1471C244.323 31.1471 246.704 31.2119 249.086 31.2389H249.237V31.3847C249.237 32.4107 249.188 33.4313 249.167 34.4357L249.086 37.4273ZM249.086 37.4273L249.01 34.3763C249.01 33.3665 248.951 32.3729 248.94 31.3847L249.086 31.5305C246.704 31.5305 244.323 31.6169 241.936 31.6223L234.787 31.6547L235.057 31.3847L235.03 37.4273L234.787 37.1843C235.964 37.1843 237.141 37.1843 238.324 37.2167L241.877 37.2761L249.086 37.4273Z" fill="#EBEBEB"/>
<path d="M35.2132 29.8077L28.123 29.9589L24.5266 30.0183C23.3278 30.0183 22.1182 30.0183 20.914 30.0507H20.671V29.8077L20.644 23.7597V23.4897H20.914L28.0798 23.5275C30.4612 23.5275 32.8426 23.5923 35.2294 23.6193H35.3752V23.7597C35.3752 24.7857 35.3266 25.8063 35.305 26.8107L35.2132 29.8077ZM35.2132 29.8077L35.1376 26.7567C35.1376 25.7469 35.0728 24.7533 35.062 23.7651L35.2132 23.9109C32.8264 23.9109 30.445 23.9973 28.0636 24.0027L20.914 24.0351L21.184 23.7651L21.1516 29.8077L20.914 29.5647C22.0912 29.5647 23.263 29.5647 24.4456 29.5971L27.9988 29.6565L35.2132 29.8077Z" fill="#EBEBEB"/>
<path d="M135 253.924C169.538 253.924 197.537 249.863 197.537 244.852C197.537 239.842 169.538 235.78 135 235.78C100.461 235.78 72.4624 239.842 72.4624 244.852C72.4624 249.863 100.461 253.924 135 253.924Z" fill="#EBEBEB"/>
<path d="M18.6626 214.472L47.747 214.342L76.8314 214.293L135 214.202L193.169 214.293L222.253 214.342L251.338 214.472L222.253 214.607L193.169 214.65L135 214.742L76.8314 214.65L47.747 214.607L18.6626 214.472Z" fill="#263238"/>
<path d="M53.3519 171.347C52.7873 173.413 52.4132 175.526 52.2341 177.66C52.2935 177.768 52.2827 178.157 52.2341 178.049C52.2341 178.394 51.6941 178.335 51.6941 177.989C51.6941 177.768 51.6941 177.547 51.6941 177.331C50.4629 175.797 48.6701 174.825 47.2175 173.491C46.0525 172.446 45.2033 171.095 44.7659 169.592C43.5671 165.451 44.6903 161.06 43.2485 156.929C42.0011 153.371 39.7655 150.271 37.8755 147.047C35.8775 143.635 34.4087 140.027 34.2575 136.053C34.1441 132.991 34.5059 128.914 36.8387 126.619C39.3065 124.189 42.3683 126.014 44.2637 128.18C49.7555 134.46 52.2935 142.436 53.3195 150.568C53.8595 155.072 54.4697 159.602 54.3347 164.144C54.2489 166.572 53.9197 168.985 53.3519 171.347Z" fill="#F96C00"/>
<path d="M52.2611 179.318C52.5591 175.069 52.5086 170.803 52.1099 166.563C52.1099 166.563 52.1099 166.563 52.1099 166.52C52.1801 163.069 52.4501 159.635 52.3151 156.184C52.1478 152.452 51.6399 148.743 50.7977 145.103C50.7977 145.06 50.7221 145.071 50.7329 145.103C51.4045 148.681 51.8052 152.303 51.9317 155.941C52.0037 157.892 51.9875 159.84 51.8831 161.784C51.8507 162.416 51.7913 163.053 51.7535 163.695C50.3211 154.015 46.8219 144.757 41.4935 136.55C41.4233 136.436 41.2235 136.55 41.2937 136.674C45.1098 142.912 47.9386 149.703 49.6799 156.805C47.0393 151.918 43.0595 147.9 40.1003 143.202C40.1003 143.175 40.0463 143.202 40.0571 143.229C42.7139 148.457 47.0771 152.582 49.8959 157.728C50.3819 159.829 50.7761 161.951 51.0731 164.079C51.466 167.004 51.6788 169.951 51.7103 172.902C50.0903 169.9 48.4325 167.027 47.1203 163.852C47.0879 163.766 46.9637 163.825 46.9907 163.906C48.1085 167.205 49.6151 170.759 51.7157 173.572C51.7157 175.662 51.6671 177.752 51.5429 179.836C51.2189 185.403 50.2631 190.901 49.8257 196.446C49.8267 196.477 49.8387 196.507 49.8594 196.529C49.8801 196.552 49.9083 196.567 49.9388 196.571C49.9693 196.574 50.0003 196.567 50.026 196.551C50.0518 196.534 50.0708 196.508 50.0795 196.479C51.1918 190.814 51.9207 185.081 52.2611 179.318Z" fill="#263238"/>
<path d="M46.3483 136.377C46.3483 136.339 46.2727 136.377 46.2889 136.377C47.3041 139.191 47.8765 142.042 48.6109 144.925C48.619 144.95 48.6358 144.971 48.6581 144.985C48.6805 144.998 48.707 145.003 48.7327 144.998C48.7583 144.994 48.7815 144.98 48.7978 144.96C48.8141 144.939 48.8225 144.914 48.8215 144.888C48.5245 142.02 47.4823 139.072 46.3483 136.377Z" fill="#263238"/>
<path d="M72.1709 148.165C71.4944 149.815 70.7134 151.421 69.8327 152.971C68.0021 156.298 66.0905 159.343 65.7449 163.231C65.5937 164.959 65.5397 166.698 65.0105 168.361C64.5311 169.795 63.8414 171.149 62.9639 172.379C60.9821 175.273 58.4981 177.779 56.6621 180.765C54.7482 183.893 53.3343 187.3 52.4717 190.863C52.4231 191.058 52.1207 191.009 52.1639 190.815C52.1663 190.8 52.1663 190.786 52.1639 190.771C52.16 190.757 52.16 190.742 52.1639 190.728C51.8723 182.423 52.5365 174.058 55.0691 166.104C56.1868 162.601 57.5306 159.174 59.0921 155.844C60.4475 152.961 62.1377 150.185 64.4921 148.03C66.0365 146.637 69.3899 144.002 71.5877 145.395C72.6677 146.07 72.5867 147.129 72.1709 148.165Z" fill="#F96C00"/>
<path d="M63.828 166.99C62.3641 169.399 60.7518 171.714 59.0004 173.923C58.2012 174.976 57.3804 176.013 56.5812 177.066C56.2032 177.563 55.7766 178.054 55.431 178.589C55.647 177.714 55.863 176.845 56.0844 175.97C57.1644 171.774 58.185 167.541 59.7834 163.507C61.4194 159.601 63.3454 155.823 65.5452 152.205C65.6046 152.113 65.448 152.043 65.3886 152.134C63.639 155.018 61.857 157.902 60.3828 160.942C59.5684 162.639 58.8579 164.385 58.2552 166.169C58.9308 162.377 59.8764 158.638 61.0848 154.98C61.0848 154.948 61.047 154.926 61.0362 154.98C59.4529 158.674 58.4616 162.593 58.0986 166.596C57.7368 167.676 57.4074 168.756 57.0996 169.836C55.7928 174.48 54.6426 179.172 53.5788 183.875C53.5586 180.779 53.8262 177.688 54.378 174.642C54.378 174.571 54.2862 174.555 54.27 174.642C53.4604 177.814 53.1884 181.099 53.4654 184.361C53.0658 186.161 52.6734 187.961 52.2882 189.761C51.4728 193.59 50.4738 197.483 49.9932 201.371C49.9936 201.39 50.0006 201.408 50.0128 201.422C50.0251 201.437 50.0419 201.446 50.0604 201.449C50.0789 201.452 50.0979 201.449 50.1142 201.44C50.1305 201.431 50.143 201.416 50.1498 201.398C50.7168 199.303 51.0624 197.127 51.5268 195.01C51.9912 192.893 52.4772 190.755 52.9686 188.638C53.6922 185.544 54.4482 182.466 55.215 179.388C55.755 178.26 56.727 177.255 57.4722 176.31C58.2876 175.273 59.0922 174.231 59.9022 173.178C61.3944 171.225 62.7305 169.158 63.8982 166.995C63.9252 166.974 63.855 166.946 63.828 166.99Z" fill="#263238"/>
<path d="M64.1845 163.436C62.355 165.769 60.7716 168.284 59.4595 170.942C59.4595 170.975 59.4973 171.007 59.5189 170.975C61.1065 168.485 62.6671 165.974 64.2547 163.485C64.2601 163.442 64.2115 163.399 64.1845 163.436Z" fill="#263238"/>
<path d="M28.8361 156.06C29.9161 157.912 31.1419 160.137 30.6775 162.362C30.3859 163.771 29.3545 164.916 29.1709 166.352C28.7497 169.522 31.9141 171.617 34.1983 173.118C39.9007 176.861 47.6983 180.192 48.7783 187.833C48.8161 188.103 49.2859 188.033 49.2535 187.769C49.256 187.752 49.256 187.736 49.2535 187.72C49.2535 187.72 49.2535 187.72 49.2535 187.677C50.0021 183.812 49.9635 179.836 49.1401 175.986C48.2923 172.049 46.5697 168.512 44.5447 165.051C41.1103 159.197 37.4761 153.203 32.2921 148.721C30.8557 147.479 27.9127 145.249 26.7679 148.046C25.6231 150.843 27.5401 153.776 28.8361 156.06Z" fill="#F96C00"/>
<path d="M34.0524 168.448C37.8324 172.541 43.8426 174.836 47.0988 179.421C45.2822 172.442 41.8468 165.989 37.071 160.585C37.0551 160.558 37.0484 160.527 37.0517 160.496C37.055 160.465 37.0683 160.436 37.0894 160.413C37.1106 160.39 37.1386 160.374 37.1693 160.368C37.2 160.362 37.2318 160.367 37.26 160.38C40.7426 163.765 43.526 167.802 45.4518 172.26C44.5535 169.151 43.3732 166.131 41.9256 163.237C41.9154 163.215 41.9138 163.19 41.9211 163.167C41.9283 163.144 41.944 163.124 41.965 163.112C41.9859 163.1 42.0106 163.096 42.0343 163.101C42.058 163.106 42.0789 163.12 42.093 163.14C43.8785 166.3 45.1542 169.723 45.873 173.281C50.1606 183.66 50.5602 195.831 49.653 206.761C49.653 206.794 49.6399 206.825 49.6166 206.849C49.5933 206.872 49.5617 206.885 49.5288 206.885C49.4958 206.885 49.4642 206.872 49.4409 206.849C49.4177 206.825 49.4046 206.794 49.4046 206.761C49.653 198.121 49.5126 189.367 47.4498 180.949C47.4066 180.776 47.358 180.603 47.3148 180.409C43.7724 175.473 37.7892 173.189 33.939 168.502C33.9498 168.48 34.02 168.405 34.0524 168.448Z" fill="#263238"/>
<path d="M33.1779 164.932C35.1651 166.752 37.1145 168.615 39.1179 170.435C39.1179 170.435 39.1179 170.489 39.1179 170.473C36.8706 168.962 34.8458 167.145 33.1023 165.073C32.9943 164.97 33.0969 164.857 33.1779 164.932Z" fill="#263238"/>
<path d="M32.8644 157.043C34.6205 159.922 36.607 162.654 38.8044 165.213C38.8044 165.245 38.8044 165.294 38.7504 165.262C36.2884 162.917 34.2593 160.157 32.7564 157.108C32.752 157.094 32.7525 157.079 32.7577 157.065C32.7628 157.052 32.7724 157.04 32.7849 157.033C32.7973 157.025 32.8119 157.022 32.8264 157.024C32.8408 157.026 32.8542 157.032 32.8644 157.043Z" fill="#263238"/>
<path d="M41.8013 214.472H59.1785L56.8403 191.09H44.4743L41.8013 214.472Z" fill="#455A64"/>
<path d="M44.0425 194.886H57.2239L56.8405 191.09H44.4745L44.0425 194.886Z" fill="#263238"/>
<path d="M42.3469 192.229H58.6387V188.498H42.3469V192.229Z" fill="#455A64"/>
<path d="M126.22 189.54L141.588 209.839C144.548 213.705 147.069 217.145 148.209 219.046C148.209 219.046 148.209 219.046 148.209 219.078C148.524 219.493 148.74 219.976 148.841 220.487C148.841 220.487 148.841 220.52 148.841 220.531C148.301 222.188 118.098 246.721 116.754 247.223C115.409 247.725 113.881 243.945 114.291 242.055C114.702 240.165 122.067 225.601 122.067 225.601L106.92 205.157L126.22 189.54Z" fill="#EB9481"/>
<path d="M138.434 205.654L141.588 209.817C144.547 213.684 147.069 217.123 148.208 219.024C148.208 219.024 148.208 219.024 148.208 219.057C148.471 219.501 148.683 219.974 148.84 220.466C148.84 220.466 148.84 220.498 148.84 220.509C148.3 222.167 118.098 246.699 116.753 247.201C115.409 247.704 113.881 243.924 114.291 242.034C114.701 240.144 122.067 225.58 122.067 225.58L118.8 221.4L138.434 205.654Z" fill="#EBEBEB"/>
<path d="M116.764 247.202C118.109 246.705 148.295 222.173 148.851 220.509C149.073 219.878 145.757 215.271 141.588 209.823L141.453 209.65L121.803 225.261L122.078 225.585C122.078 225.585 114.723 240.165 114.302 242.039C113.881 243.913 115.425 247.709 116.764 247.202Z" fill="#F96C00"/>
<path d="M116.154 245.754C121.144 241.494 141.658 224.786 146.934 220.952C146.977 220.919 147.004 220.952 146.961 220.984C142.101 225.304 121.457 241.861 116.246 245.824C116.1 245.922 116.052 245.846 116.154 245.754Z" fill="#263238"/>
<path d="M120.491 226.973C122.186 224.97 124.886 223.29 127.575 223.474C127.683 223.474 127.667 223.625 127.575 223.657C125.16 224.596 122.852 225.791 120.69 227.221C120.657 227.234 120.621 227.236 120.587 227.227C120.552 227.217 120.522 227.198 120.5 227.17C120.478 227.142 120.465 227.108 120.463 227.073C120.461 227.038 120.471 227.003 120.491 226.973Z" fill="#263238"/>
<path d="M119.751 229.02C121.452 227.016 124.152 225.337 126.841 225.521C126.943 225.521 126.933 225.672 126.841 225.704C124.425 226.641 122.117 227.834 119.956 229.263C119.923 229.281 119.885 229.287 119.848 229.281C119.811 229.274 119.777 229.255 119.753 229.226C119.729 229.197 119.715 229.161 119.715 229.123C119.714 229.086 119.727 229.049 119.751 229.02Z" fill="#263238"/>
<path d="M119.016 231.066C120.712 229.063 123.412 227.378 126.101 227.562C126.203 227.562 126.193 227.718 126.101 227.751C123.686 228.69 121.379 229.883 119.216 231.309C119.183 231.325 119.146 231.329 119.111 231.321C119.075 231.313 119.044 231.294 119.021 231.266C118.998 231.238 118.985 231.203 118.984 231.167C118.983 231.131 118.994 231.095 119.016 231.066Z" fill="#263238"/>
<path d="M140.449 207.161L119.416 224.786C119.416 224.786 95.2132 193.86 89.7538 178.271C85.8712 167.163 103.794 111.575 103.794 111.575L126.728 110.025C126.728 110.025 111.883 163.561 113.53 168.761C115.56 175.095 140.449 207.161 140.449 207.161Z" fill="#37474F"/>
<path d="M117.077 219.726C120.344 217.026 119.367 217.744 122.672 215.071C124.292 213.759 134.903 205.162 136.625 204.201C136.663 204.201 136.706 204.239 136.679 204.271C135.356 205.729 124.589 214.143 122.953 215.422C119.599 218.036 120.533 217.248 117.153 219.823C117.147 219.828 117.139 219.832 117.132 219.834C117.124 219.836 117.116 219.837 117.108 219.836C117.1 219.835 117.092 219.832 117.085 219.828C117.078 219.824 117.072 219.819 117.067 219.813C117.062 219.806 117.058 219.799 117.056 219.791C117.054 219.783 117.053 219.775 117.054 219.767C117.055 219.759 117.058 219.751 117.062 219.744C117.066 219.737 117.071 219.731 117.077 219.726Z" fill="#263238"/>
<path d="M133.466 203.342C129.546 198.461 125.737 193.482 122.04 188.406C118.368 183.373 114.745 178.265 111.451 172.978C110.657 171.791 110.02 170.506 109.555 169.155C109.126 167.615 109.071 165.996 109.393 164.43C109.906 161.303 110.56 158.193 111.213 155.093C112.531 148.873 114.028 142.691 115.706 136.55C117.38 130.415 119.254 124.335 121.235 118.292C121.478 117.553 121.727 116.807 121.975 116.062C122.013 115.954 121.84 115.911 121.802 116.019C119.578 122.074 117.58 128.205 115.808 134.412C114.037 140.618 112.459 146.837 111.073 153.068C110.381 156.211 109.739 159.368 109.145 162.54C108.777 164.082 108.596 165.663 108.605 167.249C108.713 168.63 109.096 169.976 109.733 171.207C110.416 172.529 111.19 173.801 112.05 175.014C112.921 176.324 113.803 177.631 114.696 178.934C116.496 181.559 118.332 184.156 120.204 186.727C123.93 191.824 127.764 196.873 131.884 201.663C132.386 202.252 132.894 202.835 133.396 203.418C133.412 203.472 133.51 203.396 133.466 203.342Z" fill="#263238"/>
<path d="M126.749 110.025C126.749 110.025 122.429 125.642 118.692 140.805C114.518 132.165 107.401 117.283 105.009 111.473L126.749 110.025Z" fill="#263238"/>
<path d="M154.024 145.622L167.73 127.607C170.926 123.941 173.794 120.776 175.43 119.281C175.439 119.277 175.448 119.277 175.457 119.281C176.073 118.741 176.51 118.39 176.715 118.384C176.715 118.384 176.742 118.384 176.753 118.384C178.492 118.595 208.564 143.273 209.32 144.488C210.076 145.703 206.68 147.96 204.747 147.933C202.813 147.906 187.072 143.613 187.072 143.613L172.492 161.633L154.024 145.622Z" fill="#EB9481"/>
<path d="M176.715 118.363H176.753C178.492 118.579 208.564 143.257 209.32 144.472C210.076 145.687 206.68 147.944 204.752 147.917C202.824 147.89 187.072 143.597 187.072 143.597L184.448 147.21C179.491 143.197 170.451 135.87 164.965 131.263C166.493 129.103 167.73 127.635 167.735 127.629C170.926 123.957 173.788 120.798 175.425 119.308L175.457 119.281C176.073 118.692 176.51 118.368 176.715 118.363Z" fill="#EBEBEB"/>
<path d="M209.321 144.461C208.565 143.246 178.492 118.568 176.753 118.357C176.094 118.266 172.244 122.434 167.735 127.608L167.595 127.775L186.84 143.91L187.105 143.575C187.105 143.575 202.841 147.895 204.779 147.895C206.718 147.895 210.087 145.671 209.321 144.461Z" fill="#F96C00"/>
<path d="M208.025 145.347C202.857 141.313 182.38 124.546 177.574 120.166C177.536 120.129 177.574 120.102 177.601 120.134C182.812 124.022 203.154 140.951 208.095 145.266C208.197 145.352 208.133 145.433 208.025 145.347Z" fill="#263238"/>
<path d="M188.757 144.855C186.457 143.592 184.265 141.28 183.897 138.607C183.897 138.505 184.032 138.489 184.081 138.559C185.482 140.738 187.112 142.762 188.941 144.596C188.967 144.623 188.982 144.659 188.985 144.696C188.987 144.733 188.977 144.77 188.955 144.801C188.934 144.831 188.902 144.854 188.866 144.863C188.83 144.873 188.792 144.87 188.757 144.855Z" fill="#263238"/>
<path d="M190.906 145.168C188.606 143.905 186.419 141.593 186.046 138.92C186.046 138.818 186.176 138.802 186.225 138.877C187.626 141.055 189.255 143.077 191.085 144.909C191.105 144.937 191.115 144.97 191.116 145.005C191.116 145.039 191.106 145.073 191.086 145.101C191.067 145.129 191.039 145.151 191.007 145.163C190.975 145.175 190.94 145.177 190.906 145.168Z" fill="#263238"/>
<path d="M193.056 145.482C190.761 144.218 188.568 141.907 188.196 139.239C188.196 139.131 188.331 139.115 188.379 139.191C189.779 141.369 191.409 143.391 193.239 145.223C193.26 145.251 193.272 145.285 193.272 145.32C193.272 145.355 193.261 145.39 193.241 145.418C193.221 145.447 193.192 145.469 193.159 145.48C193.125 145.491 193.089 145.492 193.056 145.482Z" fill="#263238"/>
<path d="M104.22 111.526V111.553C104.355 112.018 106.461 119.345 108.54 125.626C110.063 130.21 111.586 134.228 112.32 134.606C113.157 135.027 117.213 136.507 118.573 136.966C118.573 136.966 127.3 167.157 134.568 176.98C137.058 180.349 148.398 183.719 153.943 180.079C166.957 171.547 186.23 149.359 186.23 149.359L163.777 130.999L147.879 152.059C143.943 144.752 141.804 130.005 141.804 130.005C141.804 130.005 140.913 115.425 135.567 109.372L104.22 111.526Z" fill="#37474F"/>
<path d="M180.819 152.037C177.439 149.467 178.373 150.25 175.02 147.641C173.4 146.362 162.6 137.965 161.282 136.501C161.278 136.494 161.275 136.485 161.275 136.476C161.276 136.467 161.279 136.459 161.284 136.452C161.289 136.445 161.297 136.44 161.305 136.437C161.313 136.434 161.322 136.434 161.331 136.436C163.053 137.392 173.681 145.978 175.301 147.285C178.6 149.958 177.623 149.229 180.895 151.94C180.901 151.945 180.907 151.951 180.911 151.958C180.915 151.965 180.917 151.973 180.918 151.981C180.919 151.989 180.919 151.997 180.917 152.005C180.914 152.012 180.911 152.02 180.906 152.026C180.901 152.033 180.895 152.038 180.888 152.042C180.881 152.046 180.873 152.048 180.865 152.049C180.857 152.05 180.849 152.05 180.841 152.048C180.833 152.046 180.826 152.042 180.819 152.037Z" fill="#263238"/>
<path d="M134.914 126.43C134.19 126.295 133.429 126.29 132.7 126.225C132.106 126.171 131.517 126.106 130.929 126.02C129.807 125.899 128.726 125.53 127.764 124.94C126.711 124.232 126.144 123.082 125.561 121.975C125.226 121.322 124.886 120.668 124.541 120.02L124.027 119.081C123.798 118.717 123.589 118.34 123.401 117.952C123.401 117.898 123.288 117.952 123.315 117.985C123.434 118.252 123.537 118.526 123.622 118.805C123.741 119.124 123.855 119.448 123.979 119.767C124.195 120.307 124.411 120.901 124.643 121.468C125.005 122.509 125.489 123.504 126.085 124.432C127.268 126.052 129.228 126.619 131.155 126.733C131.695 126.76 132.262 126.765 132.813 126.76C133.512 126.779 134.212 126.735 134.903 126.63C134.93 126.631 134.956 126.622 134.975 126.604C134.995 126.587 135.007 126.562 135.008 126.535C135.01 126.509 135.001 126.483 134.983 126.463C134.965 126.443 134.94 126.432 134.914 126.43Z" fill="#263238"/>
<path d="M110.16 133.704C113.041 134.539 115.843 135.623 118.536 136.944C118.547 136.948 118.557 136.955 118.566 136.963C118.575 136.971 118.582 136.981 118.587 136.992C118.592 137.003 118.595 137.015 118.595 137.027C118.596 137.04 118.594 137.052 118.59 137.063C118.585 137.074 118.579 137.085 118.571 137.094C118.562 137.102 118.552 137.11 118.541 137.115C118.53 137.12 118.519 137.122 118.506 137.123C118.494 137.123 118.482 137.121 118.471 137.117C115.657 136.129 112.795 135.195 110.036 134.05C109.99 134.033 109.953 133.999 109.932 133.955C109.911 133.911 109.909 133.861 109.925 133.815C109.942 133.769 109.976 133.732 110.02 133.711C110.064 133.69 110.114 133.688 110.16 133.704Z" fill="#263238"/>
<path d="M108.087 115.02C108.087 114.923 108.254 114.89 108.26 114.993C108.459 118.233 108.859 121.084 109.34 124.097C109.566 125.501 111.224 133.207 113.627 132.473C114.032 132.349 114.21 131.933 114.237 131.312C114.171 130.507 114.008 129.713 113.751 128.947C113.368 127.327 113.039 125.707 112.79 124.087C112.292 121.041 112.111 117.952 112.25 114.869C112.255 114.852 112.265 114.836 112.279 114.825C112.293 114.815 112.311 114.809 112.328 114.809C112.346 114.809 112.364 114.815 112.378 114.825C112.392 114.836 112.402 114.852 112.407 114.869C112.624 119.125 113.166 123.358 114.027 127.532C114.47 129.535 115.695 132.516 113.6 132.97C111.505 133.423 109.723 128.423 109.367 127.03C108.423 123.098 107.993 119.062 108.087 115.02Z" fill="#263238"/>
<path d="M113.573 132.7C113.826 133.211 114.046 133.737 114.232 134.276C114.417 134.689 114.525 135.132 114.551 135.583C114.548 135.601 114.539 135.618 114.527 135.631C114.515 135.645 114.5 135.654 114.482 135.66C114.465 135.665 114.446 135.665 114.429 135.66C114.411 135.655 114.396 135.645 114.383 135.632C114.101 135.251 113.881 134.828 113.73 134.379C113.508 133.893 113.276 133.412 113.071 132.921C113.049 132.856 113.052 132.784 113.079 132.721C113.107 132.658 113.157 132.607 113.22 132.58C113.284 132.552 113.355 132.549 113.42 132.571C113.486 132.593 113.54 132.639 113.573 132.7Z" fill="#263238"/>
<path d="M161.406 138.899C157.957 143.86 154.298 148.68 150.428 153.36C149.38 154.613 148.315 155.851 147.231 157.075C143.716 152.215 142.004 146.405 140.638 140.616C140.287 139.131 139.957 137.641 139.617 136.15C139.196 134.567 138.855 132.963 138.596 131.344C138.386 129.665 138.478 127.953 138.326 126.263C138.171 124.628 137.914 123.005 137.554 121.403C136.734 117.772 135.495 114.25 133.861 110.905C133.861 110.862 133.763 110.905 133.78 110.938C135.105 114.019 136.188 117.198 137.02 120.447C137.421 122.099 137.72 123.775 137.916 125.464C138.11 127.165 138.089 128.866 138.202 130.572C138.377 132.19 138.681 133.792 139.109 135.362C139.45 136.847 139.779 138.337 140.119 139.822C140.759 142.757 141.56 145.654 142.517 148.5C143.571 151.679 145.11 154.675 147.08 157.383C147.095 157.403 147.114 157.42 147.137 157.431C147.159 157.442 147.184 157.448 147.209 157.448C147.235 157.448 147.259 157.442 147.282 157.431C147.304 157.42 147.324 157.403 147.339 157.383C151.303 152.831 155.088 148.117 158.593 143.181C159.593 141.777 160.574 140.359 161.536 138.926C161.584 138.894 161.46 138.823 161.406 138.899Z" fill="#263238"/>
<path d="M123.32 74.8873C119.081 77.9437 99.2738 85.9951 92.054 82.3555C84.6992 78.6403 77.4146 58.6873 75.9674 56.9755C71.9984 52.2343 89.0678 45.5167 90.6284 48.8053C93.2366 54.2971 98.777 68.9635 101.32 69.2821C106.672 69.9517 111.58 69.2551 119.95 69.1525C125.82 69.0715 127.98 71.5123 123.32 74.8873Z" fill="#EB9481"/>
<path d="M92.421 52.4287C92.421 52.4287 99.3654 68.0887 100.931 68.5207C103.54 69.2659 117.671 68.7745 122.747 68.8609C127.823 68.9473 132.71 73.4401 120.69 77.9275C108.67 82.4149 98.55 84.7531 92.0106 83.2843C87.9498 82.3663 76.7988 64.7623 76.7988 64.7623L92.421 52.4287Z" fill="#F96C00"/>
<path opacity="0.1" d="M92.421 52.4287C92.421 52.4287 99.3654 68.0887 100.931 68.5207C103.54 69.2659 117.671 68.7745 122.747 68.8609C127.823 68.9473 132.71 73.4401 120.69 77.9275C108.67 82.4149 98.55 84.7531 92.0106 83.2843C87.9498 82.3663 76.7988 64.7623 76.7988 64.7623L92.421 52.4287Z" fill="black"/>
<path d="M79.823 67.6299C85.3904 62.3811 92.0108 57.7587 93.107 56.8677C93.161 56.8245 93.2204 56.9163 93.1664 56.9595C92.0432 57.7749 85.034 63.9255 79.8824 67.7595C79.823 67.7757 79.769 67.6785 79.823 67.6299Z" fill="#263238"/>
<path opacity="0.1" d="M128.159 72.4409C127.943 74.0285 125.918 75.9779 120.69 77.9273C108.675 82.4201 98.5503 84.7529 92.0163 83.2841C91.2063 83.1005 90.1101 82.2527 88.8789 81.0053C98.1399 79.0073 120.469 74.2013 128.159 72.4409Z" fill="black"/>
<path d="M77.0638 58.7575C78.7378 60.0049 90.5638 53.0443 90.8338 50.9221C90.8597 50.1962 90.7908 49.4701 90.6286 48.7621C90.6286 48.7621 91.4602 44.0641 93.5446 40.3975C95.2888 37.3195 98.2318 32.9455 96.6118 31.9465C94.252 30.4777 89.8672 35.5645 87.5236 38.6317C86.692 36.7039 85.801 35.1271 84.937 34.3927C82.0804 31.9897 69.6604 43.3621 70.3732 47.0989C71.0698 50.7061 75.3898 57.5155 77.0638 58.7575Z" fill="#EB9481"/>
<path d="M88.5926 39.0313C87.923 40.8565 86.1518 39.0313 86.1518 39.0313C86.1518 39.0313 88.0634 42.2713 86.6432 43.8913C85.223 45.5113 83.2142 43.1569 83.063 42.9949C83.1602 43.1677 84.8396 46.2025 83.2466 47.6821C81.6536 49.1617 79.9148 46.5589 79.8068 46.3861C79.85 46.5805 80.3738 49.1401 78.905 49.9879C76.3832 51.4405 74.8712 44.9281 72.8246 43.7671C72.8246 43.7671 70.4594 47.0071 70.3676 47.0989C70.3676 47.0989 68.8016 40.9321 70.5242 38.2537C70.7678 37.8593 71.139 37.5602 71.5762 37.4059C72.0133 37.2517 72.4901 37.2517 72.9272 37.4059C72.9272 37.4059 72.2036 35.4727 73.4186 34.2739C74.045 33.6583 75.5786 34.1119 75.5786 34.1119C75.5786 34.1119 75.0386 32.5405 76.2104 31.5361C77.1284 30.7315 78.5324 31.3147 78.5324 31.3147C78.5324 31.3147 78.7376 29.5759 79.9418 29.0629C82.3718 28.0153 90.0236 35.1001 88.5926 39.0313Z" fill="#EB9481"/>
<path d="M78.7808 31.374C78.7808 31.374 78.7808 31.3092 78.8078 31.3254C82.0234 33.1034 84.6224 35.8173 86.2598 39.1068C86.3084 39.2148 86.1572 39.339 86.0816 39.2364C84.0416 36.2758 81.5823 33.6273 78.7808 31.374Z" fill="#263238"/>
<path d="M75.5678 34.0579C75.5354 34.0579 75.5679 33.9823 75.6111 34.0039C78.7863 35.7967 81.9237 39.0799 83.2143 43.0003C83.2575 43.1353 83.1603 43.2973 83.1009 43.1461C82.0425 40.6081 78.2247 36.1369 75.5678 34.0579Z" fill="#263238"/>
<path d="M79.8014 46.6887C78.419 42.9789 75.989 40.0845 73.0622 37.4709C73.0244 37.4385 73.0621 37.3898 73.1161 37.406C74.8927 38.297 76.5883 40.1546 77.7817 41.7261C78.9167 43.1546 79.661 44.8535 79.9417 46.6563C79.9201 46.7157 79.8338 46.7697 79.8014 46.6887Z" fill="#263238"/>
<path d="M86.2167 39.0312C86.2761 39.1609 86.0277 39.1069 86.0817 39.2365C86.3139 39.7765 87.4209 43.1569 86.3895 43.8913C85.5579 44.4799 84.1917 43.7725 83.7759 43.2919L82.7229 42.1201L83.2953 43.6159C83.5533 44.2767 83.7011 44.9754 83.7327 45.6841C83.7673 46.0113 83.7322 46.3421 83.6298 46.6548C83.5274 46.9675 83.3601 47.255 83.1387 47.4985C82.9301 47.7219 82.651 47.8669 82.3482 47.9092C82.0455 47.9514 81.7374 47.8884 81.4755 47.7307C80.8947 47.368 80.4168 46.8623 80.0877 46.2619L79.1157 44.6419L79.4991 46.4833C79.6054 46.9962 79.6471 47.5205 79.6233 48.0439C79.6171 48.5411 79.465 49.0255 79.1859 49.4371C79.0525 49.6166 78.8716 49.7552 78.6636 49.8372C78.4556 49.9193 78.2287 49.9416 78.0087 49.9015C77.53 49.7371 77.1071 49.4414 76.7883 49.0483C76.0917 48.198 75.4616 47.2953 74.9037 46.3483C74.6013 45.8839 74.3043 45.4141 73.9803 44.9605C73.6829 44.4876 73.2891 44.0828 72.8247 43.7725C73.2456 44.1272 73.594 44.5599 73.8507 45.0469C74.1369 45.5167 74.3907 46.0027 74.6607 46.4941C75.1654 47.4935 75.7639 48.4428 76.4481 49.3291C76.8092 49.8212 77.3068 50.1967 77.8791 50.4091C78.2011 50.4877 78.5391 50.4709 78.8518 50.3606C79.1644 50.2503 79.4381 50.0514 79.6395 49.7881C80.0062 49.285 80.2115 48.6824 80.2281 48.0601C80.2659 47.4762 80.2278 46.8899 80.1147 46.3159L79.5315 46.5373C79.9077 47.2531 80.4666 47.8567 81.1515 48.2869C81.5372 48.5188 81.9924 48.6068 82.4367 48.5353C82.8687 48.4528 83.2658 48.242 83.5761 47.9305C83.8585 47.624 84.0721 47.2606 84.2025 46.8648C84.3329 46.4689 84.3771 46.0498 84.3321 45.6355C84.2813 44.8544 84.0987 44.0876 83.7921 43.3675L83.3115 43.6591C83.8515 44.2477 85.3041 45.2035 86.7027 44.4583C88.4145 43.2001 86.5947 39.6577 86.2167 39.0312Z" fill="#263238"/>
<path d="M86.1519 39.0205C86.4826 39.2539 86.8467 39.4359 87.2319 39.5605C87.384 39.6132 87.5475 39.624 87.7053 39.5917C87.863 39.5594 88.0091 39.4852 88.1283 39.3769C88.3574 39.1058 88.5019 38.7735 88.5441 38.4211C88.6089 38.0323 88.6629 37.6219 88.6953 37.2007C88.875 37.5957 88.9671 38.0249 88.9653 38.4589C88.9794 38.6971 88.9461 38.9357 88.8673 39.161C88.7885 39.3862 88.6658 39.5936 88.5063 39.7711C88.311 39.9494 88.0662 40.0642 87.8043 40.1005C87.5549 40.119 87.3051 40.0705 87.0807 39.9601C86.6787 39.754 86.3533 39.4248 86.1519 39.0205Z" fill="#263238"/>
<path d="M138.424 117.72C138.311 117.807 103.475 113.94 103.189 113.492C102.789 112.833 113.168 76.7235 121.139 69.3093C123.131 67.4571 128.645 68.2833 130.859 70.6755C141.853 82.5501 138.818 117.413 138.424 117.72Z" fill="#EBEBEB"/>
<path d="M120.836 69.3198L107.46 118.082L100.619 113.173C100.619 113.173 111.78 81.5832 115.02 76.5558C118.26 71.5284 120.836 69.3198 120.836 69.3198Z" fill="#F96C00"/>
<path opacity="0.1" d="M120.836 69.3198L107.46 118.082L100.619 113.173C100.619 113.173 111.78 81.5832 115.02 76.5558C118.26 71.5284 120.836 69.3198 120.836 69.3198Z" fill="black"/>
<path d="M128.714 68.9741C128.714 68.9741 128.174 87.7337 128.174 92.1401C128.174 96.5465 127.154 120.609 127.154 120.609L143.003 117.72C143.003 117.72 140.108 94.3865 139.104 88.9973C138.1 83.6081 133.855 70.5617 128.714 68.9741Z" fill="#F96C00"/>
<path opacity="0.1" d="M128.714 68.9741C128.714 68.9741 128.174 87.7337 128.174 92.1401C128.174 96.5465 127.154 120.609 127.154 120.609L143.003 117.72C143.003 117.72 140.108 94.3865 139.104 88.9973C138.1 83.6081 133.855 70.5617 128.714 68.9741Z" fill="black"/>
<path d="M132.473 79.5207C141.685 88.9545 153.895 99.0471 160.683 97.6054C166.822 96.2985 175.646 89.1004 185.274 81.3406C187.186 79.8016 174.426 65.5564 172.552 67.4032C168.864 71.0374 161.293 80.3146 158.469 81.3406C157.259 81.778 143.716 75.0118 134.838 71.6206C124.06 67.5004 128.801 75.7623 132.473 79.5207Z" fill="#EB9481"/>
<path d="M193.731 74.7794C191.203 77.8196 182.434 83.522 180.231 83.8298C178.027 84.1376 170.435 71.4584 171.277 69.3146C172.12 67.1708 181.413 57.5858 185.366 56.7704C189.319 55.955 196.35 71.6258 193.731 74.7794Z" fill="#EB9481"/>
<path d="M179.518 59.2437C179.21 61.3119 181.829 60.4965 181.829 60.4965C181.829 60.4965 178.341 62.5809 178.848 64.8165C179.34 66.9765 182.466 65.8965 182.693 65.8155C182.51 65.9289 179.356 67.9323 180.101 70.1355C180.873 72.4413 183.822 70.7997 184.016 70.6755C183.876 70.8375 182.061 72.9867 183.006 74.5419C184.626 77.2419 189.427 71.8419 191.965 71.8095C191.965 71.8095 193.504 74.8389 193.547 74.9577C193.547 74.9577 197.224 71.2101 196.981 67.7919C196.96 67.2924 196.765 66.8158 196.432 66.4436C196.098 66.0714 195.645 65.8265 195.151 65.7507C195.151 65.7507 196.836 64.2981 196.306 62.5107C196.031 61.6035 194.341 61.2363 194.341 61.2363C194.341 61.2363 195.637 60.0159 195.07 58.4769C194.622 57.2457 192.996 57.0675 192.996 57.0675C192.996 57.0675 193.698 55.3179 192.829 54.2109C191.085 52.0563 180.188 54.8049 179.518 59.2437Z" fill="#EB9481"/>
<path d="M192.742 57.0833C192.748 57.0808 192.753 57.0767 192.756 57.0714C192.76 57.0661 192.762 57.0599 192.762 57.0536C192.762 57.0473 192.76 57.0411 192.756 57.0359C192.753 57.0306 192.748 57.0264 192.742 57.0239C188.788 57.0409 184.932 58.2614 181.688 60.5231C181.586 60.5987 181.661 60.7931 181.791 60.7337C185.245 58.9917 188.934 57.762 192.742 57.0833Z" fill="#263238"/>
<path d="M194.4 61.2792C194.444 61.2792 194.433 61.2036 194.4 61.2036C190.48 61.2576 185.82 62.7372 182.575 65.772C182.467 65.8746 182.472 66.0798 182.607 65.9718C184.891 64.1142 190.804 61.8678 194.4 61.2792Z" fill="#263238"/>
<path d="M183.86 71.0209C187.1 68.2291 190.88 66.7549 194.989 65.7991C195.043 65.7991 195.021 65.7127 194.989 65.7073C192.829 65.6263 190.291 66.5119 188.358 67.3651C186.547 68.1244 184.968 69.346 183.779 70.9075C183.714 70.9669 183.789 71.0803 183.86 71.0209Z" fill="#263238"/>
<path d="M181.829 60.48C181.195 60.9382 180.607 61.4573 180.074 62.0298C179.53 62.5599 179.137 63.2253 178.935 63.9576C178.862 64.2985 178.918 64.6542 179.091 64.9566C179.269 65.2608 179.522 65.5138 179.826 65.691C180.144 65.8412 180.489 65.9235 180.841 65.9328C181.192 65.9421 181.542 65.8781 181.867 65.745L183.487 65.151L182.18 66.2688C181.594 66.7576 181.092 67.3396 180.695 67.9914C180.495 68.2839 180.358 68.6153 180.293 68.9642C180.229 69.3131 180.239 69.6716 180.323 70.0164C180.405 70.3343 180.593 70.6146 180.856 70.811C181.119 71.0074 181.442 71.1081 181.77 71.0964C182.505 71.0517 183.216 70.8213 183.838 70.4268L185.593 69.3954L184.281 70.9344C183.914 71.3648 183.604 71.8402 183.357 72.3492C183.107 72.8214 183.001 73.3562 183.05 73.8882C183.083 74.1263 183.182 74.3503 183.336 74.5353C183.489 74.7203 183.691 74.859 183.919 74.9358C184.456 75.0313 185.008 74.9714 185.512 74.763C186.608 74.3279 187.667 73.8079 188.682 73.2078C189.222 72.9216 189.729 72.6354 190.269 72.3708C190.793 72.0715 191.375 71.8874 191.976 71.8308C191.398 71.948 190.848 72.1753 190.356 72.5004C189.816 72.8028 189.346 73.1268 188.844 73.4508C187.851 74.1344 186.795 74.722 185.69 75.2058C185.097 75.4803 184.436 75.5742 183.789 75.4758C183.444 75.3843 183.133 75.1941 182.894 74.9284C182.655 74.6627 182.499 74.3331 182.445 73.98C182.363 73.3207 182.478 72.6521 182.774 72.0576C183.041 71.4884 183.379 70.955 183.779 70.47L184.221 70.983C183.493 71.4624 182.651 71.7434 181.781 71.7984C181.298 71.8131 180.825 71.6605 180.441 71.3664C180.074 71.0664 179.806 70.6614 179.675 70.2054C179.569 69.7697 179.556 69.3165 179.637 68.8755C179.718 68.4345 179.891 68.0155 180.144 67.6458C180.594 66.9354 181.156 66.3026 181.808 65.772L182.115 66.312C181.706 66.4645 181.268 66.5257 180.832 66.4912C180.397 66.4567 179.974 66.3273 179.594 66.1122C179.228 65.8753 178.931 65.5478 178.73 65.1618C178.529 64.7646 178.479 64.3078 178.589 63.8766C178.846 63.099 179.316 62.4087 179.945 61.884C180.518 61.3466 181.15 60.8756 181.829 60.48Z" fill="#263238"/>
<path d="M172.552 67.4029C172.552 67.4029 177.32 51.3163 182.693 56.2627C184.313 57.7315 189.092 65.6695 187.521 66.6685C185.485 67.9537 182.86 65.0107 181.505 62.8885C181.505 62.8885 180.652 68.5855 176.51 69.1795C175.751 69.2758 174.979 69.1609 174.281 68.8475C173.583 68.5341 172.984 68.0342 172.552 67.4029Z" fill="#EB9481"/>
<path d="M182.223 55.8794C182.917 56.3813 183.533 56.9816 184.054 57.6614C184.592 58.3291 185.085 59.0327 185.528 59.7674C186.441 61.2226 187.225 62.7548 187.871 64.3466C188.041 64.7702 188.15 65.2156 188.195 65.6696C188.219 65.931 188.185 66.1943 188.098 66.4418C188.049 66.5784 187.978 66.706 187.888 66.8198C187.796 66.9291 187.689 67.0238 187.569 67.1006C187.129 67.368 186.608 67.4695 186.1 67.3868C185.637 67.301 185.191 67.1366 184.783 66.9008C184.022 66.4401 183.346 65.8519 182.785 65.162C182.223 64.5029 181.713 63.8025 181.256 63.0668L181.796 62.9426C181.676 63.5898 181.495 64.2243 181.256 64.838C181.025 65.4471 180.73 66.0299 180.376 66.5768C180.02 67.1235 179.585 67.6147 179.086 68.0348C178.591 68.4524 178.021 68.7714 177.406 68.9744C177.975 68.701 178.495 68.3362 178.945 67.8944C179.381 67.4458 179.755 66.9409 180.058 66.3932C180.361 65.848 180.61 65.2747 180.803 64.6814C180.994 64.0938 181.131 63.4902 181.213 62.8778L181.305 62.1218L181.753 62.7536C182.222 63.4425 182.734 64.1008 183.287 64.7246C183.816 65.3426 184.439 65.873 185.134 66.296C185.798 66.6686 186.629 66.8684 187.18 66.512C187.693 66.242 187.493 65.3294 187.234 64.5788C186.951 63.7917 186.627 63.0202 186.262 62.2676C185.911 61.5008 185.544 60.7394 185.144 59.9996C184.313 58.5308 183.476 57.0296 182.223 55.8794Z" fill="#263238"/>
<path d="M170.678 69.2227C170.678 69.2227 159.511 80.6113 157.88 80.5087C155.18 80.3359 138.77 72.5545 133.958 70.9345C129.147 69.3145 123.99 70.2703 131.593 79.2559C140.174 89.3917 149.78 98.4205 159.711 98.4313C165.062 98.4313 181.727 86.7997 181.727 86.7997L170.678 69.2227Z" fill="#F96C00"/>
<path opacity="0.1" d="M170.678 69.2227C170.678 69.2227 159.511 80.6113 157.88 80.5087C155.18 80.3359 138.77 72.5545 133.958 70.9345C129.147 69.3145 123.99 70.2703 131.593 79.2559C140.174 89.3917 149.78 98.4205 159.711 98.4313C165.062 98.4313 181.727 86.7997 181.727 86.7997L170.678 69.2227Z" fill="black"/>
<path d="M177.46 87.7666C173.972 80.9518 169.285 74.3854 168.545 73.1866C168.513 73.1272 168.426 73.1866 168.464 73.2514C169.247 74.3962 173.794 82.5394 177.369 87.8314C177.412 87.9016 177.498 87.8314 177.46 87.7666Z" fill="#263238"/>
<path d="M138.716 86.9723C138.462 86.7054 138.224 86.4241 138.003 86.1299C137.738 85.8437 137.463 85.5575 137.209 85.2713C136.669 84.7313 136.178 84.1913 135.665 83.6135C134.644 82.5065 133.559 81.4535 132.5 80.3735C132.5 80.3735 132.462 80.3735 132.5 80.3735C133.467 81.5399 134.417 82.7117 135.465 83.8079L135.535 83.8835L134.919 83.4677C134.493 83.1815 134.066 82.8953 133.645 82.6037C133.645 82.6037 133.591 82.6307 133.613 82.6469C134.007 82.9709 134.412 83.2787 134.838 83.5649C135.054 83.7107 135.27 83.8511 135.497 83.9861L135.81 84.1697L136.993 85.3955C137.263 85.6709 137.533 85.9355 137.814 86.2163C138.095 86.4971 138.429 86.7023 138.678 86.9993C138.689 87.0749 138.78 87.0101 138.716 86.9723Z" fill="#263238"/>
<path d="M121.997 75.9294C123.649 76.329 127.721 73.8882 129.589 71.5284C129.714 71.3664 129.757 69.4386 129.924 67.1004C130.027 65.6802 130.178 64.1034 130.421 62.6724L121.09 63.3366C121.298 65.2096 121.276 67.101 121.025 68.9688C120.99 69.1663 120.936 69.3598 120.863 69.5466C120.863 69.5736 120.863 69.606 120.863 69.6438C120.463 70.74 119.41 75.303 121.997 75.9294Z" fill="#EB9481"/>
<path d="M120.868 69.5468C120.853 69.5774 120.842 69.6101 120.836 69.644C121.134 69.7372 121.439 69.8059 121.749 69.8492C126.868 70.5944 129.163 64.5896 129.746 62.7212L121.106 63.3314C121.317 65.2076 121.299 67.1026 121.052 68.9744C121.006 69.1698 120.945 69.3613 120.868 69.5468Z" fill="#263238"/>
<path d="M134.563 51.9428C134.698 55.307 130.686 63.8876 127.942 65.3132C123.963 67.3814 118.622 66.2798 117.142 61.7654C115.728 57.386 121.149 46.2998 124.108 45.128C128.482 43.3946 134.363 46.9802 134.563 51.9428Z" fill="#EB9481"/>
<path d="M127.035 53.7732C126.818 53.5939 126.611 53.4028 126.414 53.2008C126.16 53.0342 125.97 52.7868 125.874 52.4988C125.864 52.4027 125.885 52.3058 125.935 52.223C125.984 52.1401 126.06 52.0758 126.15 52.0398C126.337 51.997 126.532 52.005 126.715 52.0629C126.899 52.1208 127.063 52.2265 127.192 52.3692C127.498 52.6161 127.7 52.9687 127.759 53.3574C127.765 53.4442 127.746 53.5308 127.705 53.6075C127.664 53.6842 127.602 53.7479 127.527 53.7912C127.451 53.8345 127.365 53.8558 127.278 53.8526C127.192 53.8495 127.107 53.8219 127.035 53.7732Z" fill="#A6A6A6"/>
<path d="M121.268 51.3001C121.549 51.3703 121.808 51.3865 122.105 51.4297C122.392 51.5139 122.699 51.5026 122.98 51.3973C123.061 51.3461 123.123 51.27 123.157 51.1804C123.191 51.0908 123.195 50.9926 123.169 50.9005C123.085 50.7265 122.956 50.5781 122.796 50.4708C122.635 50.3635 122.449 50.3011 122.256 50.2903C121.872 50.2027 121.468 50.2645 121.128 50.4631C121.053 50.5127 120.994 50.5829 120.958 50.6653C120.922 50.7476 120.911 50.8386 120.926 50.9272C120.941 51.0158 120.981 51.0982 121.042 51.1644C121.102 51.2305 121.181 51.2777 121.268 51.3001Z" fill="#A6A6A6"/>
<path d="M123.693 60.4043C123.502 60.5252 123.274 60.5731 123.05 60.5393C122.834 60.4415 122.641 60.2999 122.483 60.1235C122.483 60.1235 122.445 60.1235 122.445 60.1235C122.481 60.2745 122.556 60.4132 122.664 60.5253C122.771 60.6373 122.906 60.7186 123.056 60.7607C123.188 60.7825 123.324 60.7637 123.445 60.7069C123.567 60.65 123.668 60.5577 123.736 60.4421C123.763 60.4259 123.72 60.3935 123.693 60.4043Z" fill="#263238"/>
<path d="M121.749 58.3203C121.857 58.7484 122.075 59.1411 122.38 59.4597C122.553 59.6291 122.774 59.7404 123.012 59.7783C123.552 59.8593 123.73 59.4327 123.801 59.0277C123.836 58.8119 123.847 58.5926 123.833 58.3743C123.15 58.5783 122.42 58.5594 121.749 58.3203Z" fill="#263238"/>
<path d="M122.38 59.4544C122.553 59.6237 122.774 59.7351 123.012 59.773C123.552 59.854 123.73 59.4274 123.801 59.0224C123.55 58.9254 123.273 58.9152 123.016 58.9935C122.759 59.0718 122.535 59.2341 122.38 59.4544Z" fill="#FF9BBC"/>
<path d="M126.36 55.2045C126.393 55.0349 126.38 54.8597 126.322 54.6969C126.285 54.6095 126.23 54.5306 126.161 54.4648C126.093 54.3989 126.012 54.3475 125.923 54.3135C125.832 54.2861 125.737 54.2792 125.644 54.2932C125.55 54.3072 125.461 54.3418 125.383 54.3945C125.245 54.4913 125.133 54.6189 125.053 54.7671C125.008 54.8582 124.969 54.952 124.934 55.0479C124.861 55.2443 124.836 55.4552 124.859 55.6635C124.902 55.5175 124.96 55.3764 125.032 55.2423C125.098 55.1224 125.172 55.0069 125.253 54.8967C125.42 54.6753 125.642 54.5187 125.842 54.6051C125.947 54.6561 126.033 54.7401 126.087 54.8443C126.14 54.9485 126.159 55.0674 126.139 55.1829C126.125 55.4742 126.083 55.7635 126.014 56.0469C126.192 55.7958 126.31 55.5078 126.36 55.2045Z" fill="#263238"/>
<path d="M120.669 52.5962C120.771 52.4582 120.906 52.3486 121.063 52.2776C121.148 52.2417 121.24 52.2231 121.333 52.2231C121.425 52.2231 121.517 52.2417 121.603 52.2776C121.689 52.3228 121.763 52.3872 121.82 52.4659C121.878 52.5445 121.916 52.6353 121.932 52.7312C121.955 52.8983 121.938 53.0685 121.884 53.228C121.854 53.3246 121.816 53.4186 121.77 53.5088C121.677 53.6972 121.542 53.8616 121.376 53.9894C121.454 53.8587 121.515 53.7191 121.56 53.5736C121.602 53.4431 121.635 53.3095 121.657 53.174C121.7 52.8986 121.657 52.634 121.462 52.5476C121.352 52.5056 121.231 52.5009 121.118 52.534C121.005 52.5672 120.906 52.6364 120.836 52.7312C120.633 52.943 120.452 53.1746 120.296 53.4224C120.352 53.1212 120.48 52.838 120.669 52.5962Z" fill="#263238"/>
<g opacity="0.2">
<path opacity="0.2" d="M126.036 50.5282C125.695 50.4496 125.36 50.3486 125.032 50.2258C124.703 50.0854 124.406 49.8856 124.076 49.756C123.438 49.5407 122.768 49.4384 122.094 49.4536C122.035 49.4536 122.03 49.4914 122.094 49.4914C122.803 49.5019 123.501 49.664 124.141 49.9666C124.648 50.2561 125.193 50.4725 125.761 50.6092C127.068 50.8193 128.275 51.4396 129.206 52.3804C128.358 51.4611 127.254 50.8161 126.036 50.5282Z" fill="black"/>
<path opacity="0.2" d="M126.387 49.6804C126.064 49.6064 125.747 49.5108 125.437 49.3942C125.124 49.2592 124.843 49.0702 124.53 48.946C123.925 48.7413 123.289 48.6444 122.65 48.6598C122.596 48.6598 122.591 48.6922 122.65 48.6976C123.321 48.7062 123.982 48.859 124.589 49.1458C125.067 49.4203 125.582 49.6258 126.117 49.756C127.359 49.9473 128.509 50.5277 129.4 51.4138C128.591 50.5484 127.542 49.9448 126.387 49.6804Z" fill="black"/>
</g>
<path d="M121.441 47.4607C123.817 50.7547 129.298 49.0375 129.298 49.0375C129.32 49.822 129.595 50.5784 130.081 51.1943C130.567 51.8101 131.24 52.2525 131.998 52.4557C131.998 52.4557 130.702 58.0069 132.111 58.4983C134.271 59.2597 137.511 52.2343 137.371 50.5603C137.23 48.8863 135.524 47.8603 135.524 47.8603C135.635 46.9236 135.386 45.9795 134.827 45.2197C133.747 43.5997 128.175 43.2649 128.175 43.2649C128.127 42.4871 127.9 41.731 127.51 41.0563C127.418 40.8899 127.292 40.7442 127.142 40.6278C126.991 40.5115 126.818 40.427 126.634 40.3795C126.449 40.3321 126.257 40.3226 126.069 40.3517C125.881 40.3807 125.701 40.4478 125.539 40.5487C125.667 41.0377 125.68 41.5496 125.577 42.0445C125.269 43.6969 123.995 43.2325 124.497 41.8231C124.671 41.2885 125.034 40.8355 125.518 40.5487C125.221 39.3985 124.303 38.7235 123.498 38.9989C122.04 39.5011 119.464 44.7283 121.441 47.4607Z" fill="#555555"/>
<path d="M124.362 57.8451C123.785 57.4749 123.377 56.8908 123.229 56.2206C123.082 55.5505 123.205 54.8491 123.574 54.2703C123.835 53.8625 124.204 53.536 124.641 53.3279C125.078 53.1199 125.565 53.0385 126.046 53.0932C126.527 53.1479 126.983 53.3364 127.362 53.6373C127.741 53.9382 128.028 54.3393 128.19 54.7952C128.353 55.2511 128.384 55.7434 128.28 56.2162C128.177 56.689 127.943 57.1232 127.605 57.4696C127.267 57.816 126.838 58.0607 126.368 58.1757C125.898 58.2908 125.405 58.2716 124.946 58.1205C124.74 58.0553 124.544 57.9627 124.362 57.8451ZM123.866 54.4539C123.627 54.8272 123.504 55.2631 123.513 55.7063C123.521 56.1495 123.661 56.5802 123.915 56.9438C124.169 57.3074 124.524 57.5876 124.937 57.749C125.35 57.9104 125.802 57.9458 126.234 57.8506C126.667 57.7554 127.062 57.5339 127.369 57.2142C127.677 56.8945 127.882 56.4908 127.96 56.0544C128.037 55.618 127.984 55.1683 127.806 54.7623C127.628 54.3563 127.333 54.0122 126.96 53.7735C126.804 53.6727 126.635 53.5928 126.458 53.5359C125.985 53.3801 125.474 53.3858 125.005 53.5519C124.536 53.7181 124.135 54.0353 123.866 54.4539Z" fill="#455A64"/>
<path d="M119.416 55.5229C118.455 55.0747 118.158 53.6545 118.763 52.3639C119.025 51.7746 119.465 51.2819 120.021 50.9545C120.252 50.8024 120.518 50.712 120.794 50.6918C121.07 50.6717 121.346 50.7225 121.597 50.8394C121.847 50.9563 122.064 51.1355 122.226 51.3598C122.387 51.5842 122.489 51.8462 122.521 52.1209C122.632 52.756 122.539 53.4099 122.256 53.9893C121.684 55.2151 120.512 55.8955 119.556 55.6093L119.416 55.5229ZM120.188 51.2569C119.695 51.5477 119.306 51.9859 119.076 52.5097C118.536 53.6275 118.773 54.8425 119.562 55.2097C120.35 55.5769 121.419 54.9667 121.943 53.8435C122.193 53.3291 122.276 52.7496 122.181 52.1857C122.152 51.9663 122.07 51.7572 121.943 51.5758C121.816 51.3944 121.648 51.2462 121.452 51.1435L121.333 51.0949C121.141 51.0408 120.941 51.0273 120.743 51.0552C120.546 51.083 120.357 51.1518 120.188 51.2569Z" fill="#455A64"/>
<path d="M123.525 54.578L123.838 54.4322C123.622 53.9678 122.985 53.1848 122.126 53.5304L122.256 53.849C123.028 53.5358 123.503 54.5402 123.525 54.578Z" fill="#455A64"/>
<path d="M133.694 60.0481H134.039C134.039 59.8915 133.958 58.4659 133.31 58.0231C132.662 57.5803 128.315 56.0521 128.131 55.9819L128.013 56.3113C129.271 56.7595 132.646 57.9907 133.116 58.3093C133.586 58.6279 133.677 59.6593 133.694 60.0481Z" fill="#455A64"/>
<path d="M130.713 58.7791C130.713 58.7791 133.558 56.4571 134.671 57.5533C135.783 58.6495 133.051 62.4133 131.355 62.5537C131.137 62.5878 130.915 62.5771 130.701 62.5222C130.487 62.4673 130.287 62.3694 130.113 62.2344C129.938 62.0994 129.793 61.9302 129.687 61.7372C129.58 61.5442 129.514 61.3314 129.492 61.1119L130.713 58.7791Z" fill="#EB9481"/>
<path d="M133.861 58.6115C133.888 58.6115 133.861 58.6547 133.861 58.6547C132.651 58.7843 131.798 59.6267 131.101 60.5555C131.195 60.4647 131.307 60.3952 131.43 60.352C131.553 60.3088 131.684 60.2928 131.814 60.3051C131.944 60.3174 132.07 60.3578 132.183 60.4234C132.295 60.489 132.393 60.5783 132.468 60.6851C132.471 60.6916 132.472 60.699 132.472 60.7062C132.471 60.7135 132.468 60.7205 132.464 60.7262C132.459 60.7319 132.453 60.7362 132.446 60.7385C132.439 60.7408 132.431 60.741 132.424 60.7391C132.251 60.6236 132.047 60.5647 131.839 60.5705C131.631 60.5763 131.43 60.6465 131.263 60.7715C130.989 60.9821 130.737 61.221 130.513 61.4843C130.432 61.5707 130.27 61.4843 130.34 61.3655C130.723 59.9399 132.343 58.3199 133.861 58.6115Z" fill="#263238"/>
<path d="M120.787 69.3741L122.785 74.9631L129.892 68.2617L131.744 70.5729C131.744 70.5729 124.627 81.3729 124.605 80.8761L122.521 76.0161L119.119 79.1913L119.702 70.9131L120.787 69.3741Z" fill="#EBEBEB"/>
<path d="M119.173 75.1088C119.319 73.748 119.421 72.371 119.626 71.0156C119.626 70.967 119.713 70.9454 119.724 71.0156C119.945 72.344 119.373 77.555 119.329 78.8078C119.47 78.6674 122.478 76.0214 122.505 76.0646C122.964 76.8368 124.497 80.3846 124.6 80.6762C125.723 78.959 130 72.7274 131.344 71.1128C131.348 71.1079 131.352 71.1036 131.357 71.1002C131.361 71.0968 131.367 71.0945 131.373 71.0932C131.378 71.092 131.384 71.0918 131.39 71.0929C131.396 71.0939 131.401 71.0961 131.406 71.0993C131.411 71.1025 131.416 71.1066 131.419 71.1115C131.422 71.1163 131.425 71.1218 131.426 71.1276C131.427 71.1333 131.427 71.1393 131.426 71.1451C131.425 71.1509 131.423 71.1565 131.42 71.1614C130.416 72.9812 124.719 81.3782 124.638 81.3512C123.828 79.6876 123.107 77.9824 122.478 76.2428C121.938 76.826 118.919 79.8284 118.919 79.6286C118.924 78.1186 119.009 76.6099 119.173 75.1088Z" fill="#263238"/>
<path d="M151.664 139.973L149.483 140.378L148.997 142.673L148.511 140.378L146.334 139.973L148.5 139.444L148.997 137.273L149.493 139.444L151.664 139.973Z" fill="#048DCF"/>
<path d="M114.556 37.5301L112.374 37.9351L111.888 40.2301L111.402 37.9351L109.226 37.5301L111.391 37.0009L111.888 34.8301L112.385 37.0009L114.556 37.5301Z" fill="#048DCF"/>
<path d="M88.4196 111.245L86.238 111.645L85.752 113.94L85.266 111.645L83.0898 111.245L85.2552 110.716L85.752 108.545L86.2488 110.716L88.4196 111.245Z" fill="#048DCF"/>
<path d="M150.282 101.995L148.106 102.4L147.62 104.695L147.134 102.4L144.952 101.995L147.123 101.466L147.62 99.2949L148.117 101.466L150.282 101.995Z" fill="#048DCF"/>
<path d="M178.427 92.9285L177.212 93.1499L176.937 94.4351L176.667 93.1499L175.452 92.9285L176.661 92.6315L176.937 91.4165L177.217 92.6315L178.427 92.9285Z" fill="#048DCF"/>
<path d="M102.962 88.7005L101.747 88.9273L101.477 90.2125L101.201 88.9273L99.9863 88.7005L101.196 88.4035L101.477 87.1938L101.752 88.4035L102.962 88.7005Z" fill="#048DCF"/>
<path d="M140.686 45.9866L139.466 46.2134L139.196 47.4932L138.926 46.2134L137.706 45.9866L138.921 45.6896L139.196 44.48L139.471 45.6896L140.686 45.9866Z" fill="#048DCF"/>
<path d="M169.079 113.686L167.864 113.908L167.594 115.193L167.319 113.908L166.104 113.686L167.314 113.389L167.594 112.174L167.87 113.389L169.079 113.686Z" fill="#048DCF"/>
<path d="M159.181 116.154L157.961 116.375L157.691 117.661L157.415 116.375L156.2 116.154L157.41 115.857L157.691 114.642L157.966 115.857L159.181 116.154Z" fill="#048DCF"/>
<path d="M159.181 65.0427L157.961 65.2695L157.691 66.5547L157.415 65.2695L156.2 65.0427L157.41 64.7457L157.691 63.5361L157.966 64.7457L159.181 65.0427Z" fill="#048DCF"/>
<path d="M106.337 63.2068L105.116 63.4282L104.846 64.7134L104.571 63.4282L103.356 63.2068L104.571 62.9098L104.846 61.6948L105.122 62.9098L106.337 63.2068Z" fill="#048DCF"/>
<path d="M76.345 61.8787L75.13 62.1055L74.8546 63.3907L74.5846 62.1055L73.3696 61.8787L74.5792 61.5817L74.8546 60.3721L75.1354 61.5817L76.345 61.8787Z" fill="#048DCF"/>
<path d="M92.7073 122.24L91.4923 122.466L91.2223 123.746L90.9469 122.466L89.7319 122.24L90.9415 121.943L91.2223 120.733L91.4977 121.943L92.7073 122.24Z" fill="#048DCF"/>
<path d="M154.159 121.889C154.066 121.889 153.977 121.926 153.911 121.991C153.845 122.057 153.808 122.147 153.808 122.24C153.808 122.333 153.845 122.422 153.911 122.488C153.977 122.554 154.066 122.591 154.159 122.591C154.252 122.591 154.341 122.554 154.407 122.488C154.473 122.422 154.51 122.333 154.51 122.24C154.51 122.147 154.473 122.057 154.407 121.991C154.341 121.926 154.252 121.889 154.159 121.889Z" fill="#048DCF"/>
<path d="M159.522 72.3979C159.435 72.4086 159.356 72.4505 159.298 72.5156C159.241 72.5808 159.209 72.6647 159.209 72.7517C159.209 72.8386 159.241 72.9225 159.298 72.9877C159.356 73.0528 159.435 73.0947 159.522 73.1054C159.608 73.0947 159.687 73.0528 159.745 72.9877C159.802 72.9225 159.834 72.8386 159.834 72.7517C159.834 72.6647 159.802 72.5808 159.745 72.5156C159.687 72.4505 159.608 72.4086 159.522 72.3979Z" fill="#048DCF"/>
<path d="M97.4161 42.1201C97.3298 42.1308 97.2504 42.1727 97.1929 42.2378C97.1353 42.3029 97.1035 42.3869 97.1035 42.4738C97.1035 42.5608 97.1353 42.6447 97.1929 42.7098C97.2504 42.775 97.3298 42.8168 97.4161 42.8275C97.5024 42.8168 97.5818 42.775 97.6394 42.7098C97.697 42.6447 97.7287 42.5608 97.7287 42.4738C97.7287 42.3869 97.697 42.3029 97.6394 42.2378C97.5818 42.1727 97.5024 42.1308 97.4161 42.1201Z" fill="#048DCF"/>
<path d="M70.4862 64.3408C70.3932 64.3408 70.3039 64.3778 70.2381 64.4436C70.1722 64.5095 70.1353 64.5987 70.1353 64.6918C70.1353 64.7849 70.1722 64.8742 70.2381 64.94C70.3039 65.0058 70.3932 65.0428 70.4862 65.0428C70.5793 65.0428 70.6686 65.0058 70.7344 64.94C70.8003 64.8742 70.8372 64.7849 70.8372 64.6918C70.8372 64.5987 70.8003 64.5095 70.7344 64.4436C70.6686 64.3778 70.5793 64.3408 70.4862 64.3408Z" fill="#048DCF"/>
<path d="M91.2223 99.2949C91.136 99.3056 91.0566 99.3475 90.999 99.4126C90.9414 99.4777 90.9097 99.5617 90.9097 99.6486C90.9097 99.7356 90.9414 99.8195 90.999 99.8846C91.0566 99.9498 91.136 99.9916 91.2223 100.002C91.3086 99.9916 91.388 99.9498 91.4455 99.8846C91.5031 99.8195 91.5349 99.7356 91.5349 99.6486C91.5349 99.5617 91.5031 99.4777 91.4455 99.4126C91.388 99.3475 91.3086 99.3056 91.2223 99.2949Z" fill="#048DCF"/>
<path d="M80.7733 92.8423C80.7074 92.8423 80.6442 92.8685 80.5977 92.915C80.5511 92.9616 80.5249 93.0248 80.5249 93.0907C80.5249 93.1566 80.5511 93.2198 80.5977 93.2664C80.6442 93.3129 80.7074 93.3391 80.7733 93.3391C80.8392 93.3391 80.9024 93.3129 80.949 93.2664C80.9955 93.2198 81.0217 93.1566 81.0217 93.0907C81.0217 93.0248 80.9955 92.9616 80.949 92.915C80.9024 92.8685 80.8392 92.8423 80.7733 92.8423Z" fill="#048DCF"/>
<path d="M100.192 50.7598C100.126 50.7598 100.063 50.7859 100.016 50.8325C99.9695 50.8791 99.9434 50.9423 99.9434 51.0082C99.9434 51.074 99.9695 51.1372 100.016 51.1838C100.063 51.2304 100.126 51.2566 100.192 51.2566C100.258 51.2566 100.321 51.2304 100.367 51.1838C100.414 51.1372 100.44 51.074 100.44 51.0082C100.44 50.9423 100.414 50.8791 100.367 50.8325C100.321 50.7859 100.258 50.7598 100.192 50.7598Z" fill="#048DCF"/>
<path d="M107.595 85.8169C107.535 85.8258 107.479 85.856 107.44 85.9021C107.4 85.9482 107.378 86.0071 107.378 86.068C107.378 86.1289 107.4 86.1878 107.44 86.2339C107.479 86.28 107.535 86.3102 107.595 86.3191C107.655 86.3102 107.71 86.28 107.75 86.2339C107.79 86.1878 107.812 86.1289 107.812 86.068C107.812 86.0071 107.79 85.9482 107.75 85.9021C107.71 85.856 107.655 85.8258 107.595 85.8169Z" fill="#048DCF"/>
<path d="M84.5694 131.015C84.5091 131.024 84.4541 131.054 84.4143 131.1C84.3744 131.146 84.3525 131.205 84.3525 131.266C84.3525 131.327 84.3744 131.386 84.4143 131.432C84.4541 131.478 84.5091 131.508 84.5694 131.517C84.6297 131.508 84.6848 131.478 84.7246 131.432C84.7644 131.386 84.7863 131.327 84.7863 131.266C84.7863 131.205 84.7644 131.146 84.7246 131.1C84.6848 131.054 84.6297 131.024 84.5694 131.015Z" fill="#048DCF"/>
<path d="M146.653 125.361C146.484 125.376 146.326 125.454 146.212 125.579C146.097 125.705 146.033 125.869 146.033 126.039C146.033 126.209 146.097 126.372 146.212 126.498C146.326 126.623 146.484 126.701 146.653 126.716C146.822 126.701 146.98 126.623 147.095 126.498C147.209 126.372 147.273 126.209 147.273 126.039C147.273 125.869 147.209 125.705 147.095 125.579C146.98 125.454 146.822 125.376 146.653 125.361Z" fill="#048DCF"/>
<path d="M187.321 86.3999C187.141 86.3999 186.97 86.471 186.843 86.5976C186.717 86.7242 186.646 86.8959 186.646 87.0749C186.646 87.2539 186.717 87.4256 186.843 87.5522C186.97 87.6788 187.141 87.7499 187.321 87.7499C187.5 87.7499 187.671 87.6788 187.798 87.5522C187.924 87.4256 187.996 87.2539 187.996 87.0749C187.996 86.8959 187.924 86.7242 187.798 86.5976C187.671 86.471 187.5 86.3999 187.321 86.3999Z" fill="#048DCF"/>
<path d="M119.043 32.7563C118.874 32.7715 118.716 32.8494 118.602 32.9748C118.487 33.1003 118.423 33.2641 118.423 33.434C118.423 33.604 118.487 33.7678 118.602 33.8933C118.716 34.0187 118.874 34.0966 119.043 34.1117C119.212 34.0966 119.37 34.0187 119.485 33.8933C119.599 33.7678 119.663 33.604 119.663 33.434C119.663 33.2641 119.599 33.1003 119.485 32.9748C119.37 32.8494 119.212 32.7715 119.043 32.7563Z" fill="#048DCF"/>
<path d="M110.16 59.7134C109.991 59.7285 109.833 59.8065 109.718 59.9319C109.604 60.0573 109.54 60.2211 109.54 60.3911C109.54 60.561 109.604 60.7249 109.718 60.8503C109.833 60.9757 109.991 61.0536 110.16 61.0688C110.329 61.0536 110.487 60.9757 110.601 60.8503C110.716 60.7249 110.78 60.561 110.78 60.3911C110.78 60.2211 110.716 60.0573 110.601 59.9319C110.487 59.8065 110.329 59.7285 110.16 59.7134Z" fill="#048DCF"/>
<path d="M87.761 128.72C87.5917 128.735 87.4342 128.813 87.3194 128.938C87.2047 129.064 87.1411 129.227 87.1411 129.397C87.1411 129.567 87.2047 129.731 87.3194 129.857C87.4342 129.982 87.5917 130.06 87.761 130.075C87.9303 130.06 88.0878 129.982 88.2025 129.857C88.3172 129.731 88.3808 129.567 88.3808 129.397C88.3808 129.227 88.3172 129.064 88.2025 128.938C88.0878 128.813 87.9303 128.735 87.761 128.72Z" fill="#048DCF"/>
</svg>
