<svg width="307" height="204" viewBox="0 0 307 204" fill="none" xmlns="http://www.w3.org/2000/svg">
<path d="M99.9593 60.5062H48.1213V25.1611H99.9593V60.5062ZM48.5307 60.0982H99.55V25.5691H48.5307V60.0982Z" fill="#EBEBEB"/>
<path d="M52.1736 27.4373C52.1736 27.6407 52.1131 27.8395 51.9998 28.0086C51.8864 28.1776 51.7253 28.3094 51.5369 28.3872C51.3484 28.4651 51.141 28.4854 50.9409 28.4457C50.7408 28.4061 50.557 28.3081 50.4127 28.1644C50.2685 28.0206 50.1702 27.8374 50.1304 27.6379C50.0906 27.4385 50.111 27.2317 50.1891 27.0439C50.2672 26.856 50.3994 26.6954 50.569 26.5825C50.7387 26.4695 50.9381 26.4092 51.1421 26.4092C51.4157 26.4092 51.6781 26.5175 51.8715 26.7103C52.0649 26.9031 52.1736 27.1647 52.1736 27.4373Z" fill="#A6A6A6"/>
<path d="M56.3858 27.4373C56.3858 27.6407 56.3253 27.8395 56.2119 28.0086C56.0986 28.1776 55.9375 28.3094 55.749 28.3872C55.5605 28.4651 55.3531 28.4854 55.153 28.4457C54.9529 28.4061 54.7691 28.3081 54.6249 28.1644C54.4806 28.0206 54.3824 27.8374 54.3426 27.6379C54.3028 27.4385 54.3232 27.2317 54.4013 27.0439C54.4793 26.856 54.6116 26.6954 54.7812 26.5825C54.9508 26.4695 55.1503 26.4092 55.3543 26.4092C55.6278 26.4092 55.8902 26.5175 56.0837 26.7103C56.2771 26.9031 56.3858 27.1647 56.3858 27.4373Z" fill="#EBEBEB"/>
<path d="M60.6017 27.4373C60.6026 27.6418 60.5424 27.842 60.4289 28.0124C60.3154 28.1827 60.1537 28.3157 59.9643 28.3943C59.7749 28.4729 59.5664 28.4937 59.3651 28.454C59.1638 28.4143 58.9789 28.3159 58.8338 28.1713C58.6888 28.0267 58.59 27.8424 58.5502 27.6418C58.5104 27.4412 58.5312 27.2333 58.6101 27.0445C58.689 26.8557 58.8224 26.6946 58.9933 26.5814C59.1643 26.4683 59.365 26.4084 59.5702 26.4092C59.8438 26.4092 60.1062 26.5175 60.2996 26.7103C60.4931 26.9031 60.6017 27.1647 60.6017 27.4373Z" fill="#048DCF"/>
<path d="M99.7546 29.2451H48.3259V29.6531H99.7546V29.2451Z" fill="#EBEBEB"/>
<path d="M269.55 143.061H269.141V91.7226L280.082 76.8387V49.0254H280.492V76.9734L269.55 91.8572V143.061Z" fill="#EBEBEB"/>
<path d="M280.287 49.2456C280.054 49.2456 279.826 49.1767 279.632 49.0476C279.438 48.9184 279.287 48.7349 279.198 48.5202C279.108 48.3055 279.085 48.0692 279.131 47.8413C279.176 47.6134 279.288 47.404 279.453 47.2397C279.618 47.0753 279.828 46.9634 280.057 46.9181C280.286 46.8727 280.523 46.896 280.738 46.985C280.953 47.0739 281.137 47.2245 281.267 47.4177C281.397 47.611 281.466 47.8381 281.466 48.0705C281.466 48.3822 281.342 48.6811 281.12 48.9014C280.899 49.1218 280.599 49.2456 280.287 49.2456ZM280.287 47.3076C280.134 47.3076 279.985 47.3527 279.859 47.4371C279.732 47.5216 279.634 47.6416 279.575 47.782C279.517 47.9224 279.502 48.0769 279.532 48.2258C279.562 48.3747 279.636 48.5113 279.744 48.6185C279.852 48.7256 279.99 48.7983 280.139 48.8274C280.289 48.8566 280.444 48.8408 280.584 48.7821C280.725 48.7234 280.845 48.6245 280.929 48.4978C281.013 48.3711 281.057 48.2224 281.056 48.0705C281.051 47.871 280.967 47.6816 280.824 47.5428C280.68 47.404 280.487 47.3268 280.287 47.328V47.3076Z" fill="#EBEBEB"/>
<path d="M272.371 143.061H271.961V93.5213L282.903 78.6374V59.2207H283.312V78.768L272.371 93.6559V143.061Z" fill="#EBEBEB"/>
<path d="M283.107 59.4458C282.874 59.4466 282.646 59.3783 282.451 59.2497C282.257 59.1211 282.105 58.9379 282.015 58.7232C281.925 58.5086 281.901 58.2722 281.946 58.044C281.991 57.8158 282.103 57.606 282.268 57.4413C282.433 57.2766 282.643 57.1643 282.872 57.1186C283.1 57.0729 283.338 57.0959 283.553 57.1848C283.769 57.2736 283.953 57.4242 284.083 57.6175C284.213 57.8108 284.282 58.0382 284.282 58.2707C284.282 58.5817 284.158 58.8799 283.938 59.1002C283.718 59.3204 283.419 59.4447 283.107 59.4458ZM283.107 57.5037C282.955 57.5029 282.806 57.5472 282.679 57.631C282.552 57.7148 282.452 57.8343 282.393 57.9744C282.335 58.1144 282.319 58.2688 282.348 58.4179C282.377 58.5669 282.45 58.704 282.558 58.8116C282.665 58.9193 282.802 58.9928 282.952 59.0227C283.101 59.0526 283.256 59.0377 283.397 58.9798C283.538 58.9218 283.658 58.8235 283.743 58.6973C283.827 58.5711 283.873 58.4226 283.873 58.2707C283.873 58.068 283.792 57.8735 283.649 57.7298C283.505 57.5861 283.311 57.5048 283.107 57.5037Z" fill="#EBEBEB"/>
<path d="M266.836 75.166H266.427V143.061H266.836V75.166Z" fill="#EBEBEB"/>
<path d="M266.632 75.3696C266.398 75.3704 266.17 75.3022 265.976 75.1736C265.781 75.0449 265.629 74.8617 265.54 74.6471C265.45 74.4324 265.426 74.196 265.471 73.9678C265.516 73.7396 265.628 73.5299 265.793 73.3651C265.957 73.2004 266.167 73.0881 266.396 73.0424C266.625 72.9967 266.862 73.0198 267.078 73.1086C267.293 73.1974 267.478 73.348 267.608 73.5413C267.737 73.7346 267.806 73.962 267.806 74.1946C267.806 74.5055 267.683 74.8038 267.463 75.024C267.242 75.2442 266.944 75.3685 266.632 75.3696ZM266.632 73.4316C266.479 73.4308 266.33 73.4752 266.203 73.5592C266.075 73.6431 265.976 73.7629 265.917 73.9032C265.859 74.0435 265.843 74.1981 265.873 74.3473C265.902 74.4964 265.976 74.6335 266.083 74.741C266.191 74.8485 266.329 74.9217 266.478 74.9511C266.628 74.9806 266.783 74.9651 266.924 74.9065C267.065 74.8479 267.185 74.749 267.269 74.6222C267.353 74.4955 267.398 74.3466 267.397 74.1946C267.394 73.994 267.312 73.8026 267.169 73.6615C267.026 73.5204 266.833 73.4408 266.632 73.4398V73.4316Z" fill="#EBEBEB"/>
<path d="M264.221 143.061H263.811V108.606L256.386 94.6397V69.5518H256.795V94.5377L264.221 108.504V143.061Z" fill="#EBEBEB"/>
<path d="M256.587 69.7681C256.353 69.7681 256.125 69.6991 255.932 69.57C255.738 69.4409 255.587 69.2574 255.497 69.0427C255.408 68.828 255.385 68.5917 255.43 68.3638C255.476 68.1358 255.588 67.9265 255.753 67.7621C255.918 67.5978 256.128 67.4859 256.357 67.4405C256.585 67.3952 256.822 67.4185 257.038 67.5074C257.253 67.5964 257.437 67.747 257.567 67.9402C257.696 68.1334 257.765 68.3606 257.765 68.593C257.765 68.9046 257.641 69.2035 257.42 69.4239C257.199 69.6443 256.899 69.7681 256.587 69.7681ZM256.587 67.8301C256.434 67.8301 256.285 67.8751 256.159 67.9596C256.032 68.0441 255.933 68.1641 255.875 68.3045C255.817 68.4449 255.802 68.5993 255.832 68.7482C255.862 68.8971 255.936 69.0338 256.044 69.1409C256.152 69.248 256.289 69.3208 256.439 69.3499C256.589 69.379 256.743 69.3633 256.884 69.3046C257.024 69.2459 257.144 69.1469 257.228 69.0203C257.312 68.8936 257.357 68.7449 257.356 68.593C257.358 68.4914 257.339 68.3906 257.301 68.2963C257.263 68.2021 257.207 68.1163 257.135 68.0441C257.063 67.9719 256.978 67.9147 256.884 67.8758C256.789 67.837 256.688 67.8173 256.587 67.8178V67.8301Z" fill="#EBEBEB"/>
<path d="M261.621 143.061H261.212V110.098L252.456 94.6596V78.1152H252.866V94.5536L261.621 109.992V143.061Z" fill="#EBEBEB"/>
<path d="M252.661 78.3354C252.427 78.3362 252.199 78.2679 252.004 78.1391C251.81 78.0103 251.658 77.8268 251.569 77.6119C251.479 77.3971 251.455 77.1605 251.5 76.9322C251.546 76.7038 251.658 76.4941 251.823 76.3295C251.988 76.1649 252.199 76.0529 252.428 76.0077C252.657 75.9625 252.894 75.9861 253.11 76.0756C253.325 76.165 253.51 76.3163 253.639 76.5101C253.768 76.704 253.837 76.9317 253.836 77.1645C253.835 77.4747 253.711 77.7719 253.49 77.9913C253.27 78.2106 252.972 78.3344 252.661 78.3354ZM252.661 76.3974C252.509 76.3966 252.359 76.4409 252.232 76.5247C252.105 76.6085 252.006 76.728 251.947 76.8681C251.888 77.0082 251.872 77.1625 251.902 77.3116C251.931 77.4606 252.004 77.5977 252.111 77.7054C252.219 77.8131 252.356 77.8865 252.505 77.9165C252.655 77.9464 252.81 77.9314 252.95 77.8735C253.091 77.8156 253.212 77.7173 253.296 77.591C253.381 77.4648 253.426 77.3163 253.426 77.1645C253.429 77.0627 253.41 76.9616 253.373 76.8669C253.336 76.7722 253.28 76.6859 253.208 76.613C253.137 76.54 253.052 76.482 252.958 76.4422C252.864 76.4024 252.763 76.3816 252.661 76.3811V76.3974Z" fill="#EBEBEB"/>
<path d="M39.3369 143.061H38.9276V116.337L27.9861 101.453V85.7451H28.3954V101.318L39.3369 116.202V143.061Z" fill="#EBEBEB"/>
<path d="M28.1908 85.9653C27.9575 85.9661 27.7291 85.8979 27.5347 85.7693C27.3403 85.6406 27.1886 85.4574 27.0987 85.2428C27.0089 85.0281 26.9849 84.7917 27.03 84.5635C27.075 84.3353 27.1869 84.1256 27.3516 83.9608C27.5164 83.7961 27.7264 83.6838 27.9552 83.6381C28.184 83.5924 28.4212 83.6155 28.6369 83.7043C28.8525 83.7931 29.0369 83.9437 29.1666 84.137C29.2963 84.3303 29.3656 84.5577 29.3656 84.7903C29.3656 85.1012 29.2419 85.3995 29.0217 85.6197C28.8015 85.8399 28.5027 85.9642 28.1908 85.9653ZM28.1908 84.0273C28.0382 84.0265 27.8889 84.0709 27.7617 84.1549C27.6345 84.2388 27.5353 84.3586 27.4765 84.4989C27.4178 84.6392 27.4022 84.7938 27.4317 84.943C27.4613 85.0921 27.5347 85.2292 27.6426 85.3367C27.7504 85.4442 27.8879 85.5174 28.0376 85.5468C28.1872 85.5763 28.3423 85.5608 28.4831 85.5022C28.6239 85.4436 28.744 85.3447 28.8283 85.2179C28.9125 85.0912 28.957 84.9423 28.9562 84.7903C28.9499 84.5918 28.8666 84.4035 28.7238 84.2651C28.5811 84.1266 28.39 84.0487 28.1908 84.0477V84.0273Z" fill="#EBEBEB"/>
<path d="M36.5166 143.061H36.1072V118.137L25.1658 103.249V95.9414H25.5751V103.118L36.5166 118.002V143.061Z" fill="#EBEBEB"/>
<path d="M25.3786 96.1655C25.1454 96.1655 24.9175 96.0966 24.7236 95.9675C24.5298 95.8384 24.3787 95.6549 24.2894 95.4401C24.2002 95.2254 24.1769 94.9892 24.2224 94.7612C24.2678 94.5333 24.3801 94.3239 24.545 94.1596C24.7099 93.9953 24.9199 93.8833 25.1486 93.838C25.3773 93.7927 25.6143 93.8159 25.8297 93.9049C26.0451 93.9938 26.2293 94.1444 26.3588 94.3377C26.4883 94.5309 26.5575 94.7581 26.5575 94.9905C26.5575 95.3021 26.4333 95.601 26.2122 95.8213C25.9911 96.0417 25.6912 96.1655 25.3786 96.1655ZM25.3786 94.2234C25.2264 94.2234 25.0776 94.2684 24.9511 94.3527C24.8245 94.437 24.7259 94.5568 24.6676 94.6969C24.6094 94.8371 24.5941 94.9913 24.6238 95.1401C24.6535 95.2889 24.7268 95.4256 24.8344 95.5329C24.9421 95.6401 25.0792 95.7132 25.2285 95.7428C25.3777 95.7724 25.5325 95.7572 25.6731 95.6991C25.8137 95.6411 25.9339 95.5428 26.0184 95.4166C26.103 95.2905 26.1481 95.1422 26.1481 94.9905C26.1481 94.787 26.0671 94.5919 25.9227 94.4481C25.7784 94.3042 25.5827 94.2234 25.3786 94.2234Z" fill="#EBEBEB"/>
<path d="M42.0509 99.6455H41.6416V143.061H42.0509V99.6455Z" fill="#EBEBEB"/>
<path d="M41.8461 99.8501C41.613 99.8501 41.385 99.7812 41.1912 99.6521C40.9973 99.5229 40.8462 99.3394 40.757 99.1247C40.6677 98.91 40.6444 98.6737 40.6899 98.4458C40.7354 98.2179 40.8477 98.0085 41.0125 97.8442C41.1774 97.6798 41.3874 97.5679 41.6161 97.5226C41.8448 97.4772 42.0818 97.5005 42.2973 97.5894C42.5127 97.6784 42.6968 97.829 42.8263 98.0222C42.9559 98.2155 43.025 98.4426 43.025 98.675C43.025 98.9867 42.9008 99.2856 42.6797 99.5059C42.4586 99.7263 42.1588 99.8501 41.8461 99.8501ZM41.8461 97.9121C41.6937 97.9121 41.5448 97.9572 41.4182 98.0416C41.2915 98.1261 41.1929 98.2461 41.1348 98.3865C41.0766 98.5269 41.0616 98.6814 41.0917 98.8303C41.1217 98.9792 41.1954 99.1158 41.3034 99.223C41.4115 99.3301 41.549 99.4028 41.6985 99.4319C41.8481 99.4611 42.0029 99.4453 42.1435 99.3866C42.284 99.3279 42.4039 99.229 42.488 99.1023C42.572 98.9756 42.6165 98.8269 42.6157 98.675C42.6135 98.4734 42.5313 98.2808 42.3871 98.1394C42.2429 97.9979 42.0484 97.9192 41.8461 97.9202V97.9121Z" fill="#EBEBEB"/>
<path d="M44.6664 143.061H44.2571V120.744L44.2775 120.699L51.6824 106.778V81.792H52.0917V106.88L52.0712 106.925L44.6664 120.846V143.061Z" fill="#EBEBEB"/>
<path d="M51.8871 82.0073C51.654 82.0073 51.426 81.9384 51.2322 81.8093C51.0383 81.6802 50.8872 81.4967 50.798 81.2819C50.7088 81.0672 50.6854 80.831 50.7309 80.603C50.7764 80.3751 50.8887 80.1657 51.0535 80.0014C51.2184 79.8371 51.4285 79.7251 51.6571 79.6798C51.8858 79.6345 52.1229 79.6577 52.3383 79.7467C52.5537 79.8356 52.7378 79.9862 52.8673 80.1795C52.9969 80.3727 53.066 80.5999 53.066 80.8323C53.066 81.1439 52.9418 81.4428 52.7207 81.6632C52.4996 81.8835 52.1998 82.0073 51.8871 82.0073ZM51.8871 80.0693C51.7348 80.0693 51.5858 80.1144 51.4592 80.1989C51.3325 80.2833 51.2339 80.4034 51.1758 80.5438C51.1177 80.6842 51.1027 80.8386 51.1327 80.9875C51.1627 81.1364 51.2364 81.2731 51.3444 81.3802C51.4525 81.4873 51.59 81.56 51.7395 81.5891C51.8891 81.6183 52.0439 81.6025 52.1845 81.5438C52.325 81.4852 52.4449 81.3862 52.529 81.2595C52.613 81.1328 52.6575 80.9841 52.6567 80.8323C52.6583 80.7307 52.6396 80.6298 52.6016 80.5356C52.5636 80.4413 52.5071 80.3556 52.4354 80.2834C52.3638 80.2112 52.2783 80.154 52.1842 80.1151C52.09 80.0762 51.989 80.0565 51.8871 80.0571V80.0693Z" fill="#EBEBEB"/>
<path d="M47.2658 143.061H46.8564V122.233L46.881 122.184L55.6121 106.794V90.3555H56.0214V106.9L55.9928 106.945L47.2658 122.339V143.061Z" fill="#EBEBEB"/>
<path d="M55.8168 90.5757C55.5832 90.5765 55.3548 90.5081 55.1603 90.3793C54.9658 90.2505 54.814 90.067 54.7243 89.8522C54.6346 89.6373 54.6109 89.4007 54.6562 89.1724C54.7016 88.9441 54.814 88.7343 54.9791 88.5697C55.1442 88.4052 55.3546 88.2932 55.5837 88.248C55.8127 88.2028 56.0501 88.2264 56.2657 88.3158C56.4813 88.4052 56.6653 88.5565 56.7946 88.7503C56.9238 88.9442 56.9923 89.172 56.9915 89.4047C56.9905 89.7149 56.8663 90.0121 56.6463 90.2315C56.4262 90.4509 56.128 90.5746 55.8168 90.5757ZM55.8168 88.6377C55.6644 88.6368 55.5152 88.6811 55.3881 88.7649C55.261 88.8487 55.1617 88.9682 55.1029 89.1083C55.044 89.2484 55.0282 89.4028 55.0574 89.5518C55.0866 89.7009 55.1596 89.8379 55.2671 89.9456C55.3745 90.0533 55.5116 90.1268 55.661 90.1567C55.8104 90.1866 55.9653 90.1717 56.1062 90.1137C56.2471 90.0558 56.3675 89.9575 56.4522 89.8313C56.537 89.705 56.5822 89.5566 56.5822 89.4047C56.5844 89.3029 56.5662 89.2018 56.5288 89.1071C56.4913 89.0124 56.4354 88.9261 56.3641 88.8532C56.2929 88.7803 56.2078 88.7222 56.1138 88.6824C56.0198 88.6426 55.9189 88.6219 55.8168 88.6213V88.6377Z" fill="#EBEBEB"/>
<path d="M280.803 52.1221L283.668 47.5321L282.26 46.6631C282.055 46.536 281.89 46.3537 281.784 46.1371C281.678 45.9205 281.636 45.6785 281.662 45.4391C281.684 45.1671 281.692 44.8951 281.687 44.6231C281.679 44.3863 281.738 44.1521 281.857 43.9467C281.976 43.7414 282.149 43.573 282.358 43.4603L283.819 42.6769L281.212 37.9441L279.751 38.7275C279.54 38.838 279.302 38.8881 279.065 38.8723C278.827 38.8564 278.598 38.7752 278.404 38.6377C278.183 38.4868 277.954 38.344 277.716 38.2297C277.506 38.1182 277.33 37.9502 277.21 37.7448C277.09 37.5393 277.03 37.3046 277.037 37.0669L277.09 35.4104L271.675 35.2432L271.621 36.9037C271.612 37.1414 271.537 37.3718 271.404 37.5693C271.271 37.7667 271.085 37.9234 270.868 38.0216C270.745 38.0788 270.627 38.1359 270.512 38.2012C270.397 38.2664 270.279 38.3276 270.164 38.397C269.962 38.5212 269.728 38.5869 269.491 38.5869C269.253 38.5869 269.02 38.5212 268.817 38.397L267.397 37.5198L264.532 42.1098L265.944 42.987C266.15 43.1137 266.315 43.296 266.421 43.5127C266.526 43.7294 266.568 43.9715 266.541 44.211C266.519 44.4824 266.51 44.7548 266.517 45.027C266.523 45.2647 266.463 45.4994 266.344 45.7054C266.225 45.9113 266.051 46.0804 265.842 46.1939L264.405 46.9201L266.967 51.6815L268.429 50.9022C268.639 50.7911 268.876 50.7403 269.114 50.7554C269.352 50.7705 269.581 50.851 269.775 50.9879C269.997 51.1362 270.226 51.2724 270.463 51.3959C270.674 51.5075 270.849 51.6754 270.969 51.8808C271.089 52.0863 271.149 52.321 271.142 52.5587L271.093 54.2152L276.509 54.3824L276.562 52.726C276.571 52.4888 276.646 52.2588 276.779 52.062C276.912 51.8651 277.098 51.7093 277.315 51.6121L277.671 51.4326L278.019 51.2327C278.223 51.1086 278.456 51.043 278.695 51.043C278.933 51.043 279.167 51.1086 279.37 51.2327L280.803 52.1221ZM276.218 48.7153C275.444 49.1287 274.564 49.304 273.69 49.2189C272.816 49.1339 271.986 48.7924 271.307 48.2377C270.627 47.6829 270.128 46.9398 269.872 46.1022C269.617 45.2647 269.616 44.3703 269.87 43.5323C270.124 42.6942 270.622 41.9501 271.3 41.394C271.978 40.8379 272.807 40.4948 273.681 40.408C274.555 40.3213 275.435 40.4948 276.21 40.9066C276.985 41.3185 277.621 41.9502 278.036 42.7218C278.31 43.2355 278.481 43.7982 278.537 44.3776C278.593 44.957 278.535 45.5418 278.364 46.0985C278.193 46.6553 277.914 47.173 277.542 47.622C277.171 48.071 276.714 48.4425 276.198 48.7153H276.218Z" fill="#EBEBEB"/>
<path d="M31.5924 92.9258L34.867 91.0327L34.2858 90.029C34.2025 89.8845 34.1615 89.7197 34.1673 89.5532C34.173 89.3866 34.2254 89.225 34.3185 89.0866C34.4222 88.9288 34.5164 88.7656 34.601 88.597C34.6769 88.4459 34.7939 88.3191 34.9387 88.2311C35.0834 88.1431 35.2501 88.0974 35.4196 88.0992H36.5821V84.313H35.4196C35.2501 84.3148 35.0834 84.2691 34.9387 84.1811C34.7939 84.0931 34.6769 83.9663 34.601 83.8152C34.5164 83.6466 34.4222 83.4834 34.3185 83.3256C34.2254 83.1872 34.173 83.0256 34.1673 82.859C34.1615 82.6925 34.2025 82.5276 34.2858 82.3831L34.867 81.3794L31.5924 79.4863L31.0111 80.4941C30.9289 80.6358 30.8088 80.752 30.6643 80.8298C30.5198 80.9076 30.3564 80.9439 30.1925 80.9347H29.6153C29.4519 80.9434 29.2892 80.9073 29.1448 80.8303C29.0005 80.7534 28.8801 80.6385 28.7966 80.4982L28.2113 79.4863L24.9366 81.3794L25.5179 82.3872C25.6011 82.5317 25.6422 82.6966 25.6364 82.8631C25.6306 83.0297 25.5782 83.1913 25.4851 83.3297C25.3822 83.4863 25.288 83.6484 25.2027 83.8152C25.1267 83.9663 25.0097 84.0931 24.865 84.1811C24.7202 84.2691 24.5536 84.3148 24.384 84.313H23.2092V88.0992H24.3717C24.5413 88.0974 24.7079 88.1431 24.8527 88.2311C24.9974 88.3191 25.1145 88.4459 25.1904 88.597C25.2757 88.7638 25.37 88.9258 25.4728 89.0825C25.5658 89.2217 25.6182 89.384 25.6239 89.5511C25.6297 89.7183 25.5887 89.8838 25.5056 90.029L24.9243 91.0327L28.199 92.9258L28.7843 91.9181C28.8676 91.7773 28.9879 91.6619 29.1322 91.5842C29.2764 91.5066 29.4392 91.4697 29.603 91.4774C29.6931 91.4774 29.7872 91.4774 29.8814 91.4774C29.9755 91.4774 30.0697 91.4774 30.1638 91.4774C30.3275 91.4701 30.4901 91.5072 30.6343 91.5848C30.7785 91.6624 30.8988 91.7776 30.9825 91.9181L31.5924 92.9258ZM29.8814 89.3069C29.2663 89.3061 28.6652 89.1235 28.1541 88.7823C27.6431 88.4411 27.245 87.9566 27.0102 87.3899C26.7753 86.8232 26.7143 86.1999 26.8348 85.5987C26.9553 84.9974 27.2519 84.4453 27.6871 84.012C28.1224 83.5788 28.6767 83.2839 29.28 83.1646C29.8834 83.0453 30.5087 83.1069 31.0769 83.3417C31.6451 83.5765 32.1307 83.974 32.4724 84.4838C32.814 84.9936 32.9964 85.593 32.9964 86.2061C32.9969 86.6138 32.9167 87.0176 32.7603 87.3943C32.6039 87.771 32.3744 88.1132 32.085 88.4013C31.7956 88.6894 31.4519 88.9177 31.0738 89.0731C30.6956 89.2285 30.2904 89.308 29.8814 89.3069Z" fill="#EBEBEB"/>
<path d="M264.053 55.4428L262.157 52.1788L261.155 52.7459C261.009 52.8288 260.843 52.8696 260.675 52.8639C260.507 52.8581 260.345 52.806 260.205 52.7133C260.047 52.6099 259.883 52.5158 259.714 52.4318C259.562 52.3561 259.435 52.2394 259.347 52.0951C259.258 51.9509 259.213 51.7847 259.214 51.6158V50.457H255.424V51.6158C255.426 51.7847 255.38 51.9509 255.292 52.0951C255.203 52.2394 255.076 52.3561 254.925 52.4318C254.755 52.5167 254.589 52.6107 254.429 52.7133C254.29 52.8061 254.128 52.8583 253.961 52.8641C253.794 52.8698 253.629 52.8289 253.484 52.7459L252.477 52.1666L250.582 55.4306L251.593 56.0099C251.736 56.0956 251.853 56.2189 251.931 56.3664C252.009 56.5139 252.045 56.6799 252.035 56.8463C252.035 56.9402 252.035 57.034 252.035 57.1238C252.035 57.2135 252.035 57.3114 252.035 57.4053C252.043 57.5686 252.006 57.731 251.928 57.8749C251.85 58.0188 251.734 58.1386 251.593 58.2213L250.582 58.8047L252.477 62.0687L253.488 61.4894C253.633 61.4064 253.798 61.3654 253.965 61.3712C254.132 61.377 254.294 61.4292 254.433 61.522C254.594 61.6254 254.758 61.7192 254.925 61.8035C255.076 61.8792 255.203 61.9958 255.292 62.1401C255.38 62.2844 255.426 62.4505 255.424 62.6195V63.7782H259.218V62.6195C259.217 62.4505 259.262 62.2844 259.351 62.1401C259.439 61.9958 259.566 61.8792 259.718 61.8035C259.887 61.7165 260.051 61.6226 260.209 61.522C260.348 61.4292 260.51 61.377 260.677 61.3712C260.844 61.3654 261.01 61.4064 261.155 61.4894L262.166 62.0687L264.061 58.8047L263.05 58.2254C262.909 58.1418 262.794 58.0217 262.717 57.8779C262.64 57.7342 262.604 57.5722 262.612 57.4094C262.612 57.3155 262.612 57.2217 262.612 57.1278C262.612 57.034 262.612 56.9442 262.612 56.8504C262.601 56.6839 262.637 56.5177 262.715 56.3701C262.793 56.2226 262.91 56.0993 263.054 56.014L264.053 55.4428ZM260.422 57.1197C260.422 57.7331 260.239 58.3328 259.897 58.8428C259.555 59.3528 259.069 59.7503 258.501 59.9848C257.932 60.2194 257.306 60.2806 256.703 60.1606C256.099 60.0406 255.545 59.7449 255.11 59.3108C254.675 58.8768 254.379 58.3239 254.259 57.7221C254.14 57.1203 254.202 56.4967 254.438 55.9302C254.674 55.3637 255.073 54.8797 255.586 54.5395C256.098 54.1992 256.7 54.0181 257.315 54.0189C257.723 54.0189 258.128 54.0991 258.505 54.255C258.882 54.4109 259.225 54.6393 259.513 54.9273C259.802 55.2153 260.031 55.5572 260.187 55.9334C260.342 56.3095 260.422 56.7127 260.422 57.1197Z" fill="#EBEBEB"/>
<path d="M275.224 129.491L269.853 129.605L267.127 129.65C266.214 129.671 265.297 129.65 264.384 129.675H264.204V129.491L264.18 124.926V124.722H264.384L269.804 124.75C271.613 124.75 273.418 124.795 275.224 124.816H275.338V124.926C275.338 125.701 275.305 126.472 275.285 127.235L275.224 129.491ZM275.224 129.491L275.166 127.186C275.146 126.427 275.121 125.672 275.113 124.926L275.224 125.036C273.418 125.06 271.613 125.101 269.804 125.105L264.384 125.13L264.589 124.926V129.491L264.405 129.312C265.297 129.312 266.19 129.312 267.086 129.332L269.779 129.377L275.224 129.491Z" fill="#EBEBEB"/>
<path d="M269.178 135.248L263.807 135.362L261.077 135.407C260.168 135.428 259.251 135.407 258.339 135.432H258.158V135.248V130.683V130.479H258.363L263.783 130.507C265.588 130.507 267.397 130.552 269.202 130.572H269.317V130.683C269.317 131.458 269.284 132.229 269.264 132.992L269.178 135.248ZM269.178 135.248L269.12 132.943C269.1 132.18 269.075 131.429 269.067 130.683L269.178 130.793C267.373 130.817 265.563 130.858 263.758 130.862L258.339 130.887L258.543 130.683V135.248L258.359 135.069C259.251 135.069 260.144 135.069 261.04 135.089L263.73 135.134L269.178 135.248Z" fill="#EBEBEB"/>
<path d="M281.269 135.248L275.899 135.362L273.173 135.407C272.26 135.428 271.343 135.407 270.43 135.432H270.25V135.248L270.226 130.683V130.479H270.43L275.85 130.507C277.659 130.507 279.464 130.552 281.269 130.572H281.384V130.683C281.384 131.458 281.347 132.229 281.331 132.992L281.269 135.248ZM281.269 135.248L281.212 132.943C281.212 132.18 281.167 131.429 281.159 130.683L281.269 130.793C279.464 130.817 277.659 130.858 275.85 130.862L270.43 130.887L270.635 130.683V135.248L270.451 135.069C271.343 135.069 272.235 135.069 273.132 135.089L275.825 135.134L281.269 135.248Z" fill="#EBEBEB"/>
<path d="M120.667 79.2417L115.297 79.356L112.571 79.4049C111.658 79.4049 110.741 79.4049 109.828 79.4049H109.648V79.2213L109.624 74.664V74.46H109.828L115.248 74.4844C117.057 74.4844 118.862 74.5293 120.667 74.5497H120.782V74.664C120.782 75.4392 120.745 76.2103 120.725 76.9732L120.667 79.2417ZM120.667 79.2417L120.61 76.9365C120.61 76.1776 120.565 75.4269 120.557 74.6762L120.667 74.7904C118.862 74.8108 117.057 74.8557 115.248 74.8557L109.828 74.8802L110.033 74.6762L110.012 79.2417L109.828 79.0622C110.721 79.0622 111.613 79.0622 112.509 79.0826L115.203 79.1316L120.667 79.2417Z" fill="#EBEBEB"/>
<path d="M114.613 84.998L109.243 85.1123L106.513 85.1572C105.604 85.1776 104.687 85.1572 103.774 85.1816H103.594V84.998L103.561 80.4325V80.2285H103.766L109.186 80.2571C110.991 80.2571 112.8 80.302 114.605 80.3224H114.72V80.4325C114.72 81.2077 114.687 81.9788 114.666 82.7418L114.613 84.998ZM114.613 84.998L114.556 82.6928C114.536 81.934 114.511 81.1832 114.503 80.4325L114.613 80.5468C112.808 80.5672 110.999 80.612 109.194 80.612L103.774 80.6365L103.979 80.4325V84.998L103.795 84.8185C104.687 84.8185 105.579 84.8185 106.476 84.8389L109.169 84.8879L114.613 84.998Z" fill="#EBEBEB"/>
<path d="M42.6157 129.299L37.2493 129.413L34.5232 129.462C33.6145 129.462 32.6976 129.462 31.7847 129.482H31.6005V129.299L31.5801 124.733V124.529H31.7847L37.2043 124.554C39.0095 124.554 40.8187 124.599 42.6239 124.619H42.7344V124.729C42.7344 125.504 42.7017 126.276 42.6812 127.038L42.6157 129.299ZM42.6157 129.299L42.5584 126.994C42.5584 126.235 42.5093 125.484 42.5052 124.733L42.6157 124.848C40.8105 124.868 39.0013 124.913 37.1961 124.913L31.7766 124.937L31.9812 124.733L31.9567 129.299L31.7766 129.119C32.6689 129.119 33.5612 129.119 34.4536 129.119L37.147 129.168L42.6157 129.299Z" fill="#EBEBEB"/>
<path d="M36.57 135.048L31.1954 135.162L28.4693 135.207C27.5606 135.207 26.6436 135.207 25.7308 135.231H25.5466V135.048V130.482V130.278H25.7554L31.175 130.303C32.9801 130.303 34.7853 130.348 36.5945 130.368H36.7051V130.478C36.7051 131.253 36.6682 132.025 36.6518 132.788L36.57 135.048ZM36.57 135.048L36.5127 132.743C36.5127 131.984 36.4636 131.233 36.4554 130.482L36.57 130.597C34.7607 130.617 32.9556 130.662 31.1504 130.662L25.7308 130.686L25.9355 130.482L25.9109 135.048L25.7308 134.868C26.6232 134.868 27.5114 134.868 28.4079 134.889L31.1013 134.938L36.57 135.048Z" fill="#EBEBEB"/>
<path d="M126.713 84.998L121.343 85.1123L118.617 85.1572C117.704 85.1776 116.791 85.1572 115.874 85.1816H115.694V84.998L115.669 80.4325V80.2285H115.874L121.294 80.2571C123.103 80.2571 124.908 80.302 126.713 80.3224H126.828V80.4325C126.828 81.2077 126.791 81.9788 126.775 82.7418L126.713 84.998ZM126.713 84.998L126.656 82.6928C126.656 81.934 126.611 81.1832 126.603 80.4325L126.713 80.5468C124.908 80.5672 123.103 80.612 121.294 80.612L115.874 80.6365L116.079 80.4325L116.058 84.998L115.874 84.8185C116.771 84.8185 117.659 84.8185 118.555 84.8389L121.249 84.8879L126.713 84.998Z" fill="#EBEBEB"/>
<path d="M251.003 72.0039L245.633 72.1181L242.907 72.163C241.994 72.163 241.077 72.163 240.164 72.1875H239.984V72.0039L239.959 67.4384V67.2344H240.164L245.584 67.2629C247.389 67.2629 249.198 67.3078 251.003 67.3282H251.118V67.4384C251.118 68.2136 251.085 68.9847 251.065 69.7477L251.003 72.0039ZM251.003 72.0039L250.946 69.6987C250.946 68.9398 250.901 68.185 250.893 67.4384L251.003 67.5485C249.198 67.573 247.389 67.6138 245.584 67.6179L240.164 67.6424L240.369 67.4384L240.348 72.0039L240.164 71.8244C241.056 71.8244 241.949 71.8244 242.845 71.8448L245.539 71.8897L251.003 72.0039Z" fill="#EBEBEB"/>
<path d="M274.597 30.8204L269.227 30.9346L266.496 30.9795C265.588 30.9795 264.671 30.9795 263.758 30.9795H263.578V30.7959V26.2304V26.0264H263.783L269.202 26.0508C271.007 26.0508 272.817 26.0957 274.622 26.1161H274.736V26.2263C274.736 27.0015 274.704 27.7685 274.683 28.5315L274.597 30.8204ZM274.597 30.8204L274.54 28.5111C274.519 27.7522 274.495 27.0015 274.487 26.2548L274.597 26.365C272.792 26.365 270.983 26.4303 269.178 26.4303L263.758 26.4588L263.963 26.2548L263.942 30.8204L263.758 30.6368C264.65 30.6368 265.543 30.6368 266.439 30.6612L269.128 30.7061L274.597 30.8204Z" fill="#EBEBEB"/>
<path d="M280.643 36.5774L275.272 36.6917L272.546 36.7365C271.634 36.7365 270.717 36.7365 269.804 36.7365H269.624V36.5529L269.599 31.9874V31.8242H269.804L275.223 31.8487C277.033 31.8487 278.838 31.8936 280.643 31.914H280.758V32.0241C280.758 32.7993 280.721 33.5664 280.7 34.3293L280.643 36.5774ZM280.643 36.5774L280.586 34.2722C280.586 33.5133 280.541 32.7626 280.532 32.016L280.643 32.1261C278.838 32.1261 277.033 32.1914 275.223 32.1914L269.804 32.2322L270.008 32.0282V36.5937L269.824 36.4101C270.717 36.4101 271.609 36.4101 272.505 36.4346L275.199 36.4795L280.643 36.5774Z" fill="#EBEBEB"/>
<path d="M36.57 30.8243L31.1954 30.9385L28.4693 30.9834C27.5606 30.9834 26.6436 30.9834 25.7308 30.9834H25.5466V30.7998V26.2343V26.0303H25.7554L31.175 26.0548C32.9801 26.0548 34.7853 26.0996 36.5945 26.1241H36.7051V26.2343C36.7051 27.0095 36.6682 27.7806 36.6518 28.5395L36.57 30.8243ZM36.57 30.8243L36.5127 28.5191C36.5127 27.7561 36.4636 27.0054 36.4554 26.2588L36.57 26.3689C34.7607 26.3893 32.9556 26.4342 31.1504 26.4383L25.7308 26.4628L25.9355 26.2588L25.9109 30.8243L25.7308 30.6407C26.6232 30.6407 27.5114 30.6407 28.4079 30.6652L31.1013 30.71L36.57 30.8243Z" fill="#EBEBEB"/>
<path d="M278.928 102.159C273.32 109.732 267.466 118.516 266.046 128.01C266.04 128.043 266.046 128.077 266.065 128.105C266.084 128.133 266.113 128.152 266.146 128.159C266.179 128.165 266.214 128.159 266.242 128.14C266.27 128.121 266.289 128.092 266.296 128.059C266.941 125.47 267.769 122.93 268.772 120.458C272.456 119.446 276.079 118.614 278.015 114.966C279.992 111.217 279.742 106.329 279.366 102.245C279.337 102.024 279.042 102 278.928 102.159Z" fill="#048DCF"/>
<path d="M268.83 120.384C271.351 114.75 274.585 109.091 278.695 104.472C278.723 104.444 278.764 104.472 278.74 104.517C276.05 107.818 274.004 111.412 272.006 115.072C273.865 113.191 275.899 111.51 277.655 109.515C277.692 109.479 277.745 109.515 277.712 109.572C275.968 111.661 274.057 113.93 271.785 115.476C271.171 116.599 270.554 117.724 269.935 118.85C270.086 118.765 270.246 118.691 270.402 118.614C270.404 118.611 270.407 118.609 270.411 118.608C270.414 118.607 270.418 118.606 270.422 118.607C270.426 118.607 270.429 118.609 270.432 118.611C270.435 118.613 270.438 118.615 270.44 118.618C270.442 118.622 270.443 118.625 270.443 118.629C270.444 118.633 270.443 118.636 270.442 118.64C270.44 118.643 270.438 118.646 270.436 118.649C270.433 118.651 270.43 118.653 270.426 118.654C270.25 118.74 270.082 118.834 269.902 118.907C269.607 119.442 269.313 119.976 269.01 120.507C268.932 120.609 268.776 120.503 268.83 120.384Z" fill="#263238"/>
<path d="M270.704 118.417C272.213 117.579 273.653 116.624 275.011 115.561C275.047 115.533 275.101 115.561 275.064 115.614C273.748 116.747 272.306 117.726 270.766 118.531C270.751 118.539 270.733 118.541 270.716 118.536C270.7 118.531 270.686 118.52 270.678 118.505C270.67 118.49 270.668 118.472 270.673 118.455C270.678 118.439 270.689 118.425 270.704 118.417Z" fill="#263238"/>
<path d="M265.399 126.598C265.399 126.712 265.604 126.712 265.604 126.598C265.633 123.473 265.604 120.331 265.653 117.189C266.472 115.557 268.183 114.676 269.382 113.383C270.244 112.437 270.994 111.395 271.617 110.278C273.064 107.61 273.947 104.674 274.212 101.653C274.544 98.3072 273.271 87.2708 271.859 87.6543C271.122 87.8542 268.748 93.3214 268.121 95.1288C267.101 98.1087 266.353 101.174 265.886 104.288C264.74 111.641 264.839 119.193 265.399 126.598Z" fill="#048DCF"/>
<path d="M265.375 113.109C265.547 109.155 266.439 105.161 267.278 101.322C268.179 97.1888 269.231 93.2965 271.372 89.6082C271.408 89.5429 271.511 89.6082 271.478 89.6694C270.059 92.5326 268.961 95.5427 268.203 98.6454C268.347 98.421 268.518 98.2129 268.67 98.0008C268.727 97.9192 268.862 98.0008 268.805 98.0824C268.614 98.4163 268.391 98.7307 268.138 99.0208H268.113C267.376 101.975 266.848 104.998 266.398 107.997C266.43 107.955 266.464 107.916 266.5 107.878C266.521 107.854 266.562 107.878 266.545 107.915L266.365 108.213C266.136 109.743 265.927 111.269 265.715 112.783C268.449 110.457 270.782 107.711 272.1 104.329C272.1 104.329 272.133 104.329 272.125 104.329C270.835 107.834 268.801 110.955 265.67 113.08C265.618 113.488 265.56 113.896 265.498 114.304C265.498 114.39 265.35 114.366 265.354 114.284C265.354 113.925 265.354 113.562 265.387 113.203C265.376 113.19 265.369 113.174 265.367 113.158C265.365 113.141 265.367 113.124 265.375 113.109Z" fill="#263238"/>
<path d="M266.664 107.377C268.752 104.272 270.704 101.257 272.231 97.8172C272.231 97.7805 272.313 97.8172 272.301 97.8457C271.011 101.261 269.206 104.716 266.767 107.458C266.718 107.515 266.619 107.442 266.664 107.377Z" fill="#263238"/>
<path d="M269.44 97.0501C270.303 95.5242 271.216 94.0391 272.031 92.4846C272.055 92.4397 272.113 92.4846 272.096 92.5213C271.428 94.1444 270.582 95.6892 269.575 97.1277C269.564 97.1455 269.547 97.1586 269.527 97.1639C269.507 97.1693 269.486 97.1665 269.468 97.1562C269.45 97.1459 269.437 97.129 269.432 97.1091C269.427 97.0892 269.429 97.068 269.44 97.0501Z" fill="#263238"/>
<path d="M269.1 97.7158C269.119 97.7158 269.119 97.739 269.1 97.739V97.7158Z" fill="#263238"/>
<path d="M263.275 117.557C263.233 119.63 262.987 121.693 262.542 123.718C262.575 123.938 262.608 124.163 262.641 124.391C263.279 122.154 263.65 119.849 263.746 117.524C263.764 117.492 263.774 117.455 263.774 117.418C263.774 117.381 263.764 117.345 263.746 117.312C263.834 114.196 263.603 111.079 263.054 108.01C262.084 102.265 259.959 96.7491 255.94 92.4447C255.907 92.4158 255.867 92.3949 255.825 92.3836C255.782 92.3723 255.738 92.371 255.695 92.3797C255.651 92.3884 255.611 92.4068 255.576 92.4337C255.541 92.4605 255.513 92.495 255.494 92.5344C253.856 96.6471 254.438 101.551 255.821 105.656C256.574 107.876 257.648 109.975 259.01 111.886C260.397 113.832 262.154 115.464 263.275 117.557Z" fill="#048DCF"/>
<path d="M256.423 94.3577C260.234 100.523 262.886 107.822 263.209 115.113C263.209 115.239 262.997 115.276 262.976 115.145C262.886 114.488 262.788 113.84 262.681 113.195C261.101 111.694 259.484 110.102 258.355 108.221C258.352 108.214 258.352 108.206 258.355 108.199C258.357 108.191 258.362 108.185 258.368 108.18C258.375 108.175 258.382 108.173 258.39 108.173C258.398 108.173 258.406 108.176 258.412 108.181C259.783 109.743 261.06 111.343 262.612 112.738C262.338 111.126 262.014 109.543 261.629 107.981L261.331 107.63C261.265 107.552 261.376 107.438 261.441 107.516L261.535 107.618C260.999 105.478 260.333 103.373 259.542 101.314C258.572 100.159 257.495 99.1639 256.783 97.7726C256.783 97.74 256.812 97.7155 256.832 97.7441C257.401 98.5397 257.949 99.3393 258.592 100.074C258.85 100.367 259.132 100.645 259.411 100.931C258.533 98.6956 257.491 96.5286 256.292 94.4474C256.288 94.4308 256.29 94.4135 256.296 94.3978C256.302 94.382 256.313 94.3684 256.327 94.3588C256.341 94.3492 256.358 94.344 256.375 94.3438C256.392 94.3435 256.408 94.3484 256.423 94.3577Z" fill="#263238"/>
<path d="M257.192 101.962C258.42 103.615 259.828 105.19 260.974 106.899C261.007 106.948 260.933 106.997 260.893 106.96C259.423 105.585 258.179 103.696 257.11 102.011C257.061 101.958 257.155 101.913 257.192 101.962Z" fill="#263238"/>
<path d="M261.154 107.304L261.207 107.353C261.24 107.389 261.187 107.446 261.15 107.409L261.097 107.357C261.053 107.304 261.11 107.247 261.154 107.304Z" fill="#263238"/>
<path d="M250.455 106.21C250.758 109.38 252.432 113.166 254.474 115.594C255.376 116.658 256.492 117.522 257.749 118.131C259.161 118.825 260.643 119.629 262.1 120.2C262.785 121.966 263.291 123.797 263.611 125.663L263.75 125.182C262.812 117.152 257.61 110.29 250.934 105.883C250.881 105.854 250.821 105.839 250.761 105.842C250.7 105.845 250.642 105.864 250.592 105.898C250.542 105.932 250.503 105.979 250.479 106.034C250.454 106.089 250.446 106.15 250.455 106.21Z" fill="#048DCF"/>
<path d="M252.755 108.581C252.71 108.54 252.755 108.454 252.825 108.495C256.488 111.208 259.409 114.796 261.318 118.928C261.368 119.038 261.216 119.136 261.155 119.026C260.844 118.482 260.527 117.954 260.205 117.443C258.686 117.157 257.241 116.088 256.112 115.076C256.079 115.048 256.112 115.003 256.157 115.031C256.738 115.56 257.384 116.012 258.081 116.378C258.711 116.664 259.356 116.919 260.013 117.141C259.452 116.251 258.862 115.394 258.248 114.562C256.605 113.939 255.064 113.075 253.676 112C253.631 111.971 253.676 111.898 253.717 111.926C255.093 112.757 256.513 113.513 257.97 114.191C257.04 112.971 256.038 111.808 254.97 110.706C254.45 110.433 253.926 110.16 253.426 109.866C253.416 109.862 253.408 109.853 253.404 109.843C253.4 109.833 253.4 109.821 253.404 109.811C253.408 109.801 253.417 109.792 253.427 109.788C253.437 109.784 253.449 109.784 253.459 109.788C253.875 109.936 254.272 110.131 254.642 110.372C254.04 109.752 253.418 109.164 252.755 108.581Z" fill="#263238"/>
<path d="M252.898 111.351C252.988 111.408 253.074 111.469 253.156 111.535C253.181 111.559 253.156 111.588 253.124 111.575C253.029 111.533 252.939 111.483 252.853 111.425C252.808 111.384 252.853 111.323 252.898 111.351Z" fill="#263238"/>
<path d="M274.171 143.06H255.903L257.376 126.475L257.7 122.819H272.374L272.698 126.475L274.171 143.06Z" fill="#455A64"/>
<path d="M272.698 126.475H257.376L257.7 122.819H272.374L272.698 126.475Z" fill="#263238"/>
<path d="M273.25 120.262H256.828V123.881H273.25V120.262Z" fill="#455A64"/>
<path d="M20.7615 143.061L53.9461 142.959L87.1308 142.927L153.5 142.857L219.869 142.927L253.054 142.959L286.239 143.061L253.054 143.159L219.869 143.196L153.5 143.265L87.1308 143.196L53.9461 143.159L20.7615 143.061Z" fill="#263238"/>
<path d="M153.5 187.117C225.806 187.117 284.421 181.432 284.421 174.42C284.421 167.407 225.806 161.723 153.5 161.723C81.1943 161.723 22.5789 167.407 22.5789 174.42C22.5789 181.432 81.1943 187.117 153.5 187.117Z" fill="#EBEBEB"/>
<path d="M245.583 27.4053H60.7285V150.658H245.583V27.4053Z" fill="#EBEBEB"/>
<path d="M244.241 28.9062H62.0713V149.152H244.241V28.9062Z" fill="#263238"/>
<path d="M269.661 159.899H36.6516V168.357H269.661V159.899Z" fill="#DBDBDB"/>
<path d="M36.6516 159.899L60.7286 150.658H245.584L269.661 159.899H36.6516Z" fill="#EBEBEB"/>
<path d="M62.8777 156.623L78.416 150.658H227.896L243.435 156.623H62.8777Z" fill="#263238"/>
<path d="M233.946 38.0459H72.366V140.021H233.946V38.0459Z" fill="white"/>
<path d="M233.946 38.0459H72.231V41.9709H233.946V38.0459Z" fill="#455A64"/>
<path d="M75.3582 40.0043C75.359 40.1975 75.3022 40.3865 75.195 40.5475C75.0878 40.7085 74.9351 40.8341 74.7562 40.9084C74.5772 40.9827 74.3802 41.0024 74.19 40.9649C73.9999 40.9274 73.8252 40.8345 73.6881 40.6978C73.5511 40.5612 73.4578 40.3871 73.4202 40.1976C73.3826 40.008 73.4023 39.8116 73.4769 39.6333C73.5514 39.4549 73.6774 39.3027 73.8389 39.1958C74.0005 39.089 74.1902 39.0324 74.384 39.0332C74.642 39.0343 74.8892 39.1369 75.0717 39.3188C75.2541 39.5007 75.3571 39.747 75.3582 40.0043Z" fill="#C7C7C7"/>
<path d="M79.345 40.0043C79.3458 40.1975 79.289 40.3865 79.1819 40.5475C79.0747 40.7085 78.9219 40.8341 78.743 40.9084C78.5641 40.9827 78.367 41.0024 78.1769 40.9649C77.9867 40.9274 77.812 40.8345 77.675 40.6978C77.5379 40.5612 77.4446 40.3871 77.407 40.1976C77.3694 40.008 77.3891 39.8116 77.4637 39.6333C77.5382 39.4549 77.6643 39.3027 77.8258 39.1958C77.9873 39.089 78.177 39.0324 78.3708 39.0332C78.6289 39.0343 78.876 39.1369 79.0585 39.3188C79.241 39.5007 79.344 39.747 79.345 40.0043Z" fill="white"/>
<path d="M83.3321 40.0042C83.3329 40.1973 83.2762 40.3862 83.1692 40.5471C83.0622 40.708 82.9097 40.8336 82.731 40.908C82.5523 40.9825 82.3555 41.0024 82.1655 40.9652C81.9754 40.928 81.8007 40.8355 81.6635 40.6993C81.5263 40.5631 81.4327 40.3893 81.3946 40.2001C81.3565 40.0108 81.3756 39.8145 81.4496 39.6361C81.5235 39.4577 81.6489 39.3052 81.8098 39.1978C81.9708 39.0905 82.1601 39.0332 82.3538 39.0332C82.6125 39.0332 82.8608 39.1354 83.0441 39.3174C83.2275 39.4994 83.331 39.7463 83.3321 40.0042Z" fill="#048DCF"/>
<path d="M233.946 41.9668H231.077V140.017H233.946V41.9668Z" fill="#DBDBDB"/>
<path d="M232.501 75.9613C232.305 75.9613 232.116 75.8835 231.977 75.745C231.838 75.6065 231.76 75.4186 231.76 75.2228V43.2805C231.76 43.0846 231.838 42.8968 231.977 42.7583C232.116 42.6198 232.305 42.542 232.501 42.542C232.698 42.542 232.886 42.6198 233.025 42.7583C233.164 42.8968 233.242 43.0846 233.242 43.2805V75.2228C233.242 75.4186 233.164 75.6065 233.025 75.745C232.886 75.8835 232.698 75.9613 232.501 75.9613Z" fill="#A6A6A6"/>
<path d="M186.058 102.86H120.913V112.701H186.058V102.86Z" fill="white"/>
<path d="M186.169 112.812H120.802V102.751H186.169V112.812ZM121.023 112.608H185.948V102.971H121.023V112.608Z" fill="#DBDBDB"/>
<path d="M126.664 105.525C126.791 105.892 126.878 106.271 126.922 106.656C126.971 107.029 126.996 107.405 126.996 107.782C126.995 108.158 126.972 108.534 126.926 108.908C126.88 109.291 126.792 109.669 126.664 110.034C126.536 109.669 126.448 109.291 126.402 108.908C126.357 108.534 126.333 108.158 126.333 107.782C126.333 107.405 126.357 107.029 126.406 106.656C126.45 106.271 126.537 105.892 126.664 105.525Z" fill="#37474F"/>
<path d="M128.94 107.782C128.574 107.908 128.195 107.994 127.81 108.039C127.435 108.085 127.058 108.11 126.68 108.112C126.303 108.112 125.925 108.088 125.551 108.039C125.166 107.994 124.787 107.908 124.421 107.782C124.787 107.654 125.166 107.567 125.551 107.521C126.301 107.428 127.06 107.428 127.81 107.521C128.195 107.567 128.574 107.654 128.94 107.782Z" fill="#37474F"/>
<path d="M128.264 106.186C128.093 106.533 127.886 106.861 127.646 107.165C127.415 107.463 127.165 107.747 126.897 108.013C126.63 108.279 126.347 108.529 126.05 108.76C125.745 108.999 125.414 109.205 125.063 109.372C125.233 109.024 125.44 108.696 125.682 108.393C125.913 108.095 126.163 107.813 126.431 107.548C126.696 107.279 126.98 107.03 127.282 106.802C127.585 106.56 127.915 106.354 128.264 106.186Z" fill="#37474F"/>
<path d="M128.264 109.372C127.915 109.205 127.585 109 127.282 108.76C126.982 108.53 126.698 108.28 126.431 108.013C126.162 107.748 125.911 107.464 125.682 107.165C125.44 106.862 125.233 106.533 125.063 106.186C125.414 106.353 125.745 106.558 126.05 106.798C126.347 107.029 126.629 107.28 126.893 107.548C127.16 107.814 127.41 108.096 127.642 108.393C127.883 108.697 128.091 109.025 128.264 109.372Z" fill="#37474F"/>
<path d="M135.489 105.525C135.617 105.891 135.705 106.27 135.751 106.656C135.844 107.403 135.844 108.16 135.751 108.908C135.707 109.292 135.619 109.67 135.489 110.034C135.363 109.669 135.276 109.291 135.231 108.908C135.182 108.534 135.158 108.158 135.162 107.782C135.16 107.405 135.184 107.029 135.231 106.656C135.278 106.271 135.364 105.892 135.489 105.525Z" fill="#37474F"/>
<path d="M137.741 107.781C137.374 107.907 136.996 107.994 136.611 108.038C136.239 108.088 135.864 108.115 135.489 108.12C135.111 108.12 134.734 108.095 134.359 108.047C133.975 108.002 133.596 107.916 133.23 107.789C133.596 107.662 133.975 107.574 134.359 107.528C135.111 107.436 135.871 107.436 136.623 107.528C137.004 107.573 137.378 107.658 137.741 107.781Z" fill="#37474F"/>
<path d="M137.078 106.186C136.909 106.533 136.703 106.862 136.464 107.165C136 107.762 135.463 108.298 134.863 108.76C134.559 108.999 134.229 109.204 133.881 109.372C134.049 109.024 134.255 108.696 134.495 108.393C134.727 108.096 134.977 107.814 135.244 107.548C135.509 107.279 135.793 107.03 136.095 106.802C136.399 106.561 136.728 106.355 137.078 106.186Z" fill="#37474F"/>
<path d="M137.078 109.372C136.729 109.204 136.399 108.999 136.095 108.76C135.496 108.298 134.958 107.762 134.495 107.165C134.255 106.862 134.049 106.533 133.881 106.186C134.229 106.353 134.559 106.559 134.863 106.798C135.164 107.028 135.448 107.279 135.714 107.548C135.981 107.814 136.231 108.096 136.464 108.393C136.703 108.697 136.908 109.025 137.078 109.372Z" fill="#37474F"/>
<path d="M144.294 105.525C144.421 105.892 144.508 106.271 144.552 106.656C144.601 107.029 144.626 107.405 144.626 107.782C144.625 108.158 144.602 108.534 144.556 108.908C144.51 109.291 144.422 109.669 144.294 110.034C144.166 109.669 144.078 109.291 144.032 108.908C143.937 108.16 143.937 107.403 144.032 106.656C144.076 106.27 144.164 105.891 144.294 105.525Z" fill="#37474F"/>
<path d="M146.541 107.782C146.175 107.908 145.796 107.994 145.411 108.039C145.037 108.085 144.659 108.11 144.282 108.112C143.904 108.112 143.527 108.088 143.152 108.039C142.767 107.994 142.388 107.908 142.022 107.782C142.388 107.654 142.767 107.567 143.152 107.521C143.902 107.428 144.661 107.428 145.411 107.521C145.796 107.567 146.175 107.654 146.541 107.782Z" fill="#37474F"/>
<path d="M145.895 106.186C145.724 106.533 145.516 106.861 145.276 107.165C145.045 107.463 144.795 107.747 144.527 108.013C144.261 108.279 143.978 108.529 143.68 108.76C143.375 108.999 143.044 109.205 142.694 109.372C142.863 109.024 143.07 108.696 143.312 108.393C143.543 108.095 143.793 107.813 144.061 107.548C144.326 107.28 144.609 107.031 144.908 106.802C145.213 106.561 145.544 106.355 145.895 106.186Z" fill="#37474F"/>
<path d="M145.895 109.372C145.544 109.205 145.214 108.999 144.908 108.76C144.611 108.529 144.328 108.279 144.061 108.013C143.792 107.748 143.542 107.464 143.312 107.165C143.07 106.862 142.863 106.533 142.694 106.186C143.044 106.353 143.375 106.558 143.68 106.798C143.979 107.029 144.262 107.28 144.527 107.548C144.794 107.814 145.044 108.096 145.276 108.393C145.515 108.697 145.723 109.026 145.895 109.372Z" fill="#37474F"/>
<path d="M153.09 105.525C153.219 105.891 153.307 106.27 153.352 106.656C153.445 107.403 153.445 108.16 153.352 108.908C153.308 109.292 153.22 109.67 153.09 110.034C152.964 109.669 152.877 109.291 152.833 108.908C152.783 108.534 152.76 108.158 152.763 107.782C152.762 107.405 152.785 107.029 152.833 106.656C152.879 106.271 152.965 105.892 153.09 105.525Z" fill="#37474F"/>
<path d="M155.371 107.781C155.004 107.907 154.626 107.994 154.241 108.038C153.859 108.089 153.475 108.116 153.091 108.12C152.713 108.12 152.335 108.095 151.961 108.047C151.576 108.002 151.197 107.916 150.831 107.789C151.197 107.662 151.576 107.574 151.961 107.528C152.712 107.436 153.473 107.436 154.224 107.528C154.615 107.571 154.999 107.656 155.371 107.781Z" fill="#37474F"/>
<path d="M154.728 106.186C154.56 106.533 154.354 106.862 154.114 107.165C153.651 107.762 153.113 108.298 152.513 108.76C152.209 108.999 151.88 109.204 151.531 109.372C151.699 109.024 151.905 108.696 152.145 108.393C152.377 108.096 152.627 107.814 152.894 107.548C153.159 107.279 153.444 107.03 153.746 106.802C154.049 106.561 154.379 106.355 154.728 106.186Z" fill="#37474F"/>
<path d="M154.728 109.372C154.379 109.204 154.05 108.999 153.746 108.76C153.146 108.298 152.608 107.762 152.145 107.165C151.905 106.862 151.699 106.533 151.531 106.186C151.88 106.353 152.209 106.559 152.513 106.798C152.814 107.028 153.099 107.279 153.365 107.548C153.632 107.814 153.882 108.096 154.114 108.393C154.353 108.697 154.559 109.025 154.728 109.372Z" fill="#37474F"/>
<path d="M161.924 105.525C162.051 105.892 162.137 106.271 162.182 106.656C162.28 107.403 162.28 108.16 162.182 108.908C162.139 109.292 162.052 109.669 161.924 110.034C161.796 109.669 161.708 109.291 161.662 108.908C161.614 108.534 161.591 108.158 161.592 107.782C161.593 107.405 161.616 107.029 161.662 106.656C161.708 106.27 161.796 105.891 161.924 105.525Z" fill="#37474F"/>
<path d="M164.184 107.782C163.817 107.908 163.439 107.994 163.054 108.039C162.679 108.085 162.302 108.11 161.924 108.112C161.546 108.112 161.169 108.088 160.794 108.039C160.408 107.994 160.028 107.907 159.66 107.782C160.028 107.655 160.408 107.567 160.794 107.521C161.545 107.428 162.303 107.428 163.054 107.521C163.439 107.567 163.817 107.654 164.184 107.782Z" fill="#37474F"/>
<path d="M163.52 106.186C163.352 106.533 163.146 106.862 162.906 107.165C162.675 107.463 162.425 107.747 162.157 108.013C161.89 108.279 161.607 108.529 161.31 108.76C161.005 108.999 160.674 109.205 160.323 109.372C160.493 109.024 160.7 108.696 160.942 108.393C161.406 107.799 161.942 107.265 162.538 106.802C162.843 106.562 163.172 106.356 163.52 106.186Z" fill="#37474F"/>
<path d="M163.52 109.372C163.172 109.203 162.843 108.998 162.538 108.76C162.24 108.529 161.958 108.279 161.691 108.013C161.421 107.749 161.17 107.465 160.942 107.165C160.7 106.862 160.493 106.533 160.323 106.186C160.674 106.353 161.005 106.558 161.31 106.798C161.608 107.029 161.892 107.28 162.157 107.548C162.424 107.814 162.674 108.096 162.906 108.393C163.145 108.697 163.351 109.025 163.52 109.372Z" fill="#37474F"/>
<path d="M170.737 105.525C170.865 105.891 170.953 106.27 170.999 106.656C171.092 107.403 171.092 108.16 170.999 108.908C170.953 109.291 170.865 109.669 170.737 110.034C170.61 109.669 170.524 109.291 170.479 108.908C170.43 108.534 170.405 108.158 170.405 107.782C170.407 107.405 170.432 107.029 170.479 106.656C170.523 106.271 170.61 105.892 170.737 105.525Z" fill="#37474F"/>
<path d="M173.001 107.782C172.635 107.908 172.256 107.994 171.871 108.039C171.495 108.085 171.116 108.11 170.737 108.112C170.359 108.112 169.982 108.088 169.607 108.039C169.222 107.994 168.844 107.908 168.478 107.782C168.844 107.654 169.222 107.567 169.607 107.521C169.982 107.473 170.359 107.45 170.737 107.451C171.116 107.45 171.495 107.473 171.871 107.521C172.256 107.567 172.635 107.654 173.001 107.782Z" fill="#37474F"/>
<path d="M172.329 106.186C172.16 106.533 171.952 106.862 171.711 107.165C171.482 107.465 171.232 107.749 170.962 108.013C170.695 108.279 170.412 108.529 170.115 108.76C169.811 108.999 169.481 109.204 169.132 109.372C169.301 109.024 169.507 108.696 169.746 108.393C169.978 108.096 170.229 107.814 170.495 107.548C170.761 107.279 171.045 107.03 171.347 106.802C171.651 106.561 171.98 106.355 172.329 106.186Z" fill="#37474F"/>
<path d="M172.329 109.372C171.98 109.204 171.651 108.999 171.347 108.76C170.747 108.298 170.209 107.762 169.746 107.165C169.507 106.862 169.301 106.533 169.132 106.186C169.481 106.353 169.811 106.559 170.115 106.798C170.413 107.029 170.696 107.28 170.962 107.548C171.231 107.812 171.481 108.094 171.711 108.393C171.951 108.696 172.159 109.025 172.329 109.372Z" fill="#37474F"/>
<path d="M161.662 94.6067C158.792 96.3289 155.449 97.1011 152.112 96.8124C148.774 96.5238 145.615 95.1892 143.085 93C140.556 90.8108 138.787 87.8794 138.033 84.6264C137.278 81.3733 137.576 77.9656 138.885 74.8919C140.193 71.8182 142.445 69.2365 145.316 67.517C148.187 65.7975 151.531 65.0285 154.868 65.3203C158.205 65.612 161.364 66.9497 163.891 69.1412C166.418 71.3328 168.184 74.2658 168.936 77.5196C169.706 80.7686 169.416 84.1777 168.107 87.2509C166.799 90.3241 164.541 92.901 161.662 94.6067Z" fill="#455A64"/>
<path d="M158.33 79.311C158.319 80.2624 158.026 81.1894 157.487 81.9746C156.947 82.7598 156.187 83.368 155.301 83.7222C154.415 84.0764 153.443 84.1607 152.509 83.9645C151.575 83.7683 150.72 83.3003 150.053 82.6198C149.386 81.9393 148.936 81.0768 148.76 80.1415C148.585 79.2062 148.692 78.24 149.067 77.3652C149.443 76.4904 150.07 75.7462 150.87 75.2269C151.67 74.7076 152.607 74.4364 153.561 74.4476C154.841 74.4627 156.061 74.9834 156.956 75.8954C157.85 76.8073 158.344 78.0359 158.33 79.311Z" fill="white"/>
<path d="M161.687 92.6155L161.666 94.6025C159.141 96.1147 156.243 96.8965 153.297 96.8605C150.351 96.8244 147.473 95.972 144.986 94.3985L145.01 92.4197C145.036 90.2155 145.94 88.1119 147.522 86.5716C149.104 85.0314 151.235 84.1807 153.447 84.2066C155.658 84.2326 157.769 85.1331 159.314 86.7101C160.859 88.2871 161.713 90.4113 161.687 92.6155Z" fill="white"/>
<path d="M167.053 88.8421C167.109 96.7072 166.375 104.558 164.863 112.278C164.11 116.142 162.964 119.919 161.441 123.551C160.679 125.372 159.68 127.085 158.469 128.647C157.86 129.433 157.132 130.121 156.312 130.687C155.494 131.278 154.509 131.597 153.498 131.597C152.487 131.597 151.502 131.278 150.684 130.687C149.86 130.122 149.128 129.434 148.514 128.647C147.298 127.087 146.292 125.375 145.522 123.555C143.988 119.924 142.829 116.147 142.063 112.282C140.521 104.56 139.761 96.7031 139.796 88.8298C139.762 80.9552 140.521 73.0972 142.063 65.3739C142.829 61.5088 143.988 57.7316 145.522 54.1009C146.293 52.2823 147.299 50.5719 148.514 49.0131C149.127 48.2264 149.857 47.5383 150.68 46.9731C151.499 46.3818 152.485 46.0635 153.496 46.0635C154.507 46.0635 155.493 46.3818 156.312 46.9731C157.132 47.5388 157.859 48.2269 158.469 49.0131C159.681 50.5725 160.68 52.2846 161.441 54.105C162.964 57.7368 164.11 61.5141 164.863 65.378C166.379 73.1066 167.113 80.9674 167.053 88.8421ZM167.053 88.8421C167.085 80.9786 166.326 73.1317 164.789 65.4188C164.025 61.5645 162.868 57.7981 161.335 54.1784C160.572 52.37 159.574 50.6691 158.367 49.1192C157.762 48.3509 157.043 47.6794 156.234 47.1282C155.44 46.5527 154.484 46.2427 153.502 46.2427C152.52 46.2427 151.564 46.5527 150.77 47.1282C149.965 47.6812 149.25 48.354 148.649 49.1233C147.449 50.6747 146.457 52.3754 145.698 54.1825C144.181 57.8054 143.038 61.573 142.288 65.427C140.776 73.1368 140.042 80.9783 140.098 88.8339C140.043 96.6896 140.776 104.531 142.288 112.241C143.038 116.094 144.18 119.86 145.698 123.481C146.455 125.289 147.448 126.99 148.649 128.54C149.251 129.31 149.966 129.984 150.77 130.54C151.564 131.115 152.52 131.425 153.502 131.425C154.484 131.425 155.44 131.115 156.234 130.54C157.043 129.987 157.762 129.314 158.367 128.545C159.575 126.997 160.573 125.297 161.335 123.489C162.867 119.87 164.025 116.103 164.789 112.249C166.325 104.541 167.084 96.7001 167.053 88.8421Z" fill="#048DCF"/>
<path d="M160.279 77.1404C167.141 81.025 173.595 85.5847 179.546 90.7513C182.525 93.3267 185.234 96.1975 187.63 99.3193C188.831 100.893 189.819 102.617 190.569 104.448C190.943 105.366 191.174 106.336 191.253 107.324C191.336 108.325 191.124 109.327 190.643 110.209C190.118 111.068 189.354 111.757 188.445 112.192C187.547 112.62 186.589 112.909 185.604 113.049C183.641 113.32 181.651 113.332 179.685 113.085C175.762 112.596 171.9 111.709 168.158 110.437C160.68 107.903 153.474 104.631 146.648 100.67C139.793 96.7595 133.348 92.1752 127.409 86.9855C124.436 84.3904 121.735 81.5005 119.349 78.3604C118.152 76.7861 117.168 75.0618 116.423 73.2318C116.05 72.3105 115.82 71.3377 115.743 70.3472C115.64 69.3445 115.858 68.3351 116.365 67.4632C116.873 66.5912 117.643 65.9014 118.567 65.492C119.465 65.0649 120.423 64.7786 121.408 64.6434C123.37 64.3845 125.357 64.3845 127.319 64.6434C131.233 65.144 135.086 66.0408 138.817 67.3199C146.282 69.8712 153.472 73.1611 160.279 77.1404ZM160.279 77.1404C153.461 73.1823 146.263 69.9142 138.793 67.3852C135.062 66.119 131.213 65.2346 127.303 64.7454C125.35 64.4985 123.374 64.5108 121.425 64.7821C120.455 64.9192 119.513 65.2026 118.629 65.6226C117.733 66.0224 116.987 66.6943 116.498 67.5421C116.008 68.3899 115.8 69.3703 115.903 70.3432C115.982 71.3157 116.21 72.2706 116.578 73.1747C117.324 74.9873 118.307 76.6938 119.501 78.2502C121.887 81.3724 124.588 84.2434 127.561 86.8182C133.503 91.9778 139.948 96.532 146.799 100.413C153.598 104.389 160.78 107.676 168.236 110.225C171.955 111.504 175.795 112.399 179.697 112.898C181.645 113.157 183.619 113.157 185.567 112.898C186.535 112.768 187.478 112.493 188.363 112.082C189.261 111.686 190.009 111.016 190.501 110.169C190.993 109.323 191.203 108.342 191.101 107.369C191.026 106.395 190.801 105.439 190.434 104.534C189.694 102.716 188.717 101.004 187.528 99.4417C185.149 96.3096 182.455 93.4278 179.489 90.8411C173.56 85.6468 167.124 81.0571 160.279 77.1404Z" fill="#048DCF"/>
<path d="M146.721 77.141C153.529 73.1624 160.718 69.8725 168.183 67.3204C171.919 66.0361 175.777 65.1352 179.697 64.6317C181.659 64.3728 183.646 64.3728 185.608 64.6317C186.592 64.7707 187.55 65.0568 188.449 65.4803C189.373 65.8896 190.144 66.5795 190.651 67.4515C191.158 68.3234 191.376 69.3328 191.273 70.3355C191.196 71.326 190.967 72.2988 190.594 73.2201C189.848 75.0501 188.864 76.7744 187.667 78.3486C185.282 81.4884 182.581 84.3771 179.607 86.9697C173.668 92.1598 167.223 96.7454 160.369 100.658C153.545 104.624 146.338 107.896 138.858 110.426C135.108 111.705 131.236 112.598 127.303 113.09C125.337 113.337 123.346 113.324 121.384 113.053C120.399 112.913 119.441 112.624 118.543 112.196C117.633 111.761 116.87 111.072 116.345 110.213C115.863 109.332 115.651 108.329 115.735 107.329C115.814 106.341 116.045 105.371 116.418 104.452C117.169 102.627 118.157 100.908 119.357 99.3402C121.754 96.2184 124.463 93.3477 127.442 90.7722C133.395 85.5979 139.854 81.0313 146.721 77.141ZM146.721 77.141C139.874 81.0468 133.436 85.6256 127.503 90.809C124.537 93.3957 121.843 96.2775 119.464 99.4096C118.275 100.972 117.298 102.684 116.558 104.501C116.19 105.407 115.965 106.363 115.89 107.337C115.788 108.31 115.998 109.291 116.49 110.137C116.982 110.984 117.731 111.654 118.629 112.049C119.514 112.461 120.457 112.736 121.425 112.865C123.373 113.125 125.346 113.125 127.294 112.865C131.197 112.368 135.038 111.471 138.756 110.189C146.211 107.648 153.391 104.368 160.188 100.397C167.039 96.5162 173.484 91.9635 179.427 86.8065C182.402 84.2326 185.104 81.3616 187.491 78.2385C188.683 76.6816 189.664 74.9751 190.41 73.163C190.778 72.2588 191.006 71.304 191.085 70.3314C191.188 69.3586 190.98 68.3782 190.49 67.5304C190 66.6826 189.254 66.0107 188.359 65.6109C187.476 65.1891 186.533 64.9056 185.563 64.7704C183.614 64.4991 181.637 64.4868 179.685 64.7337C175.774 65.2226 171.922 66.1071 168.191 67.3734C160.725 69.9057 153.532 73.1779 146.721 77.141Z" fill="#048DCF"/>
<path d="M180.135 74.2558C180.135 74.2558 176.246 102.351 169.849 108.671C162.174 116.28 156.603 115.15 153.5 119.058C150.401 115.142 144.83 116.255 137.147 108.667C130.749 102.355 126.865 74.2558 126.865 74.2558C143.713 66.8833 153.5 58.6172 153.5 58.6172C153.803 58.8742 163.545 67.0016 180.135 74.2558Z" fill="#048DCF"/>
<path opacity="0.1" d="M153.5 58.6213V119.058C150.401 115.142 144.83 116.255 137.147 108.667C130.749 102.355 126.865 74.2558 126.865 74.2558C143.713 66.8833 153.5 58.6172 153.5 58.6172V58.6213Z" fill="black"/>
<path d="M176.013 76.5249C176.013 76.5249 172.739 100.254 167.327 105.599C160.835 112.013 156.128 111.07 153.508 114.375C150.888 111.07 146.181 112.013 139.689 105.599C134.261 100.254 130.987 76.5249 130.987 76.5249C145.219 70.2906 153.5 63.3057 153.5 63.3057C153.5 63.3057 161.768 70.2906 176.013 76.5249Z" fill="#048DCF"/>
<path opacity="0.1" d="M176.013 76.5245C176.013 76.5245 172.739 100.254 167.327 105.599C160.843 112.008 156.136 111.074 153.516 114.367V63.3135C153.754 63.5256 161.99 70.3882 176.013 76.5245Z" fill="black"/>
<path d="M155.608 86.9657L157.691 96.823H148.846L150.929 86.9657C150.113 86.4591 149.485 85.7013 149.139 84.8071C148.794 83.9128 148.75 82.9308 149.014 82.0094C149.279 81.0881 149.837 80.2776 150.604 79.7006C151.372 79.1236 152.307 78.8115 153.269 78.8115C154.23 78.8115 155.165 79.1236 155.933 79.7006C156.701 80.2776 157.259 81.0881 157.523 82.0094C157.787 82.9308 157.743 83.9128 157.398 84.8071C157.052 85.7013 156.424 86.4591 155.608 86.9657Z" fill="#263238"/>
<path d="M73.4302 151.103C73.4302 151.103 66.1809 165.444 66.1728 165.452C64.7728 168.19 63.594 170.609 63.1028 171.919C63.101 171.927 63.101 171.935 63.1028 171.943C62.952 172.236 62.8734 172.561 62.8735 172.89C62.8735 172.89 62.8735 172.91 62.8735 172.914C63.4098 173.881 85.0103 185.676 85.9026 185.836C86.795 185.995 87.3189 183.473 86.8482 182.347C86.3775 181.221 80.1269 173.02 80.1269 173.02L87.2371 158.618L73.4302 151.103Z" fill="#EB9481"/>
<path d="M67.6627 162.511C67.6627 162.511 66.1809 165.444 66.1728 165.452C64.7728 168.19 63.594 170.61 63.1028 171.919C63.101 171.927 63.101 171.936 63.1028 171.944C62.989 172.249 62.9121 172.567 62.8735 172.89C62.8735 172.89 62.8735 172.911 62.8735 172.915C63.4098 173.882 85.0103 185.677 85.9026 185.836C86.795 185.995 87.3189 183.474 86.8482 182.348C86.3775 181.222 80.1269 173.021 80.1269 173.021L81.6783 170.051L67.6627 162.511Z" fill="white"/>
<path d="M81.4573 173.714C80.1229 172.727 78.2195 172.082 76.5862 172.576C76.5207 172.576 76.5494 172.686 76.5862 172.694C78.2112 172.931 79.8059 173.341 81.3427 173.918C81.3561 173.926 81.3709 173.931 81.3862 173.932C81.4015 173.934 81.417 173.933 81.4318 173.929C81.4466 173.925 81.4605 173.918 81.4726 173.908C81.4847 173.899 81.4948 173.887 81.5023 173.873C81.5098 173.86 81.5146 173.845 81.5165 173.83C81.5183 173.815 81.517 173.799 81.5129 173.785C81.5087 173.77 81.5016 173.756 81.4921 173.744C81.4825 173.732 81.4707 173.722 81.4573 173.714Z" fill="#263238"/>
<path d="M82.2105 174.864C80.876 173.881 78.9685 173.232 77.3394 173.726C77.2739 173.746 77.3026 173.836 77.3394 173.844C78.9642 174.082 80.5588 174.492 82.0958 175.068C82.1093 175.076 82.1241 175.081 82.1394 175.082C82.1547 175.084 82.1702 175.083 82.185 175.079C82.1998 175.075 82.2137 175.068 82.2258 175.058C82.2379 175.049 82.248 175.037 82.2555 175.023C82.263 175.01 82.2678 174.995 82.2696 174.98C82.2714 174.965 82.2702 174.949 82.266 174.934C82.2619 174.92 82.2548 174.906 82.2453 174.894C82.2357 174.882 82.2239 174.872 82.2105 174.864Z" fill="#263238"/>
<path d="M82.9596 176.019C81.6252 175.032 79.7177 174.387 78.0845 174.881C78.0231 174.881 78.0517 174.987 78.1049 174.995C79.729 175.226 81.3235 175.629 82.8614 176.199C82.8852 176.212 82.9133 176.215 82.9394 176.207C82.9655 176.199 82.9875 176.182 83.0005 176.158C83.0136 176.134 83.0166 176.106 83.0089 176.08C83.0012 176.054 82.9835 176.032 82.9596 176.019Z" fill="#263238"/>
<path d="M85.8987 185.836C85.0063 185.677 63.4058 173.886 62.8696 172.915C62.6608 172.552 64.1999 169.312 66.177 165.452L66.2384 165.334L80.2581 172.788L80.123 173.021C80.123 173.021 86.3653 181.222 86.8442 182.348C87.3231 183.474 86.7787 185.999 85.8987 185.836Z" fill="#048DCF"/>
<path d="M86.1155 184.869C82.5216 182.792 67.8388 174.751 64.1261 172.972C64.0975 172.972 64.0852 172.972 64.1261 172.992C67.6423 175.13 82.3947 183.049 86.0951 184.93C86.1606 184.967 86.1892 184.914 86.1155 184.869Z" fill="#263238"/>
<path d="M83.5041 168.3C83.676 168.219 93.0988 150.597 96.6396 141.637C100.18 132.678 104.691 113.514 105.575 109.589C105.575 109.589 108.4 100.894 109.239 93.4893H90.1762C90.1762 93.4893 87.0407 101.119 87.757 111.768C87.8021 112.425 82.1287 134.318 80.5241 137.231C78.0681 141.69 67.9453 159.797 67.6301 159.961L83.5041 168.3Z" fill="#455A64"/>
<path d="M101.72 99.3025C100.717 103.611 99.8448 107.952 98.9238 112.277C98.0028 116.602 97.0777 120.971 96.1526 125.333C95.6982 127.475 95.2561 129.625 94.7813 131.763C94.3346 133.872 93.7116 135.939 92.9188 137.944C92.1002 139.923 91.1833 141.857 90.2705 143.787C89.3576 145.717 88.4203 147.667 87.4747 149.597C85.5645 153.475 83.6092 157.327 81.609 161.151C81.3634 161.624 81.1137 162.094 80.864 162.563C80.8435 162.6 80.8967 162.632 80.9172 162.596C83.0375 158.834 85.0924 155.031 87.0572 151.172C89.022 147.312 90.9336 143.464 92.6855 139.527C93.5576 137.582 94.2575 135.564 94.7772 133.497C95.2971 131.392 95.7064 129.254 96.1526 127.128L98.891 114.011C99.7997 109.658 100.713 105.308 101.601 100.955C101.711 100.416 101.818 99.8818 101.92 99.3229C101.924 99.2249 101.748 99.176 101.72 99.3025Z" fill="#263238"/>
<path d="M69.9961 157.585C70.4055 157.745 70.8475 157.993 71.261 158.189C71.6744 158.385 72.1861 158.654 72.6527 158.879C73.5532 159.311 74.4497 159.756 75.342 160.213C77.1349 161.123 78.9155 162.077 80.6633 163.069L82.1042 163.885C82.6159 164.179 83.1112 164.501 83.6351 164.774C83.676 164.774 83.6351 164.844 83.6105 164.823C82.7141 164.346 81.7644 163.946 80.8516 163.501C79.9388 163.057 79.0588 162.616 78.1705 162.163C76.3776 161.245 74.597 160.286 72.8492 159.279C72.3662 159.001 71.879 158.736 71.4001 158.463C71.1422 158.316 70.8885 158.165 70.6347 158.014C70.3985 157.89 70.1689 157.754 69.947 157.606C69.9061 157.618 69.9388 157.569 69.9961 157.585Z" fill="#263238"/>
<path d="M101.331 161.857C101.331 161.857 101.466 177.912 101.466 177.924C101.466 180.993 101.539 183.685 101.703 185.077C101.701 185.083 101.701 185.091 101.703 185.097C101.703 185.427 101.779 185.752 101.924 186.048C102.845 186.664 127.467 187.304 128.334 187.035C129.202 186.766 128.506 184.289 127.573 183.506C126.64 182.723 117.344 178.296 117.344 178.296L117.069 162.241L101.331 161.857Z" fill="#EB9481"/>
<path d="M101.437 174.624C101.437 174.624 101.466 177.908 101.466 177.921C101.466 180.989 101.539 183.682 101.703 185.073C101.701 185.079 101.701 185.087 101.703 185.093C101.739 185.419 101.813 185.74 101.924 186.048C102.845 186.664 127.467 187.305 128.334 187.035C129.202 186.766 128.506 184.29 127.573 183.506C126.64 182.723 117.344 178.296 117.344 178.296V174.946L101.437 174.624Z" fill="white"/>
<path d="M118.85 178.296C117.213 178.027 115.219 178.316 113.995 179.52C113.95 179.565 114.016 179.634 114.069 179.614C115.619 179.079 117.222 178.711 118.85 178.516C118.879 178.516 118.907 178.505 118.928 178.484C118.949 178.463 118.96 178.435 118.96 178.406C118.96 178.377 118.949 178.349 118.928 178.328C118.907 178.308 118.879 178.296 118.85 178.296Z" fill="#263238"/>
<path d="M120.045 178.981C118.408 178.712 116.414 179.006 115.191 180.205C115.141 180.25 115.191 180.315 115.26 180.299C116.811 179.762 118.415 179.394 120.045 179.201C120.075 179.201 120.103 179.19 120.123 179.169C120.144 179.148 120.156 179.12 120.156 179.091C120.156 179.062 120.144 179.034 120.123 179.013C120.103 178.993 120.075 178.981 120.045 178.981Z" fill="#263238"/>
<path d="M121.241 179.667C119.603 179.398 117.61 179.687 116.386 180.891C116.337 180.936 116.386 181.005 116.455 180.985C118.005 180.45 119.608 180.082 121.236 179.887C121.266 179.888 121.294 179.877 121.315 179.857C121.336 179.836 121.348 179.808 121.349 179.779C121.35 179.75 121.338 179.722 121.318 179.701C121.298 179.68 121.27 179.668 121.241 179.667Z" fill="#263238"/>
<path d="M128.363 187.056C127.495 187.321 102.874 186.684 101.953 186.064C101.601 185.836 101.482 182.253 101.466 177.904V177.77L117.352 178.002V178.271C117.352 178.271 126.668 182.715 127.61 183.502C128.551 184.289 129.231 186.79 128.363 187.056Z" fill="#048DCF"/>
<path d="M128.121 186.096C123.975 185.884 107.225 185.431 103.107 185.541C103.074 185.541 103.074 185.566 103.107 185.566C107.2 185.864 123.983 186.182 128.121 186.162C128.195 186.162 128.195 186.1 128.121 186.096Z" fill="#263238"/>
<path d="M98.4162 110.486C98.4162 110.486 101.13 137.042 101.175 137.667C101.175 137.916 100.811 172.726 100.811 172.726L117.663 173.203C117.663 173.203 117.806 140.645 117.532 136.891C117.499 136.455 115.866 108.768 110.639 93.4844H90.688C90.688 93.4844 90.864 102.46 94.9614 108.956C96.1409 109.401 97.2943 109.912 98.4162 110.486Z" fill="#455A64"/>
<path d="M113.214 140.641C113.136 135.745 112.931 130.825 112.546 125.929C112.162 121.033 111.56 116.259 110.766 111.461C110.006 106.63 108.947 101.85 107.598 97.1482C107.422 96.5607 107.246 95.9732 107.065 95.3857C107.058 95.3725 107.047 95.3622 107.033 95.3565C107.019 95.3508 107.003 95.35 106.989 95.3543C106.975 95.3586 106.962 95.3677 106.954 95.3801C106.945 95.3925 106.941 95.4075 106.943 95.4224C108.212 100.131 109.309 104.876 110.14 109.678C110.97 114.48 111.519 119.372 111.932 124.248C112.346 129.123 112.583 134.04 112.706 138.936C112.829 143.832 112.841 148.728 112.792 153.624C112.743 158.52 112.555 160.429 112.538 165.325C112.538 165.941 112.538 166.549 112.518 167.165C112.518 167.21 112.583 167.206 112.583 167.165C112.673 164.717 112.821 162.269 112.903 159.793C112.984 157.316 113.058 157.855 113.115 155.39C113.23 150.498 113.291 145.57 113.214 140.641Z" fill="#263238"/>
<path d="M101.081 111.706C100.098 111.171 99.0955 110.69 98.0681 110.253C97.0406 109.817 95.9846 109.417 94.9612 108.96C94.9203 108.96 94.8875 109.001 94.9285 109.021C95.9354 109.539 96.9219 110.094 97.9412 110.584C98.943 111.063 99.977 111.472 101.036 111.808C101.105 111.836 101.138 111.738 101.081 111.706Z" fill="#263238"/>
<path d="M99.8406 122.294C99.5909 119.789 99.3207 117.288 99.0219 114.791C98.9318 114.085 98.8418 113.379 98.7476 112.678C98.679 111.998 98.5669 111.323 98.412 110.658C98.412 110.621 98.3506 110.633 98.3506 110.658C98.354 111.299 98.3964 111.939 98.4775 112.576C98.5389 113.179 98.5921 113.8 98.6535 114.387C98.7722 115.611 98.8827 116.872 99.0096 118.112C99.2634 120.601 99.4844 123.09 99.7382 125.574C99.8856 126.99 100.017 128.402 100.221 129.809C100.221 129.831 100.23 129.852 100.245 129.867C100.261 129.882 100.281 129.891 100.303 129.891C100.325 129.891 100.346 129.882 100.361 129.867C100.376 129.852 100.385 129.831 100.385 129.809C100.328 127.296 100.086 124.791 99.8406 122.294Z" fill="#263238"/>
<path d="M101.957 169.32C102.407 169.279 102.898 169.32 103.357 169.32C103.877 169.32 104.396 169.34 104.916 169.34C105.915 169.34 106.915 169.351 107.917 169.373C109.931 169.418 111.949 169.508 113.958 169.65L115.62 169.773C116.21 169.818 116.799 169.891 117.389 169.911C117.434 169.911 117.43 169.969 117.389 169.965C116.373 169.924 115.342 169.965 114.331 169.965C113.32 169.965 112.329 169.94 111.33 169.916C109.317 169.867 107.294 169.773 105.289 169.622C104.732 169.577 104.179 169.548 103.627 169.512L102.743 169.438C102.477 169.418 102.215 169.438 101.953 169.385C101.924 169.365 101.924 169.32 101.957 169.32Z" fill="#263238"/>
<path d="M102.866 73.5703C103.709 76.4263 108.187 85.0392 112.755 86.2183C116.848 87.2669 127.9 77.9196 130.93 73.2439C131.998 71.6119 123.709 69.5719 121.994 70.037C120.52 70.445 114.085 76.973 113.517 76.7649C112.555 76.3977 110.311 74.4271 106.664 71.3549C103.234 68.4581 102.272 71.5589 102.866 73.5703Z" fill="#EB9481"/>
<path d="M120.008 70.8529L130.213 75.1328C130.213 75.1328 118.592 87.8135 112.64 86.5854C111.269 86.3039 105.236 81.6568 102.776 74.4025C102.014 72.1544 102.153 67.4665 107.254 71.6281C112.354 75.7897 113.414 76.4058 113.615 76.3854C113.815 76.365 120.008 70.8529 120.008 70.8529Z" fill="#A6A6A6"/>
<path d="M128.121 76.6342C127.368 76.1936 126.55 75.8509 125.76 75.4878C124.97 75.1247 124.2 74.7738 123.418 74.4229C121.834 73.7171 120.258 72.9663 118.633 72.3829C118.626 72.381 118.618 72.3817 118.611 72.3848C118.604 72.3878 118.599 72.3932 118.595 72.3999C118.592 72.4066 118.591 72.4142 118.593 72.4215C118.594 72.4288 118.599 72.4354 118.604 72.44C120.123 73.305 121.736 74.0149 123.328 74.737C124.122 75.0961 124.923 75.447 125.731 75.7897C126.503 76.1413 127.294 76.4491 128.101 76.7118C128.121 76.7036 128.146 76.6506 128.121 76.6342Z" fill="#263238"/>
<path d="M153.615 81.0245L153.758 80.4452C153.883 79.9296 153.797 79.3859 153.52 78.9331C153.243 78.4803 152.797 78.1555 152.28 78.0298L100.09 65.3818L99.0015 69.8494L151.191 82.4974C151.448 82.5595 151.714 82.5706 151.974 82.5301C152.234 82.4897 152.484 82.3985 152.709 82.2617C152.934 82.1249 153.13 81.9452 153.286 81.7329C153.441 81.5206 153.553 81.2799 153.615 81.0245Z" fill="#048DCF"/>
<path opacity="0.2" d="M153.615 81.0245L153.758 80.4452C153.883 79.9296 153.797 79.3859 153.52 78.9331C153.243 78.4803 152.797 78.1555 152.28 78.0298L100.09 65.3818L99.0015 69.8494L151.191 82.4974C151.448 82.5595 151.714 82.5706 151.974 82.5301C152.234 82.4897 152.484 82.3985 152.709 82.2617C152.934 82.1249 153.13 81.9452 153.286 81.7329C153.441 81.5206 153.553 81.2799 153.615 81.0245Z" fill="black"/>
<path opacity="0.1" d="M100.086 65.3901L98.9978 69.8584L105.318 71.3883L106.407 66.9201L100.086 65.3901Z" fill="black"/>
<path d="M85.9355 79.2661C87.2711 79.5898 88.6575 79.6481 90.0157 79.4376C91.3738 79.2271 92.6771 78.752 93.8509 78.0393C95.0248 77.3266 96.0462 76.3903 96.8569 75.284C97.6676 74.1777 98.2517 72.923 98.5757 71.5916L100.508 63.6682C100.862 62.3267 100.945 60.9283 100.75 59.5547C100.556 58.1811 100.089 56.8599 99.3758 55.6685C98.663 54.477 97.719 53.4392 96.599 52.6158C95.4789 51.7924 94.2054 51.1999 92.8529 50.873C91.5003 50.546 90.096 50.4913 88.722 50.7118C87.3479 50.9324 86.0318 51.4239 84.8507 52.1575C83.6695 52.8912 82.647 53.8523 81.8429 54.9845C81.0389 56.1168 80.4695 57.3976 80.168 58.7518L78.236 66.6793C77.5836 69.366 78.0282 72.201 79.472 74.5612C80.9157 76.9214 83.2406 78.6136 85.9355 79.2661ZM86.701 76.1285C83.017 75.2391 80.6551 71.9629 81.4247 68.809C82.0018 66.4508 84.1631 64.831 86.746 64.5373C84.5765 63.0889 83.3977 60.6613 83.9748 58.303C84.7403 55.1533 88.3465 53.3132 92.0305 54.2026C95.7145 55.0921 98.0723 58.3805 97.3068 61.5466C96.7337 63.9049 94.5725 65.5205 91.9855 65.8184C94.159 67.2668 95.3338 69.6944 94.7608 72.0526C93.9912 75.1902 90.3809 77.0221 86.701 76.1285Z" fill="#048DCF"/>
<path opacity="0.2" d="M85.9355 79.2661C87.2711 79.5898 88.6575 79.6481 90.0157 79.4376C91.3738 79.2271 92.6771 78.752 93.8509 78.0393C95.0248 77.3266 96.0462 76.3903 96.8569 75.284C97.6676 74.1777 98.2517 72.923 98.5757 71.5916L100.508 63.6682C100.862 62.3267 100.945 60.9283 100.75 59.5547C100.556 58.1811 100.089 56.8599 99.3758 55.6685C98.663 54.477 97.719 53.4392 96.599 52.6158C95.4789 51.7924 94.2054 51.1999 92.8529 50.873C91.5003 50.546 90.096 50.4913 88.722 50.7118C87.3479 50.9324 86.0318 51.4239 84.8507 52.1575C83.6695 52.8912 82.647 53.8523 81.8429 54.9845C81.0389 56.1168 80.4695 57.3976 80.168 58.7518L78.236 66.6793C77.5836 69.366 78.0282 72.201 79.472 74.5612C80.9157 76.9214 83.2406 78.6136 85.9355 79.2661ZM86.701 76.1285C83.017 75.2391 80.6551 71.9629 81.4247 68.809C82.0018 66.4508 84.1631 64.831 86.746 64.5373C84.5765 63.0889 83.3977 60.6613 83.9748 58.303C84.7403 55.1533 88.3465 53.3132 92.0305 54.2026C95.7145 55.0921 98.0723 58.3805 97.3068 61.5466C96.7337 63.9049 94.5725 65.5205 91.9855 65.8184C94.159 67.2668 95.3338 69.6944 94.7608 72.0526C93.9912 75.1902 90.3809 77.0221 86.701 76.1285Z" fill="black"/>
<path d="M100.594 72.3153L102.631 63.9537C102.752 63.4588 102.447 62.9602 101.951 62.84L101.68 62.7745C101.184 62.6544 100.683 62.9581 100.563 63.453L98.5256 71.8147C98.405 72.3095 98.7098 72.8081 99.2062 72.9283L99.4767 72.9938C99.9732 73.114 100.473 72.8102 100.594 72.3153Z" fill="#048DCF"/>
<path opacity="0.2" d="M100.594 72.3153L102.631 63.9537C102.752 63.4588 102.447 62.9602 101.951 62.84L101.68 62.7745C101.184 62.6544 100.683 62.9581 100.563 63.453L98.5256 71.8147C98.405 72.3095 98.7098 72.8081 99.2062 72.9283L99.4767 72.9938C99.9732 73.114 100.473 72.8102 100.594 72.3153Z" fill="black"/>
<path d="M102.662 72.8124L104.7 64.4507C104.82 63.9559 104.515 63.4573 104.019 63.3371L103.749 63.2716C103.252 63.1514 102.752 63.4552 102.631 63.95L100.594 72.3117C100.473 72.8066 100.778 73.3052 101.275 73.4254L101.545 73.4908C102.042 73.611 102.542 73.3073 102.662 72.8124Z" fill="#048DCF"/>
<path opacity="0.2" d="M102.662 72.8124L104.7 64.4507C104.82 63.9559 104.515 63.4573 104.019 63.3371L103.749 63.2716C103.252 63.1514 102.752 63.4552 102.631 63.95L100.594 72.3117C100.473 72.8066 100.778 73.3052 101.275 73.4254L101.545 73.4908C102.042 73.611 102.542 73.3073 102.662 72.8124Z" fill="black"/>
<path d="M138.027 81.2533L139.587 81.6327L138.486 86.1452L139.816 86.4675L140.393 84.1133L141.944 84.4928L141.376 86.8429L142.554 87.1285L143.459 83.4116L145.019 83.7869L144.114 87.5079L145.788 87.9118L147 82.9424L148.559 83.3218L147.348 88.2913L148.928 88.6748L150.479 82.3222L136.549 78.9521L135.002 85.3006L136.926 85.7698L138.027 81.2533Z" fill="#048DCF"/>
<path opacity="0.2" d="M138.027 81.2533L139.587 81.6327L138.486 86.1452L139.816 86.4675L140.393 84.1133L141.944 84.4928L141.376 86.8429L142.554 87.1285L143.459 83.4116L145.019 83.7869L144.114 87.5079L145.788 87.9118L147 82.9424L148.559 83.3218L147.348 88.2913L148.928 88.6748L150.479 82.3222L136.549 78.9521L135.002 85.3006L136.926 85.7698L138.027 81.2533Z" fill="black"/>
<path d="M118.199 68.4171C119.808 67.9315 121.945 66.4219 123.193 66.4587C123.502 66.4562 123.803 66.553 124.052 66.7345C124.301 66.916 124.485 67.1726 124.577 67.4664C124.577 67.4664 125.371 66.3403 126.5 66.5607C127.078 66.6708 127.409 67.6949 127.409 67.6949C127.603 67.4489 127.861 67.2609 128.155 67.1515C128.449 67.0421 128.767 67.0155 129.075 67.0747C129.865 67.2828 130.078 68.2783 130.078 68.2783C130.078 68.2783 131.122 67.7357 131.859 68.2049C133.353 69.1474 132.313 76.0589 129.599 76.7403C128.334 77.0626 128.678 75.3857 128.678 75.3857C128.678 75.3857 127.597 77.6746 126.165 77.4951C124.732 77.3155 125.313 75.1695 125.313 75.1695C125.313 75.1695 124.245 77.3767 122.776 77.0422C121.306 76.7076 122.198 74.6472 122.198 74.6472C122.198 74.6472 120.921 76.0263 119.857 75.5163C118.097 74.6717 120.856 72.1095 120.725 70.5387L118.338 69.3147L118.199 68.4171Z" fill="#EB9481"/>
<path d="M120.59 67.3609C119.026 67.6873 117.47 65.5861 115.927 65.684C113.844 65.8186 115.481 68.3809 118.338 69.3233L120.688 69.6661L120.59 67.3609Z" fill="#EB9481"/>
<path d="M130.135 68.4295C130.135 68.405 130.168 68.405 130.172 68.4295C130.402 70.8771 129.878 73.3365 128.67 75.4797C128.633 75.5491 128.506 75.5124 128.535 75.4308C129.406 73.1866 129.945 70.8282 130.135 68.4295Z" fill="#263238"/>
<path d="M127.43 67.6664C127.43 67.6378 127.475 67.6419 127.479 67.6664C127.705 70.368 126.954 73.0611 125.363 75.2593C125.305 75.3327 125.178 75.3409 125.236 75.2593C126.247 73.713 127.303 69.9186 127.43 67.6664Z" fill="#263238"/>
<path d="M122.026 74.7703C123.561 72.6079 124.245 70.1721 124.589 67.5691C124.589 67.5324 124.642 67.5446 124.646 67.5691C124.826 68.8869 124.433 70.523 124.02 71.7715C123.658 72.9369 122.996 73.9876 122.1 74.8192C122.063 74.8559 121.981 74.8151 122.026 74.7703Z" fill="#263238"/>
<path d="M106.181 75.0271C105.1 74.9782 103.054 72.779 102.337 71.0124C102.485 70.0867 102.679 69.1689 102.919 68.2625C103.107 67.3812 103.295 66.3979 103.402 65.4881C103.402 65.3004 104.02 65.7166 104.02 65.7166L105.17 66.1246L108.973 67.5281C108.513 68.6288 108.189 69.7809 108.007 70.9594C107.996 71.0856 107.996 71.2125 108.007 71.3388C108.007 71.3388 108.007 71.3755 108.007 71.4C108.039 72.1426 107.867 75.1087 106.181 75.0271Z" fill="#EB9481"/>
<path d="M108.003 71.3546C108.003 71.3546 108.003 71.3913 108.003 71.4158C107.804 71.4189 107.606 71.4067 107.409 71.379C103.557 70.8446 103.647 65.8955 103.647 65.8955L105.166 66.1403L108.969 67.5438C108.509 68.6446 108.185 69.7967 108.003 70.9751C107.993 71.1014 107.993 71.2283 108.003 71.3546Z" fill="#263238"/>
<path d="M104.204 57.7522C103.115 59.5882 102.776 65.5695 103.881 67.1892C105.485 69.5352 108.793 70.5185 110.974 68.4418C113.083 66.4304 113.385 58.6294 112.084 57.0872C110.172 54.8146 105.813 55.039 104.204 57.7522Z" fill="#EB9481"/>
<path d="M109.333 62.4932C109.333 62.4932 109.304 62.4932 109.304 62.5258C109.304 62.9338 109.247 63.3948 108.895 63.5213C108.895 63.5213 108.895 63.5458 108.895 63.5417C109.329 63.4887 109.407 62.8726 109.333 62.4932Z" fill="#263238"/>
<path d="M108.981 62.0646C108.33 62.0034 108.256 63.2886 108.858 63.358C109.46 63.4273 109.525 62.1136 108.981 62.0646Z" fill="#263238"/>
<path d="M111.49 62.542C111.49 62.542 111.519 62.5624 111.519 62.5787C111.482 62.9867 111.519 63.4478 111.867 63.6028C111.867 63.6028 111.867 63.6273 111.867 63.6232C111.421 63.5375 111.392 62.9174 111.49 62.542Z" fill="#263238"/>
<path d="M111.875 62.1426C112.526 62.1426 112.505 63.4319 111.9 63.4441C111.294 63.4563 111.339 62.1548 111.875 62.1426Z" fill="#263238"/>
<path d="M108.498 61.4407C108.672 61.399 108.845 61.3486 109.014 61.2897C109.203 61.2636 109.379 61.1761 109.513 61.0408C109.547 60.9901 109.563 60.9293 109.558 60.8686C109.552 60.8078 109.527 60.7506 109.485 60.7063C109.391 60.6289 109.278 60.5779 109.158 60.5585C109.038 60.5392 108.914 60.5521 108.801 60.5961C108.554 60.6509 108.338 60.7967 108.195 61.0041C108.167 61.0523 108.154 61.1073 108.156 61.1629C108.158 61.2184 108.176 61.2721 108.208 61.3179C108.24 61.3636 108.284 61.3994 108.335 61.4211C108.387 61.4429 108.443 61.4496 108.498 61.4407Z" fill="#263238"/>
<path d="M112.358 61.6605C112.185 61.6148 112.014 61.5603 111.846 61.4973C111.658 61.4633 111.486 61.3704 111.355 61.2321C111.324 61.1801 111.31 61.1191 111.317 61.0587C111.324 60.9982 111.35 60.9416 111.392 60.8976C111.488 60.8224 111.602 60.7745 111.723 60.7587C111.844 60.7429 111.968 60.7598 112.08 60.8078C112.321 60.8665 112.532 61.0117 112.673 61.2158C112.705 61.265 112.721 61.3226 112.72 61.381C112.719 61.4395 112.7 61.4962 112.666 61.544C112.632 61.5918 112.585 61.6284 112.53 61.6491C112.475 61.6699 112.415 61.6739 112.358 61.6605Z" fill="#263238"/>
<path d="M108.506 66.2064C108.6 66.3084 108.686 66.443 108.834 66.4634C108.985 66.4699 109.136 66.4434 109.276 66.3859C109.276 66.3859 109.3 66.3859 109.276 66.3859C109.213 66.4627 109.131 66.5212 109.038 66.555C108.945 66.5888 108.845 66.5966 108.748 66.5777C108.666 66.5514 108.594 66.5018 108.541 66.435C108.488 66.3682 108.456 66.2873 108.449 66.2023C108.473 66.1982 108.494 66.1942 108.506 66.2064Z" fill="#263238"/>
<path d="M110.205 65.5695C110.021 65.781 109.785 65.9425 109.521 66.0387C109.376 66.0858 109.22 66.0858 109.075 66.0387C108.756 65.9367 108.764 65.6307 108.838 65.3941C108.878 65.2614 108.935 65.134 109.006 65.0146C109.336 65.3221 109.756 65.5164 110.205 65.5695Z" fill="#263238"/>
<path d="M109.521 66.0392C109.376 66.0862 109.22 66.0862 109.075 66.0392C108.756 65.9372 108.764 65.6312 108.838 65.3945C109.008 65.4094 109.168 65.4811 109.292 65.5982C109.416 65.7152 109.497 65.8706 109.521 66.0392Z" fill="#EB9481"/>
<path d="M103.283 64.0274C104.421 63.7214 105.051 59.9474 105.051 59.9474C105.051 59.9474 105.019 61.559 105.322 61.5223C105.624 61.4856 106.898 59.3191 107.057 57.7564C107.946 58.3567 108.909 58.8395 109.923 59.1926C111.351 59.6414 112.943 59.568 112.947 59.3232C112.947 58.5969 112.321 56.6956 111.343 56.0102C110.629 55.4573 109.782 55.1017 108.887 54.9792C107.991 54.8567 107.079 54.9717 106.243 55.3125C103.881 56.1775 103.246 57.6748 102.882 58.8336C102.518 59.9923 102.866 64.1416 103.283 64.0274Z" fill="#263238"/>
<path d="M108.064 64.5989C107.716 64.5275 107.395 64.3602 107.138 64.1161C106.88 63.872 106.697 63.5607 106.608 63.2178C106.519 62.8749 106.529 62.514 106.635 62.1762C106.742 61.8383 106.942 61.5371 107.211 61.3068C107.481 61.0764 107.811 60.9261 108.162 60.873C108.513 60.8199 108.873 60.866 109.199 61.0062C109.525 61.1464 109.805 61.3751 110.008 61.6661C110.21 61.9572 110.327 62.299 110.344 62.6528C110.367 63.1547 110.19 63.6454 109.851 64.0172C109.512 64.3889 109.038 64.6113 108.535 64.6357C108.377 64.6442 108.219 64.6319 108.064 64.5989ZM108.776 61.1309C108.641 61.1049 108.504 61.0953 108.367 61.1024C107.951 61.1255 107.56 61.3057 107.273 61.6063C106.985 61.9068 106.824 62.3052 106.821 62.7203C106.818 63.1354 106.974 63.536 107.257 63.8406C107.54 64.1452 107.928 64.3309 108.344 64.3599C108.759 64.3888 109.17 64.2589 109.493 63.9966C109.816 63.7343 110.026 63.3592 110.081 62.9478C110.136 62.5363 110.032 62.1194 109.79 61.7819C109.547 61.4443 109.185 61.2116 108.776 61.1309Z" fill="#048DCF"/>
<path d="M112.411 64.9455C111.699 64.7986 111.183 63.9419 111.285 62.9545C111.317 62.4833 111.496 62.0338 111.797 61.6693C111.917 61.5051 112.078 61.3745 112.264 61.2902C112.449 61.2059 112.653 61.1706 112.857 61.1878C113.06 61.2051 113.255 61.2742 113.424 61.3885C113.592 61.5029 113.728 61.6586 113.819 61.8407C114.052 62.252 114.152 62.725 114.106 63.1952C114.016 64.2356 113.312 65.0312 112.534 64.9619C112.493 64.9604 112.451 64.955 112.411 64.9455ZM112.931 61.453C112.898 61.4491 112.865 61.4491 112.833 61.453C112.67 61.4482 112.508 61.4827 112.361 61.5538C112.214 61.6248 112.087 61.7302 111.989 61.861C111.724 62.1862 111.565 62.5852 111.535 63.0034C111.461 63.9051 111.916 64.6844 112.554 64.7375C113.193 64.7905 113.782 64.1051 113.852 63.2034C113.899 62.7794 113.812 62.3513 113.602 61.9794C113.534 61.8494 113.439 61.7353 113.323 61.6446C113.207 61.5539 113.074 61.4886 112.931 61.453Z" fill="#048DCF"/>
<path d="M110.258 62.8647L110.111 62.6566C110.422 62.4404 111.114 62.1752 111.531 62.7056L111.335 62.8647C110.958 62.3873 110.287 62.832 110.258 62.8647Z" fill="#048DCF"/>
<path d="M101.773 62.6322L101.56 62.4975C101.621 62.3996 102.194 61.5184 102.767 61.4776C103.34 61.4368 106.672 62.0447 106.816 62.0692L106.767 62.318C105.805 62.1426 103.201 61.6979 102.784 61.7305C102.366 61.7632 101.924 62.3915 101.773 62.6322Z" fill="#048DCF"/>
<path d="M104.298 62.7173C104.298 62.7173 103.406 60.5671 102.456 60.8487C101.507 61.1302 101.891 64.0392 102.804 64.6267C102.916 64.7098 103.044 64.7696 103.179 64.8023C103.315 64.835 103.456 64.8401 103.593 64.8173C103.731 64.7944 103.863 64.7441 103.98 64.6693C104.098 64.5944 104.199 64.4967 104.278 64.3819L104.298 62.7173Z" fill="#EB9481"/>
<path d="M102.587 61.6816C102.587 61.6816 102.563 61.6816 102.587 61.7061C103.226 62.1386 103.447 62.8648 103.557 63.5911C103.533 63.5102 103.49 63.4357 103.434 63.373C103.377 63.3104 103.307 63.2611 103.228 63.2287C103.15 63.1963 103.065 63.1816 102.981 63.1857C102.896 63.1898 102.813 63.2126 102.739 63.2524C102.718 63.2524 102.739 63.2932 102.739 63.2973C102.869 63.2845 103 63.3127 103.114 63.3777C103.228 63.4428 103.318 63.5417 103.373 63.6604C103.465 63.8604 103.535 64.0697 103.582 64.2847C103.582 64.354 103.717 64.3459 103.713 64.2847V64.2643C103.938 63.3708 103.52 61.9795 102.587 61.6816Z" fill="#263238"/>
<path d="M110.139 55.2639C109.421 54.8008 108.637 54.4461 107.814 54.2113C106.893 53.9665 103.901 53.8033 103.107 54.2847C102.313 54.7661 101.748 57.5487 101.674 57.9567C101.601 58.3647 101.445 60.8453 102.256 61.5593C103.066 62.2733 103.725 58.1077 105.326 56.9163C106.926 55.7249 110.139 55.2639 110.139 55.2639Z" fill="#048DCF"/>
<path opacity="0.1" d="M110.139 55.2635C110.139 55.2635 106.926 55.7042 105.33 56.8955C103.733 58.0869 103.07 62.2526 102.256 61.5386C101.887 61.1641 101.683 60.6595 101.687 60.1351C102.043 58.9396 102.796 57.1118 103.999 55.9408C105.121 54.8433 106.865 54.4435 108.641 54.4843C109.161 54.7023 109.662 54.9629 110.139 55.2635Z" fill="black"/>
<path d="M102.162 64.0553C102.395 62.9537 103.938 60.1263 105.363 58.58C106.787 57.0337 110.426 56.5155 110.913 56.6093C112.092 56.8419 112.223 57.4702 112.428 57.3886C112.632 57.307 111.748 56.0341 111.441 55.7893C111.134 55.5445 110.299 54.9529 109.783 54.8957C109.268 54.8386 106.034 54.7162 104.691 55.9157C103.349 57.1153 101.187 60.6812 101.355 61.6971C101.396 61.9378 101.687 62.1296 101.74 62.4764C101.81 62.9252 101.83 63.4393 101.92 63.7616C101.994 64.0227 102.141 64.1492 102.162 64.0553Z" fill="#048DCF"/>
<path d="M105.743 57.8546C105.491 57.6514 105.259 57.4261 105.047 57.1814C104.827 56.9415 104.638 56.6757 104.482 56.3899C104.482 56.3695 104.437 56.3899 104.45 56.3899C104.563 56.7062 104.729 57.0013 104.941 57.263C105.155 57.5189 105.414 57.7333 105.706 57.8954C105.739 57.9362 105.768 57.875 105.743 57.8546Z" fill="#263238"/>
<path d="M102.301 62.9419C102.275 62.8588 102.245 62.7771 102.211 62.6971C102.179 62.6031 102.157 62.506 102.145 62.4074C102.148 62.2197 102.13 62.0323 102.092 61.8485C102.037 61.7048 101.966 61.5679 101.879 61.4405C101.773 61.3029 101.718 61.1327 101.724 60.959C101.724 60.9345 101.691 60.9264 101.687 60.959C101.694 61.28 101.781 61.5942 101.941 61.8729C101.986 62.0684 102.01 62.2681 102.014 62.4686C102.035 62.658 102.117 62.8355 102.248 62.9745C102.268 62.9868 102.309 62.9705 102.301 62.9419Z" fill="#263238"/>
<path d="M102.853 61.7917C102.759 61.6605 102.671 61.5243 102.591 61.3837C102.52 61.2385 102.458 61.0885 102.407 60.9349C102.358 60.784 102.317 60.6289 102.268 60.478C102.219 60.327 102.133 60.123 102.088 59.9435C102.088 59.919 102.047 59.9435 102.051 59.9435C102.1 60.1312 102.117 60.327 102.162 60.5188C102.2 60.6841 102.251 60.8463 102.313 61.0043C102.368 61.1562 102.438 61.3024 102.522 61.4409C102.601 61.5823 102.708 61.7059 102.837 61.804C102.837 61.804 102.857 61.804 102.853 61.7917Z" fill="#263238"/>
<path d="M103.406 60.7591C103.199 60.5292 103.027 60.2709 102.894 59.9921C102.767 59.7187 102.653 59.4372 102.546 59.1761C102.546 59.1557 102.505 59.1761 102.509 59.1761C102.56 59.4857 102.651 59.7874 102.779 60.0737C102.841 60.2184 102.919 60.3554 103.013 60.4817C103.121 60.6054 103.243 60.7162 103.377 60.8121C103.377 60.8121 103.422 60.7917 103.406 60.7591Z" fill="#263238"/>
<path d="M103.991 59.776C103.885 59.6805 103.799 59.5655 103.737 59.4374C103.66 59.3028 103.582 59.16 103.508 59.0294C103.434 58.8988 103.369 58.7601 103.299 58.6214C103.22 58.488 103.171 58.339 103.156 58.1848C103.156 58.1644 103.119 58.1604 103.119 58.1848C103.11 58.3387 103.132 58.4928 103.185 58.6377C103.236 58.8011 103.301 58.9595 103.381 59.111C103.458 59.2592 103.544 59.4023 103.639 59.5394C103.715 59.6692 103.829 59.772 103.967 59.8332C103.97 59.8348 103.974 59.8356 103.979 59.8357C103.983 59.8357 103.987 59.835 103.99 59.8334C103.994 59.8319 103.998 59.8297 104.001 59.8268C104.004 59.824 104.006 59.8206 104.008 59.8168C104.009 59.8131 104.01 59.8091 104.01 59.805C104.01 59.8009 104.009 59.7968 104.008 59.7931C104.006 59.7893 104.004 59.7858 104.001 59.7829C103.998 59.78 103.995 59.7776 103.991 59.776Z" fill="#263238"/>
<path d="M104.495 58.4986C104.405 58.3844 104.315 58.2702 104.233 58.1478C104.151 58.0254 104.081 57.8989 104.008 57.7724C103.934 57.6459 103.852 57.5072 103.787 57.3644C103.787 57.3399 103.746 57.3644 103.75 57.3644C103.79 57.512 103.84 57.6565 103.901 57.7969C103.965 57.9378 104.039 58.0741 104.122 58.2049C104.203 58.3308 104.29 58.452 104.384 58.568C104.474 58.6891 104.587 58.7916 104.716 58.8699C104.716 58.8699 104.761 58.8699 104.749 58.8373C104.676 58.7162 104.591 58.6027 104.495 58.4986Z" fill="#263238"/>
<path d="M106.685 57.3365C106.597 57.1848 106.501 57.0377 106.398 56.8959C106.291 56.7528 106.175 56.6165 106.05 56.4879C105.814 56.2267 105.551 55.9915 105.264 55.7861C105.264 55.7861 105.223 55.7861 105.24 55.8147C105.702 56.3369 106.193 56.8388 106.656 57.3692C106.668 57.3773 106.697 57.3569 106.685 57.3365Z" fill="#263238"/>
<path d="M107.491 56.4752C107.397 56.3268 107.285 56.1899 107.159 56.0672C106.891 55.814 106.594 55.5922 106.275 55.4063C106.255 55.4063 106.234 55.4062 106.255 55.4348C106.517 55.6633 106.783 55.8918 107.033 56.1366C107.155 56.259 107.278 56.3854 107.389 56.5201C107.499 56.6547 107.573 56.8098 107.679 56.9485H107.704C107.663 56.7789 107.591 56.6183 107.491 56.4752Z" fill="#263238"/>
<path d="M109.227 55.7039C109.124 55.5937 109.014 55.4877 108.903 55.3816C108.799 55.2748 108.679 55.184 108.547 55.1123C108.527 55.1123 108.51 55.1123 108.527 55.1449C108.731 55.3571 108.936 55.5733 109.128 55.7896C109.299 56.0016 109.446 56.2314 109.566 56.475C109.566 56.475 109.591 56.475 109.587 56.475C109.55 56.187 109.424 55.9175 109.227 55.7039Z" fill="#263238"/>
<path d="M110.111 55.6384C109.922 55.4087 109.691 55.2164 109.431 55.0713C109.411 55.0713 109.394 55.0917 109.411 55.1039C109.642 55.272 109.846 55.4742 110.017 55.7037C110.191 55.9322 110.34 56.1783 110.463 56.4381C110.463 56.4381 110.491 56.4381 110.487 56.4381C110.428 56.1453 110.299 55.871 110.111 55.6384Z" fill="#263238"/>
<path d="M111.122 56.3034C111.102 56.2403 111.078 56.1789 111.048 56.1198C110.989 56.0009 110.919 55.8876 110.839 55.7812C110.671 55.572 110.482 55.3806 110.275 55.21C110.275 55.21 110.234 55.21 110.25 55.2385C110.448 55.4096 110.624 55.6042 110.774 55.8179C110.848 55.9232 110.916 56.0336 110.974 56.1484C111.003 56.2055 111.028 56.2626 111.052 56.3197C111.069 56.3791 111.093 56.4365 111.122 56.4911H111.155C111.155 56.4271 111.144 56.3635 111.122 56.3034Z" fill="#263238"/>
<path d="M111.785 56.4385C111.68 56.2475 111.556 56.0683 111.412 55.904C111.339 55.8224 111.261 55.7449 111.187 55.6592C111.187 55.6592 111.142 55.6592 111.163 55.6837C111.238 55.7667 111.306 55.8554 111.367 55.9489L111.543 56.21L111.719 56.4711C111.771 56.5653 111.83 56.6554 111.896 56.7404C111.896 56.7404 111.924 56.7404 111.92 56.7404C111.889 56.6342 111.843 56.5327 111.785 56.4385Z" fill="#263238"/>
<path d="M87.5155 101.592C87.5687 101.665 113.05 103.742 113.303 103.497C113.398 103.407 114.2 101.526 113.913 98.6664C113.119 90.8368 110.094 75.851 107.364 71.5956C106.435 70.1431 102.861 68.968 101.281 70.2859C97.9821 73.0072 91.3427 87.6748 88.416 95.9328C87.2617 99.2498 87.4623 101.531 87.5155 101.592Z" fill="#A6A6A6"/>
<path d="M104.343 74.7452C105.608 78.0704 111.981 90.4246 116.623 91.2569C122.247 92.2647 129.546 91.5303 132.8 90.2329C134.626 89.5066 130.68 80.5836 128.956 81.0324C126.242 81.7383 121.056 81.8076 120.025 81.8076C118.993 81.8076 112.296 75.4796 108.527 72.2156C105.133 69.2861 103.598 72.7868 104.343 74.7452Z" fill="#EB9481"/>
<path d="M131.04 90.662C136.23 89.5685 140.659 85.6966 141.273 84.8847C141.789 84.1911 142.047 83.8321 142.047 83.8321C142.997 82.6081 142.829 81.7064 142.829 81.7064C142.829 81.7064 144.343 80.6129 143.832 79.5929C143.263 78.4465 141.249 80.2049 139.546 80.4946C135.645 81.1637 129.914 81.025 128.772 81.1066L131.04 90.662Z" fill="#EB9481"/>
<path d="M135.94 84.0479C137.083 83.865 138.212 83.606 139.321 83.2727C140.508 82.8288 141.662 82.2984 142.771 81.6856C142.778 81.6839 142.785 81.6844 142.792 81.687C142.798 81.6896 142.804 81.6942 142.807 81.7001C142.811 81.706 142.813 81.7129 142.812 81.7199C142.811 81.7268 142.809 81.7334 142.804 81.7386C140.785 83.1504 138.417 83.9843 135.956 84.1499C135.899 84.158 135.899 84.0683 135.94 84.0479Z" fill="#263238"/>
<path d="M136.001 86.459C137.102 86.1856 139.034 85.6919 142.014 83.7988C142.014 83.7988 142.039 83.7988 142.014 83.7988C140.31 85.2532 138.234 86.2067 136.017 86.5528C135.964 86.5814 135.927 86.4957 136.001 86.459Z" fill="#263238"/>
<path d="M134.781 81.0044C134.241 80.8902 134.298 80.5964 135.191 80.1884C136.083 79.7804 139.943 78.7768 139.484 77.463C139.026 76.1492 133.594 77.6017 132.182 78.4422C130.972 79.241 129.832 80.139 128.772 81.1268C129.873 81.033 132.595 81.1146 134.781 81.0044Z" fill="#EB9481"/>
<path d="M126.803 80.9142L129.877 91.8323C129.877 91.8323 119.644 93.2072 115.731 91.4039C111.818 89.6005 107.053 81.3059 104.867 76.4996C102.681 71.6934 104.294 67.9071 110.414 73.5335C116.533 79.1598 119.525 81.3671 119.971 81.4936C120.418 81.62 126.803 80.9142 126.803 80.9142Z" fill="#A6A6A6"/>
<path d="M111.556 87.6672C111.261 87.1817 108.793 83.5872 108.559 83.1792C108.08 82.3918 107.606 81.6044 107.143 80.8088C106.206 79.2053 105.301 77.5774 104.278 76.0352L104.249 76.0556C104.724 77.1449 105.268 78.2098 105.85 79.2543L105.71 79.1115C105.294 78.7248 104.9 78.3162 104.527 77.8875C104.503 77.8589 104.458 77.8875 104.482 77.9324C104.855 78.3404 105.186 78.8096 105.547 79.238C105.719 79.4501 105.895 79.646 106.083 79.85L106.316 80.0784C106.5 80.3967 106.689 80.7149 106.881 81.0291C107.364 81.8451 107.896 82.6039 108.4 83.3955C109.284 84.7867 111.265 87.3286 111.523 87.6999C111.535 87.7447 111.58 87.7203 111.556 87.6672Z" fill="#263238"/>
<path d="M127.589 91.673C127.454 90.8162 127.18 89.9716 126.971 89.1312C126.763 88.2907 126.525 87.4787 126.296 86.6546C125.829 84.9899 125.399 83.3008 124.826 81.6729C124.828 81.668 124.829 81.6627 124.828 81.6574C124.828 81.6522 124.826 81.6472 124.823 81.6429C124.82 81.6386 124.816 81.6351 124.811 81.6326C124.806 81.6302 124.801 81.6289 124.796 81.6289C124.79 81.6289 124.785 81.6302 124.781 81.6326C124.776 81.6351 124.772 81.6386 124.769 81.6429C124.766 81.6472 124.764 81.6522 124.763 81.6574C124.763 81.6627 124.763 81.668 124.765 81.6729C125.068 83.3906 125.547 85.0797 125.993 86.7607C126.226 87.6052 126.468 88.4416 126.718 89.278C126.94 90.094 127.207 90.8976 127.516 91.6852C127.544 91.7342 127.598 91.7097 127.589 91.673Z" fill="#263238"/>
<path d="M123.811 81.1596C122.8 81.1882 121.797 81.3269 120.786 81.3514C120.337 81.3731 119.893 81.2485 119.521 80.9964C119.112 80.719 114.72 77.3775 113.967 76.7206C113.938 76.692 113.893 76.741 113.922 76.7655C114.716 77.4224 117.544 79.8826 118.363 80.5436C118.72 80.8564 119.1 81.1415 119.501 81.3963C119.878 81.6143 120.319 81.6964 120.749 81.6288C121.773 81.5064 122.796 81.4085 123.823 81.2412C123.868 81.2331 123.856 81.1596 123.811 81.1596Z" fill="#263238"/>
<path d="M106.349 70.6572C104.392 69.4332 98.8622 68.6172 96.5249 69.984C93.5777 71.6976 90.2867 82.4933 91.4 83.2114C93.3853 84.4966 100.909 78.5765 102.624 76.0592C104.339 73.5418 106.349 70.6572 106.349 70.6572Z" fill="#A6A6A6"/>
<path d="M104.703 73.8482C104.319 74.2032 103.917 74.5541 103.537 74.9172C104.061 74.1869 104.593 73.4606 105.096 72.7181C105.096 72.6936 105.076 72.6609 105.055 72.6854C104.375 73.4318 103.734 74.2136 103.136 75.0274C102.501 75.8434 101.858 76.6594 101.179 77.4182C100.513 78.2012 99.789 78.9335 99.0136 79.6092C98.1785 80.2985 97.2948 80.927 96.3693 81.4901C95.8481 81.811 95.3214 82.1225 94.7893 82.4244C94.2164 82.7418 93.6197 83.0146 93.0046 83.2404C92.8941 83.2771 92.9637 83.3179 93.0046 83.3057C93.5286 83.1502 94.0369 82.9467 94.5232 82.6978C95.0308 82.4489 95.5425 82.2 96.0459 81.9389C97.0165 81.4584 97.9449 80.8974 98.8212 80.262C100.524 78.9931 101.813 77.3407 103.025 75.6189C103.051 75.5866 103.074 75.5525 103.095 75.5169C103.324 75.3007 103.549 75.0763 103.766 74.8438C104.081 74.5092 104.409 74.195 104.748 73.8849C104.75 73.8791 104.749 73.873 104.747 73.8674C104.745 73.8617 104.742 73.8567 104.737 73.8529C104.732 73.8491 104.727 73.8467 104.721 73.8459C104.715 73.845 104.709 73.8459 104.703 73.8482Z" fill="#263238"/>
</svg>
