<svg width="49" height="51" viewBox="0 0 49 51" fill="none" xmlns="http://www.w3.org/2000/svg">
<path d="M48.5845 45.9995C48.5845 57.0452 36.6302 45.9995 25.5845 45.9995C14.5388 45.9995 0.5 49.0452 0.5 37.9995C0.5 26.9538 18.4543 23.9995 29.5 23.9995C40.5457 23.9995 48.5845 34.9538 48.5845 45.9995Z" fill="#FEE9CC"/>
<path d="M28.7081 3.64752C28.7937 4.11311 28.402 4.5 27.9286 4.5C27.4552 4.5 27.0841 4.10764 26.9425 3.65592C26.9225 3.59211 26.9002 3.52901 26.8757 3.46675C26.7465 3.13918 26.5571 2.84153 26.3183 2.59081C26.0795 2.34009 25.796 2.14121 25.484 2.00553C25.1721 1.86984 24.8377 1.8 24.5 1.8C24.1623 1.8 23.8279 1.86984 23.516 2.00553C23.204 2.14121 22.9205 2.34009 22.6817 2.59081C22.4429 2.84153 22.2535 3.13918 22.1243 3.46675C21.9951 3.79433 21.9286 4.14543 21.9286 4.5V9H28.7857C29.2404 9 29.6764 9.18964 29.9979 9.52721C30.3194 9.86477 30.5 10.3226 30.5 10.8V16.2C30.5 16.6774 30.3194 17.1352 29.9979 17.4728C29.6764 17.8104 29.2404 18 28.7857 18H20.2143C19.7596 18 19.3236 17.8104 19.0021 17.4728C18.6806 17.1352 18.5 16.6774 18.5 16.2V10.8C18.5 10.3226 18.6806 9.86477 19.0021 9.52721C19.3236 9.18964 19.7596 9 20.2143 9V4.5C20.2143 3.30653 20.6658 2.16193 21.4695 1.31802C22.2733 0.474106 23.3634 0 24.5 0C25.6366 0 26.7267 0.474106 27.5305 1.31802C28.1401 1.95815 28.5471 2.77128 28.7081 3.64752ZM24.5 15.3C24.9547 15.3 25.3907 15.1104 25.7122 14.7728C26.0337 14.4352 26.2143 13.9774 26.2143 13.5C26.2143 13.0226 26.0337 12.5648 25.7122 12.2272C25.3907 11.8896 24.9547 11.7 24.5 11.7C24.0453 11.7 23.6093 11.8896 23.2878 12.2272C22.9663 12.5648 22.7857 13.0226 22.7857 13.5C22.7857 13.9774 22.9663 14.4352 23.2878 14.7728C23.6093 15.1104 24.0453 15.3 24.5 15.3Z" fill="#F9A968"/>
<path d="M45.9001 22.3998C46.4524 22.3998 46.9001 22.8475 46.9001 23.3998V24.5998C46.9001 25.1521 46.4524 25.5998 45.9001 25.5998H43.7001V29.9998C43.7001 31.1044 42.8047 31.9998 41.7001 31.9998H40.5001V33.1998C40.5001 34.3044 39.6047 35.1998 38.5001 35.1998H37.7001C36.5955 35.1998 35.7001 34.3044 35.7001 33.1998V25.5998H13.3001V33.1998C13.3001 34.3044 12.4047 35.1998 11.3001 35.1998H10.5001C9.39553 35.1998 8.5001 34.3044 8.5001 33.1998V31.9998H7.3001C6.19553 31.9998 5.3001 31.1044 5.3001 29.9998V25.5998H3.1001C2.54781 25.5998 2.1001 25.1521 2.1001 24.5998V23.3998C2.1001 22.8475 2.54781 22.3998 3.1001 22.3998H5.3001V17.9998C5.3001 16.8952 6.19553 15.9998 7.3001 15.9998H8.5001V14.7998C8.5001 13.6952 9.39553 12.7998 10.5001 12.7998H11.3001C12.4047 12.7998 13.3001 13.6952 13.3001 14.7998V22.3998H35.7001V14.7998C35.7001 13.6952 36.5955 12.7998 37.7001 12.7998H38.5001C39.6047 12.7998 40.5001 13.6952 40.5001 14.7998V15.9998H41.7001C42.8047 15.9998 43.7001 16.8952 43.7001 17.9998V22.3998H45.9001Z" fill="#F48743"/>
</svg>
