<svg width="49" height="52" viewBox="0 0 49 52" fill="none" xmlns="http://www.w3.org/2000/svg">
<path d="M48.0845 45.9995C48.0845 57.0452 36.1302 45.9995 25.0845 45.9995C14.0388 45.9995 0 49.0452 0 37.9995C0 26.9538 17.9543 23.9995 29 23.9995C40.0457 23.9995 48.0845 34.9538 48.0845 45.9995Z" fill="#FEE9CC"/>
<path d="M24.0001 6H9.00012C7.34327 6 6.00012 7.34315 6.00012 9V31C6.00012 32.6569 7.34327 34 9.00012 34H39.0001C40.657 34 42.0001 32.6569 42.0001 31V27" stroke="#F48743" stroke-width="4" stroke-linecap="round" stroke-linejoin="round"/>
<path d="M24.0002 33.9995V41.9995" stroke="#F48743" stroke-width="4" stroke-linecap="round" stroke-linejoin="round"/>
<path d="M14.0002 42H34.0002" stroke="#F48743" stroke-width="4" stroke-linecap="round" stroke-linejoin="round"/>
<path d="M36.9377 5.93799C34.7286 5.93799 32.9377 7.72885 32.9377 9.93799C32.9377 12.1471 34.7286 13.938 36.9377 13.938C39.1469 13.938 40.9377 12.1471 40.9377 9.93799C40.9377 7.72885 39.1469 5.93799 36.9377 5.93799Z" stroke="#F9A968" stroke-width="2" stroke-linecap="round" stroke-linejoin="round"/>
<path d="M34.0874 12.788L25.9374 20.938M26.9374 19.938L24.9374 17.938M29.9374 16.938L27.9374 14.938" stroke="#F9A968" stroke-width="2" stroke-linecap="round" stroke-linejoin="round"/>
</svg>
