<svg width="60" height="15" viewBox="0 0 60 15" fill="none" xmlns="http://www.w3.org/2000/svg">
<rect width="60" height="15" rx="5" fill="#EA2B2B"/>
<path d="M4.35301 3.25046C4.44358 3.18454 4.56537 3.14829 4.69158 3.1497C4.81778 3.1511 4.93808 3.19005 5.02601 3.25796C5.12214 3.33316 5.1749 3.43374 5.17284 3.53791C5.17078 3.64208 5.11407 3.74144 5.015 3.81446C3.72187 4.79574 2.99769 6.12029 3.00001 7.49996C3.00001 8.99246 3.83001 10.3395 5.16401 11.295C5.21551 11.3307 5.25703 11.3737 5.28612 11.4216C5.31521 11.4694 5.33129 11.5211 5.33343 11.5737C5.33557 11.6263 5.32373 11.6787 5.29859 11.7278C5.27345 11.7769 5.23551 11.8217 5.187 11.8597C5.10098 11.9264 4.98369 11.9652 4.86007 11.968C4.73644 11.9708 4.61624 11.9373 4.52501 11.8747C3.72688 11.3142 3.0909 10.6366 2.65654 9.88407C2.22217 9.13151 1.99871 8.32001 2.00001 7.49996C2.00001 5.83946 2.90001 4.33646 4.35301 3.25046ZM14.985 3.81446C14.8861 3.74134 14.8295 3.64192 14.8277 3.53775C14.8258 3.43359 14.8787 3.33306 14.975 3.25796C15.0629 3.19028 15.183 3.15148 15.3089 3.15007C15.4349 3.14867 15.5565 3.18477 15.647 3.25046C16.3939 3.8072 16.9863 4.46936 17.3902 5.19872C17.794 5.92808 18.0013 6.71021 18 7.49996C18 9.22496 17.03 10.7805 15.475 11.8747C15.3838 11.9373 15.2636 11.9708 15.1399 11.968C15.0163 11.9652 14.899 11.9264 14.813 11.8597C14.7646 11.8217 14.7268 11.7769 14.7018 11.7279C14.6767 11.6789 14.6649 11.6266 14.6671 11.5741C14.6692 11.5216 14.6853 11.47 14.7143 11.4222C14.7433 11.3744 14.7846 11.3314 14.836 11.2957C15.5209 10.8061 16.0659 10.2171 16.4379 9.56458C16.8099 8.91206 17.0012 8.20963 17 7.49996C17.0024 6.12006 16.2782 4.79526 14.985 3.81371V3.81446ZM6.132 4.56746C6.22112 4.50381 6.34029 4.46932 6.46332 4.47157C6.58634 4.47382 6.70314 4.51263 6.788 4.57946C6.996 4.73546 6.975 4.99196 6.77 5.14946C5.95398 5.77868 5.49822 6.6222 5.5 7.49996C5.5 8.46746 6.043 9.34046 6.914 9.95621C7.134 10.1115 7.164 10.377 6.949 10.5382C6.86659 10.6025 6.75438 10.6405 6.6356 10.6444C6.51683 10.6483 6.40061 10.6178 6.311 10.5592C5.74016 10.1729 5.28396 9.70098 4.97197 9.17395C4.65998 8.64692 4.49919 8.0766 4.50001 7.49996C4.4989 6.95439 4.64264 6.41411 4.92284 5.91064C5.20304 5.40716 5.61408 4.95056 6.132 4.56746ZM13.23 5.14946C13.025 4.99196 13.004 4.73546 13.212 4.57946C13.2969 4.51263 13.4137 4.47382 13.5367 4.47157C13.6597 4.46932 13.7789 4.50381 13.868 4.56746C14.3858 4.95064 14.7967 5.40725 15.0769 5.91071C15.3571 6.41417 15.5009 6.95441 15.5 7.49996C15.5011 8.07667 15.3405 8.6471 15.0287 9.17426C14.7169 9.70142 14.2608 10.1735 13.69 10.56C13.6 10.6188 13.4832 10.6493 13.364 10.6451C13.2447 10.641 13.1322 10.6024 13.05 10.5375C12.836 10.377 12.866 10.1115 13.086 9.95621C13.5331 9.64106 13.8892 9.26048 14.1324 8.83801C14.3757 8.41553 14.5007 7.96013 14.5 7.49996C14.5018 6.6222 14.046 5.77868 13.23 5.14946ZM10 6.56246C9.66848 6.56246 9.35054 6.66124 9.11612 6.83705C8.8817 7.01287 8.75 7.25132 8.75 7.49996C8.75 7.7486 8.8817 7.98706 9.11612 8.16288C9.35054 8.33869 9.66848 8.43746 10 8.43746C10.3315 8.43746 10.6495 8.33869 10.8839 8.16288C11.1183 7.98706 11.25 7.7486 11.25 7.49996C11.25 7.25132 11.1183 7.01287 10.8839 6.83705C10.6495 6.66124 10.3315 6.56246 10 6.56246Z" fill="white"/>
<path d="M29.0083 10.5V3.45H30.2883V9.41H33.6683V10.5H29.0083ZM34.6235 10.5V3.45H35.9035V10.5H34.6235ZM39.696 10.5L36.556 3.45H37.926L40.256 8.86L42.586 3.45H43.906L40.766 10.5H39.696ZM44.5649 10.5V3.45H49.2549V4.47H45.7949V6.41H49.0349V7.43H45.7949V9.48H49.2549V10.5H44.5649Z" fill="white"/>
</svg>
