<svg width="24" height="24" viewBox="0 0 24 24" fill="none" xmlns="http://www.w3.org/2000/svg">
<path fill-rule="evenodd" clip-rule="evenodd" d="M12 6.6002C10.2496 6.6002 8.57084 7.29555 7.3331 8.53329C6.09536 9.77103 5.4 11.4498 5.4 13.2002C5.4 14.9506 6.09536 16.6294 7.3331 17.8671C8.57084 19.1048 10.2496 19.8002 12 19.8002C13.7504 19.8002 15.4292 19.1048 16.6669 17.8671C17.9046 16.6294 18.6 14.9506 18.6 13.2002C18.6 11.4498 17.9046 9.77103 16.6669 8.53329C15.4292 7.29555 13.7504 6.6002 12 6.6002ZM3 13.2002C3 10.8132 3.94821 8.52406 5.63604 6.83623C7.32387 5.14841 9.61305 4.2002 12 4.2002C14.3869 4.2002 16.6761 5.14841 18.364 6.83623C20.0518 8.52406 21 10.8132 21 13.2002C21 15.5871 20.0518 17.8763 18.364 19.5642C16.6761 21.252 14.3869 22.2002 12 22.2002C9.61305 22.2002 7.32387 21.252 5.63604 19.5642C3.94821 17.8763 3 15.5871 3 13.2002Z" fill="#5F5F5F"/>
<path fill-rule="evenodd" clip-rule="evenodd" d="M17.6882 2.98298C17.8707 2.72228 18.1494 2.54477 18.4628 2.4895C18.7762 2.43424 19.0987 2.50575 19.3594 2.68829L22.3084 4.75317C22.5691 4.93571 22.7466 5.21435 22.8019 5.52777C22.8571 5.8412 22.7856 6.16374 22.6031 6.42444C22.4205 6.68514 22.1419 6.86265 21.8285 6.91792C21.5151 6.97318 21.1925 6.90168 20.9318 6.71913L17.9829 4.65426C17.7222 4.47171 17.5447 4.19308 17.4894 3.87965C17.4341 3.56623 17.5056 3.24369 17.6882 2.98298Z" fill="#5F5F5F"/>
<path fill-rule="evenodd" clip-rule="evenodd" d="M1.68829 6.42439C1.50575 6.16369 1.43424 5.84114 1.48951 5.52772C1.54477 5.21429 1.72228 4.93566 1.98298 4.75311L4.93193 2.68824C5.19263 2.50569 5.51517 2.43419 5.8286 2.48945C6.14202 2.54472 6.42066 2.72223 6.6032 2.98293C6.78575 3.24363 6.85726 3.56617 6.80199 3.8796C6.74673 4.19302 6.56922 4.47166 6.30851 4.6542L3.35957 6.71908C3.09886 6.90163 2.77632 6.97313 2.4629 6.91787C2.14947 6.8626 1.87084 6.68509 1.68829 6.42439Z" fill="#5F5F5F"/>
<path d="M8.6665 13L11.1665 15.5L15.3332 10.5" stroke="#5F5F5F" stroke-linecap="round" stroke-linejoin="round"/>
</svg>
