<svg width="25" height="25" viewBox="0 0 25 25" fill="none" xmlns="http://www.w3.org/2000/svg">
<path d="M20.25 7.35714H9.25M7.25 7.35714H4.25M20.25 16.6429H9.25M7.25 16.6429H4.25M15.25 12H4.25M20.25 12H17.25M8.25 5.5C8.51522 5.5 8.76957 5.59783 8.95711 5.77197C9.14464 5.94611 9.25 6.1823 9.25 6.42857V8.28571C9.25 8.53199 9.14464 8.76817 8.95711 8.94231C8.76957 9.11645 8.51522 9.21429 8.25 9.21429C7.98478 9.21429 7.73043 9.11645 7.54289 8.94231C7.35536 8.76817 7.25 8.53199 7.25 8.28571V6.42857C7.25 6.1823 7.35536 5.94611 7.54289 5.77197C7.73043 5.59783 7.98478 5.5 8.25 5.5ZM8.25 14.7857C8.51522 14.7857 8.76957 14.8835 8.95711 15.0577C9.14464 15.2318 9.25 15.468 9.25 15.7143V17.5714C9.25 17.8177 9.14464 18.0539 8.95711 18.228C8.76957 18.4022 8.51522 18.5 8.25 18.5C7.98478 18.5 7.73043 18.4022 7.54289 18.228C7.35536 18.0539 7.25 17.8177 7.25 17.5714V15.7143C7.25 15.468 7.35536 15.2318 7.54289 15.0577C7.73043 14.8835 7.98478 14.7857 8.25 14.7857ZM16.25 10.1429C16.5152 10.1429 16.7696 10.2407 16.9571 10.4148C17.1446 10.589 17.25 10.8252 17.25 11.0714V12.9286C17.25 13.1748 17.1446 13.411 16.9571 13.5852C16.7696 13.7593 16.5152 13.8571 16.25 13.8571C15.9848 13.8571 15.7304 13.7593 15.5429 13.5852C15.3554 13.411 15.25 13.1748 15.25 12.9286V11.0714C15.25 10.8252 15.3554 10.589 15.5429 10.4148C15.7304 10.2407 15.9848 10.1429 16.25 10.1429Z" stroke="#ED5108" stroke-linecap="round" stroke-linejoin="round"/>
</svg>
