<svg width="242" height="122" viewBox="0 0 242 122" fill="none" xmlns="http://www.w3.org/2000/svg">
<path d="M10.54 110.238C8.88533 110.238 7.38933 109.955 6.052 109.388C4.73733 108.821 3.69467 108.005 2.924 106.94C2.15333 105.875 1.75667 104.617 1.734 103.166H6.834C6.902 104.141 7.242 104.911 7.854 105.478C8.48867 106.045 9.35 106.328 10.438 106.328C11.5487 106.328 12.4213 106.067 13.056 105.546C13.6907 105.002 14.008 104.299 14.008 103.438C14.008 102.735 13.7927 102.157 13.362 101.704C12.9313 101.251 12.3873 100.899 11.73 100.65C11.0953 100.378 10.2113 100.083 9.078 99.766C7.53667 99.3127 6.27867 98.8707 5.304 98.44C4.352 97.9867 3.52467 97.318 2.822 96.434C2.142 95.5273 1.802 94.326 1.802 92.83C1.802 91.4247 2.15333 90.2007 2.856 89.158C3.55867 88.1153 4.54467 87.322 5.814 86.778C7.08333 86.2113 8.534 85.928 10.166 85.928C12.614 85.928 14.5973 86.5287 16.116 87.73C17.6573 88.9087 18.5073 90.5633 18.666 92.694H13.43C13.3847 91.878 13.0333 91.2093 12.376 90.688C11.7413 90.144 10.8913 89.872 9.826 89.872C8.89667 89.872 8.14867 90.11 7.582 90.586C7.038 91.062 6.766 91.7533 6.766 92.66C6.766 93.2947 6.97 93.8273 7.378 94.258C7.80867 94.666 8.33 95.006 8.942 95.278C9.57667 95.5273 10.4607 95.822 11.594 96.162C13.1353 96.6153 14.3933 97.0687 15.368 97.522C16.3427 97.9753 17.1813 98.6553 17.884 99.562C18.5867 100.469 18.938 101.659 18.938 103.132C18.938 104.401 18.6093 105.58 17.952 106.668C17.2947 107.756 16.3313 108.629 15.062 109.286C13.7927 109.921 12.2853 110.238 10.54 110.238Z" fill="#202020"/>
<path d="M62.496 86.268V90.11H56.172V110H51.412V90.11H45.088V86.268H62.496Z" fill="#202020"/>
<path d="M94.038 86.268V100.956C94.038 102.565 94.4573 103.801 95.296 104.662C96.1347 105.501 97.3133 105.92 98.832 105.92C100.373 105.92 101.563 105.501 102.402 104.662C103.241 103.801 103.66 102.565 103.66 100.956V86.268H108.454V100.922C108.454 102.939 108.012 104.651 107.128 106.056C106.267 107.439 105.099 108.481 103.626 109.184C102.175 109.887 100.555 110.238 98.764 110.238C96.996 110.238 95.3867 109.887 93.936 109.184C92.508 108.481 91.3747 107.439 90.536 106.056C89.6973 104.651 89.278 102.939 89.278 100.922V86.268H94.038Z" fill="#202020"/>
<path d="M144.642 86.268C147.135 86.268 149.323 86.7553 151.204 87.73C153.108 88.7047 154.57 90.0987 155.59 91.912C156.633 93.7027 157.154 95.788 157.154 98.168C157.154 100.548 156.633 102.633 155.59 104.424C154.57 106.192 153.108 107.563 151.204 108.538C149.323 109.513 147.135 110 144.642 110H136.346V86.268H144.642ZM144.472 105.954C146.965 105.954 148.892 105.274 150.252 103.914C151.612 102.554 152.292 100.639 152.292 98.168C152.292 95.6973 151.612 93.7707 150.252 92.388C148.892 90.9827 146.965 90.28 144.472 90.28H141.106V105.954H144.472Z" fill="#202020"/>
<path d="M189.106 86.268V110H184.346V86.268H189.106Z" fill="#202020"/>
<path d="M228.362 110.238C226.141 110.238 224.101 109.717 222.242 108.674C220.383 107.631 218.91 106.192 217.822 104.356C216.734 102.497 216.19 100.401 216.19 98.066C216.19 95.754 216.734 93.68 217.822 91.844C218.91 89.9853 220.383 88.5347 222.242 87.492C224.101 86.4493 226.141 85.928 228.362 85.928C230.606 85.928 232.646 86.4493 234.482 87.492C236.341 88.5347 237.803 89.9853 238.868 91.844C239.956 93.68 240.5 95.754 240.5 98.066C240.5 100.401 239.956 102.497 238.868 104.356C237.803 106.192 236.341 107.631 234.482 108.674C232.623 109.717 230.583 110.238 228.362 110.238ZM228.362 105.988C229.79 105.988 231.048 105.671 232.136 105.036C233.224 104.379 234.074 103.449 234.686 102.248C235.298 101.047 235.604 99.6527 235.604 98.066C235.604 96.4793 235.298 95.0967 234.686 93.918C234.074 92.7167 233.224 91.7987 232.136 91.164C231.048 90.5293 229.79 90.212 228.362 90.212C226.934 90.212 225.665 90.5293 224.554 91.164C223.466 91.7987 222.616 92.7167 222.004 93.918C221.392 95.0967 221.086 96.4793 221.086 98.066C221.086 99.6527 221.392 101.047 222.004 102.248C222.616 103.449 223.466 104.379 224.554 105.036C225.665 105.671 226.934 105.988 228.362 105.988Z" fill="#202020"/>
<path d="M46.664 12.268L47.6028 12.6123L48.0959 11.268H46.664V12.268ZM37.96 36V37H38.6584L38.8988 36.3443L37.96 36ZM32.18 36L31.2412 36.3443L31.4816 37H32.18V36ZM23.476 12.268V11.268H22.0441L22.5372 12.6123L23.476 12.268ZM28.576 12.268L29.521 11.9411L29.2882 11.268H28.576V12.268ZM35.104 31.138L34.159 31.4649L35.1065 34.2038L36.0496 31.4634L35.104 31.138ZM41.598 12.268V11.268H40.8846L40.6524 11.9426L41.598 12.268ZM45.7252 11.9237L37.0212 35.6557L38.8988 36.3443L47.6028 12.6123L45.7252 11.9237ZM37.96 35H32.18V37H37.96V35ZM33.1188 35.6557L24.4148 11.9237L22.5372 12.6123L31.2412 36.3443L33.1188 35.6557ZM23.476 13.268H28.576V11.268H23.476V13.268ZM27.631 12.5949L34.159 31.4649L36.049 30.8111L29.521 11.9411L27.631 12.5949ZM36.0496 31.4634L42.5436 12.5934L40.6524 11.9426L34.1584 30.8126L36.0496 31.4634ZM41.598 13.268H46.664V11.268H41.598V13.268Z" fill="#202020"/>
<path d="M65.106 12.268H66.106V11.268H65.106V12.268ZM65.106 36V37H66.106V36H65.106ZM60.346 36H59.346V37H60.346V36ZM60.346 12.268V11.268H59.346V12.268H60.346ZM64.106 12.268V36H66.106V12.268H64.106ZM65.106 35H60.346V37H65.106V35ZM61.346 36V12.268H59.346V36H61.346ZM60.346 13.268H65.106V11.268H60.346V13.268Z" fill="#202020"/>
<path d="M92.586 36L91.7158 36.4927L92.003 37H92.586V36ZM87.35 26.752L88.2202 26.2593L87.933 25.752H87.35V26.752ZM85.106 26.752V25.752H84.106V26.752H85.106ZM85.106 36V37H86.106V36H85.106ZM80.346 36H79.346V37H80.346V36ZM80.346 12.268V11.268H79.346V12.268H80.346ZM93.946 13.254L93.4925 14.1454L93.5051 14.1516L93.946 13.254ZM96.836 15.872L95.9678 16.3681L95.9738 16.3787L95.9801 16.3891L96.836 15.872ZM96.462 23.794L97.2708 24.3822L97.2757 24.3752L96.462 23.794ZM92.416 26.378L92.1591 25.4116L90.8845 25.7504L91.5548 26.8862L92.416 26.378ZM98.094 36V37H99.8452L98.9552 35.4918L98.094 36ZM85.106 23.182H84.106V24.182H85.106V23.182ZM91.974 22.264L92.6681 22.9838L92.6747 22.9775L92.6811 22.9711L91.974 22.264ZM91.974 17.13L91.2799 17.8498L91.2866 17.8564L91.2935 17.8628L91.974 17.13ZM85.106 16.212V15.212H84.106V16.212H85.106ZM93.4562 35.5073L88.2202 26.2593L86.4798 27.2447L91.7158 36.4927L93.4562 35.5073ZM87.35 25.752H85.106V27.752H87.35V25.752ZM84.106 26.752V36H86.106V26.752H84.106ZM85.106 35H80.346V37H85.106V35ZM81.346 36V12.268H79.346V36H81.346ZM80.346 13.268H89.254V11.268H80.346V13.268ZM89.254 13.268C90.9733 13.268 92.3734 13.5759 93.4925 14.1453L94.3995 12.3627C92.9346 11.6174 91.2067 11.268 89.254 11.268V13.268ZM93.5051 14.1516C94.641 14.7096 95.4444 15.4522 95.9678 16.3681L97.7042 15.3759C96.9583 14.0705 95.835 13.0678 94.3869 12.3564L93.5051 14.1516ZM95.9801 16.3891C96.5365 17.3101 96.822 18.353 96.822 19.544H98.822C98.822 18.015 98.4501 16.6099 97.6919 15.3549L95.9801 16.3891ZM96.822 19.544C96.822 20.9002 96.4334 22.1135 95.6483 23.2128L97.2757 24.3752C98.3039 22.9358 98.822 21.3158 98.822 19.544H96.822ZM95.6533 23.2058C94.9075 24.2313 93.7744 24.9822 92.1591 25.4116L92.6729 27.3444C94.6389 26.8218 96.2032 25.8501 97.2707 24.3822L95.6533 23.2058ZM91.5548 26.8862L97.2328 36.5082L98.9552 35.4918L93.2772 25.8698L91.5548 26.8862ZM98.094 35H92.586V37H98.094V35ZM85.106 24.182H89.084V22.182H85.106V24.182ZM89.084 24.182C90.5154 24.182 91.7759 23.8442 92.6681 22.9838L91.2799 21.5442C90.9028 21.9078 90.2366 22.182 89.084 22.182V24.182ZM92.6811 22.9711C93.5457 22.1065 93.926 20.9551 93.926 19.646H91.926C91.926 20.5582 91.6716 21.1522 91.2669 21.5569L92.6811 22.9711ZM93.926 19.646C93.926 18.356 93.5426 17.2219 92.6545 16.3972L91.2935 17.8628C91.6747 18.2167 91.926 18.76 91.926 19.646H93.926ZM92.6681 16.4102C91.7759 15.5498 90.5154 15.212 89.084 15.212V17.212C90.2366 17.212 90.9028 17.4862 91.2799 17.8498L92.6681 16.4102ZM89.084 15.212H85.106V17.212H89.084V15.212ZM84.106 16.212V23.182H86.106V16.212H84.106Z" fill="#202020"/>
<path d="M128.496 12.268H129.496V11.268H128.496V12.268ZM128.496 16.11V17.11H129.496V16.11H128.496ZM122.172 16.11V15.11H121.172V16.11H122.172ZM122.172 36V37H123.172V36H122.172ZM117.412 36H116.412V37H117.412V36ZM117.412 16.11H118.412V15.11H117.412V16.11ZM111.088 16.11H110.088V17.11H111.088V16.11ZM111.088 12.268V11.268H110.088V12.268H111.088ZM127.496 12.268V16.11H129.496V12.268H127.496ZM128.496 15.11H122.172V17.11H128.496V15.11ZM121.172 16.11V36H123.172V16.11H121.172ZM122.172 35H117.412V37H122.172V35ZM118.412 36V16.11H116.412V36H118.412ZM117.412 15.11H111.088V17.11H117.412V15.11ZM112.088 16.11V12.268H110.088V16.11H112.088ZM111.088 13.268H128.496V11.268H111.088V13.268Z" fill="#202020"/>
<path d="M147.038 12.268H148.038V11.268H147.038V12.268ZM148.296 30.662L147.579 31.3597L147.589 31.3691L148.296 30.662ZM155.402 30.662L156.109 31.3692L156.118 31.3596L155.402 30.662ZM156.66 12.268V11.268H155.66V12.268H156.66ZM161.454 12.268H162.454V11.268H161.454V12.268ZM160.128 32.056L159.282 31.5235L159.279 31.5273L160.128 32.056ZM156.626 35.184L156.196 34.2814L156.19 34.284L156.626 35.184ZM146.936 35.184L146.494 36.0813L146.5 36.084L146.936 35.184ZM143.536 32.056L142.677 32.5685L142.681 32.5746L143.536 32.056ZM142.278 12.268V11.268H141.278V12.268H142.278ZM146.038 12.268V26.956H148.038V12.268H146.038ZM146.038 26.956C146.038 28.7353 146.504 30.2554 147.58 31.3596L149.012 29.9644C148.41 29.346 148.038 28.3954 148.038 26.956H146.038ZM147.589 31.3691C148.664 32.444 150.126 32.92 151.832 32.92V30.92C150.501 30.92 149.606 30.5573 149.003 29.9549L147.589 31.3691ZM151.832 32.92C153.556 32.92 155.032 32.4467 156.109 31.3691L154.695 29.9549C154.095 30.5546 153.191 30.92 151.832 30.92V32.92ZM156.118 31.3596C157.194 30.2554 157.66 28.7353 157.66 26.956H155.66C155.66 28.3954 155.288 29.346 154.686 29.9644L156.118 31.3596ZM157.66 26.956V12.268H155.66V26.956H157.66ZM156.66 13.268H161.454V11.268H156.66V13.268ZM160.454 12.268V26.922H162.454V12.268H160.454ZM160.454 26.922C160.454 28.7917 160.046 30.309 159.282 31.5235L160.974 32.5885C161.978 30.9924 162.454 29.087 162.454 26.922H160.454ZM159.279 31.5273C158.519 32.7476 157.497 33.6607 156.196 34.2814L157.056 36.0866C158.702 35.302 160.014 34.1297 160.977 32.5847L159.279 31.5273ZM156.19 34.284C154.89 34.9139 153.421 35.238 151.764 35.238V37.238C153.689 37.238 155.461 36.8595 157.062 36.084L156.19 34.284ZM151.764 35.238C150.132 35.238 148.674 34.9147 147.372 34.284L146.5 36.084C148.099 36.8586 149.86 37.238 151.764 37.238V35.238ZM147.378 34.2867C146.124 33.6697 145.132 32.7598 144.391 31.5374L142.681 32.5746C143.617 34.1176 144.892 35.293 146.494 36.0813L147.378 34.2867ZM144.395 31.5435C143.668 30.3255 143.278 28.8007 143.278 26.922H141.278C141.278 29.078 141.727 30.9758 142.677 32.5685L144.395 31.5435ZM143.278 26.922V12.268H141.278V26.922H143.278ZM142.278 13.268H147.038V11.268H142.278V13.268Z" fill="#202020"/>
<path d="M208.106 32.226H207.106V33.226H208.106V32.226ZM215.926 32.226H216.926V31.226H215.926V32.226ZM215.926 36V37H216.926V36H215.926ZM203.346 36H202.346V37H203.346V36ZM203.346 12.268V11.268H202.346V12.268H203.346ZM208.106 12.268H209.106V11.268H208.106V12.268ZM208.106 33.226H215.926V31.226H208.106V33.226ZM214.926 32.226V36H216.926V32.226H214.926ZM215.926 35H203.346V37H215.926V35ZM204.346 36V12.268H202.346V36H204.346ZM203.346 13.268H208.106V11.268H203.346V13.268ZM207.106 12.268V32.226H209.106V12.268H207.106Z" fill="#202020"/>
<path d="M192.274 24.6003L172.755 35.827C172.422 36.0189 172.005 35.7777 172.006 35.3928L172.043 12.8762C172.043 12.4913 172.46 12.2514 172.793 12.4444L192.275 23.7343C192.608 23.9273 192.607 24.4084 192.274 24.6003Z" stroke="#202020"/>
<path d="M184.603 22.6559C185.269 23.0419 185.267 24.0042 184.6 24.388L176.342 29.1378C175.675 29.5216 174.842 29.0391 174.844 28.2693L174.859 18.743C174.86 17.9732 175.694 17.4935 176.361 17.8794L184.603 22.6559Z" fill="#202020"/>
</svg>
